<mxfile host="app.diagrams.net" agent="Mozilla/5.0 (Windows NT 10.0; Win64; x64) AppleWebKit/537.36 (KHTML, like Gecko) Chrome/132.0.0.0 Safari/537.36" version="26.0.10" pages="3">
  <diagram name="filtering" id="PhSkuTTHiElNDAKjxbeT">
    <mxGraphModel dx="794" dy="420" grid="1" gridSize="10" guides="1" tooltips="1" connect="1" arrows="1" fold="1" page="1" pageScale="1" pageWidth="850" pageHeight="1100" math="0" shadow="0">
      <root>
        <mxCell id="0" />
        <mxCell id="1" parent="0" />
        <mxCell id="Dj6f-7nEe7_ozWwD5Nd7-3" value="" style="shape=image;verticalLabelPosition=bottom;labelBackgroundColor=default;verticalAlign=top;aspect=fixed;imageAspect=0;image=data:image/png,iVBORw0KGgoAAAANSUhEUgAAAgAAAAIACAYAAAD0eNT6AAAABHNCSVQICAgIfAhkiAAAAAlwSFlzAAAOxAAADsQBlSsOGwAAABl0RVh0U29mdHdhcmUAd3d3Lmlua3NjYXBlLm9yZ5vuPBoAACAASURBVHic7N15fFTV+fjxTwIJ+76oCAooqwui4ILivlXRWhfUuuO+fNVWrVZ/tVpb616rrVXc6i5irRVkU1llExAIYScQCCSB7MlkMpnt/v44pFK2TOace+7c5Hm/XvPq9yvMOTfD5J7nnuV5QAghhBBCCCGEEEIIIYQQQgghhBBCCCGEEEIIIYQQQgghhBBCCCGEEEIIIYQQQgghhBBCCCGEEEIIIYQQQgghhBBCCCGEEEIIIYQQQgghhBC7S/P6AoTQ0BkYDgwF+gB9gZ5AB6Aj0Grn36sEaoAiYDuwEVgNrAIWAaVWr1oIaIP63h7BT9/dXkAX1Pe3A9Bi598tB+Ko728RsAP1HV4DrER9jystXrsQQljXCrgA+DuwFnAMvOJANvCPnW23QAjz2gOXAW8Ay4EIZr6/DhAFlgGvAqOBTpZ+JiGEcFU6cCbwHlCFuZvmvl6VwIfAGcgMmdDTGbgbmAGEcf+7W/cKA9OAO4Hurv+UQghhWCvUDWw99m6cu7/WAf/HT0sJQtQnDTgfGA+E8O67W/eqBT4DzkEF00IIkbJaAg+h1jm9vnnWvQqBB3demxB7kwncAKzA++/rvl5rdl5jhkufgRBCJO1qIBfvb5T7em0ELnXrhxe+lA7cBOTh/fezId/jW4BmLnweQgjRIIcAk/H+xpjoazJwsCufhPCTc1Cb77z+Pib7WgacbvpDEUKIRF2P2njn9c2woa9S4JcufB4i9XUDPsb776Cp16c7fyYhhLCiBfBXvL/56b7eQK3/iqbhKlJrf4qpVyFwicHPSQgh9qo7sBDvb3qmXnOQ41aNXUvgLbz/rrn9ehvZ7CqEcElfzCXxSaVXDnCYwc9JpI5DaFwBa32vpUBvEx+cEELUGYiaavT6BufWK2/nzygajxFAMd5/t2y/dgAjDXx+QgjBYcBWvL+xuf3aijw9NRaXAEG8/0559Qohx16FEJq6A5vw/oZm67UW2RPgd2NQOfa9/i55/QoD12h+lkKIJioTmIn3NzLbr3nI6QC/uhaI4f13KFVeMSQIEEIk4R28v4F59XrNwOcn7Locs5X6GssrDIzS+FxFCmrK1c6kHrf7rkYlTHHVgd1acuZJ3TnhmM4MPKw9fQ9pQ5eOmbRt05xo1KGkPExJWS3bi2tZkl3GvCXFzF9aQklZ2O1LA/Xk5PpnIIw4GfgOiyWhu3dpwanHd+OI/u0Z2Lc9/fu0pVOHTDq2z6Btm+Y0b5ZOeWWYUG2cvIIgeQVBVq2vZNmqcuYvLaFgR8jWpQLUAOehjr2KRqApBQDtUak7zwVOBAYDzQ21HUPVlJ+z8/UNUGaobb86FFX3vIMbjXfplMk1Pz+U635xKMOOanj5c8eBuUuKefuzTYyftJXqYNSFqwTU9+AoYJtbHQgjeqOO+rm+d2P40Z25+uJenHPKARzRrwNpGnfhlesrmTKrkM++zuOH5aXmLnLfioBhwBYbnQl3NfYAoDPqKfRyVHRvqwpWBLXu/W/gX6gZg6ZmEvAz0432PLAVD946gFuv6kvrVmZqmVQGIrzzWS5P/W0VpeWuzApMBi5wo2FhRGvU4H+kWx20b5vBbVf3ZcwVvRl0eHtX+lifG+C1Dzfw7mcbqQjEXOljp8WoI4JWpx+EeY0xAEhDTVPdDFyExem8fQgD/wHeRE0vxr29HCuuQNUgNyajeTp3XnsYf3rwSNq2NjVx87/KKsI8+8Za/vL2OsIR4/9MlwFfmG5UGPEGcJsbDXfumMl9N/bj/244nE4d7OwJrayq5em/TuQf4+JUVrvWzduoioLCxxpTAJCJetp/EBcjeU1rgT+j1oQjHl+LW1oB64Cephoc0Lcd4149kSGDOppqcr8Wryjj8rvmsXlb0GSzG1H7TeSpKbVcipqlMyotDcZc0YdnHj6Krp3sP4NUFs1l+/Z8nhoLH30NcceVbi5BPdwIn2oM9aDTgRuBL1GV5VL5/HVX1C/NtUA1ao3cnV9N79yLmgEw4rLzezLp3ZEc0qO1qSbr1eOAVlz3i94sXVXCxi3GgoBOqM2k8001KLR1B6aglgCMOfzQtkx46xTuvu5wWrdyZ7aqPo4To1ksn/NGwGnHwbzlUF5lvJszgH+ikiUJH/J7AHAOKnq/HbXJzy86ARcDP0edJMj19GrMaQuMR52w0HbHNYfx7nPDadnC/te0datmXD3qIHJy1rFig7Fmjwb+jkowI7z3OmpDsDFXjurFxLdP4fBD25pstsHS0poTqlJf3IO7wy9/BvlFsGqj0W7aouokGJ9BEXb4NQDohqrM9RxwoMfXouNA1OzFIGAW/o+kb0dtuNR2xzWH8Y+njiU93btVqrT0dE4ZvJqN22D1JiNNtkXVQlhkpDWh4yzgeQwtg6anp/HSY8fwwqNDaJHp/W01vVkLQoGNOI6KNTMz4MKR0KYVzF5idNrxSNSG583mmhS2+HEPwFXAK6ggoDHZDtyBWsrwo3TUbEY/3YYuO78n4149kWbNvP16Ok6cki3/IhqDmx6HKfOMNLsWFfA1tqUfP2kGrED9O2jLzEjnny8M5+qLDjHRnDGVO74nXFOwx3+fOAdu/wOEzc1DLUMdDXT16IFHegDHA8NR97a+wAFAR1RAD2pfTzHqHr4JWI36TOahAv6U5acAoCXwN9Tu/sbsHeBu/LdZ7HzUcTctA/q2Y/FXZ7u2078h4vFaSvO+AqAiAKffDFvNHOg8HTXjI7xxI/CuiYYyM9L59xsjuOD0g0w0Z1R1+QpqKtbs9c++WQA3Pg5hc1uRb0GdDGgMTkDNZF6AyhejYy3wFerBbj4pFvine30BCToEdcNs7IM/qCIk8/FfRTntXOGZGemMe/XElBj8AZz4T49IHdrCa4+BoRUJOT7lnQzgdyYaSkuDN/88LCUHf4Dmzfe9LeqcE+HtJ6CZuRHgUcwlVvNCO+BXqKyuC1CnyXQHf4ABwEPAXNQM6UOo2YOU4IcAYATwI2oapqk4BvgB/9TjboXa0Kjl1zf3t3bULxFOvPZ//v+TjoY7Rxtp+iKkUJBXbkJN42p76bFjuP7SQ0005Yr05q32++fnj4An7jDWXV/UMWy/6QD8CcgDXsLQstA+9EftW9sM/BG1GdxTqR4AXAJ8i8rP39R0Q6UU9kM97nNREXTSDj6wFf/vHjd/9xouFgns8d9+da2aDdDUAThTuxXRUGnAfSYaunJUL+4fo73dxVXpzfYfAADccQVcepaxLh/BP8vK6cBdwAbU7IUrKcv3oT3wGCpfyh14uBk/lQOAMcDnqKfLpqoF8CmpX4rzHN0GHrp1AG1SZOq/TiyyZ32nDm3VTdOAi4y0IhribAxM6x5+aFvGPn2cgctxV3qzxBIQvfQA9DWTtmswKjdAqhsIzEYdye3q4XV0Bf6BWt4+3IsLSNUA4FpU6lzvz9N4LwN4n9QOArQCgC6dMrn1KiOzskZF9xIAANx2GXTUmu8A4FTtFkRD/Z9uA2lp8N6Lx9O+ra2yIhrSErt9tmkFLz9kbH+LKymVDboWVcvgZK8vZBcno04NWL/Hp2IAcDlqh24qXptX0lGfSSrW4+6OWttK2i8vPsRYYR9jHIdoqHivf9S+DVx0mnYPg1HFqoQdXVEnVbSMuaIPI471x4pkWlozEp2RP+louM7M3eUSUvOIdjPgr8AHGEpUZlgb4EPUPgRrN8PUmnNVkdCHWLwuH9XjzkAV2Em1etzH6DZw/aW9DVyGWdFIBfHdNgHu6qJT4YOJWl2ko84WT9VqRSTqMjSrgXbumMkzDx9l6HJsSfzU2SNj4IvvoEovHVkL1L6lN7RaMasl8BH+2E/1K1QdlWtRheRclUoBQG9UtTTXK2c0tB53XRWvg7q35Pghnblsl+cIy/W4W6HSbqZSPe6hOm8+qHtLjjvS882we4iEtu/3z08ZCp3aQZlefvVBSABgy1W6Ddx/Uz9PCvsky3Ealpena0e4+0p4Rj9DwiWkTgDQAlWWXXv2x6IrUEmGLsHlICBVptlbAxNwsZBP+7YZPHjrAFZNO48fvjyLX43pz5H96x/863NEv/Y8cEt/Fv77LNZN/xn3j+lHh7auzuB0QwUBLd3spAG0tkKffkJ37X8DN9RW7z++ymgOpxyr3U1qHXtovDqieaS2fdsM7rnek31ayYs3PDHfrZepJS5NZ5EaZ92boTZR+2nwr/Mz1Gy4q4NJqgQAf8GlEr6dO2by5P1HkDvnAp7/7dEMOty9mkH9erflL//vGLbMvZCHx6Sb+EXal2GorIipoJfOm08cmnrL4LFIBdFweb1/b7D+vsXe2i2IRJyB5o30tqv7/ncm0C/i8YYvT7ZvA7+8QLvrDFQQ4LXnUU/RfnUFKm+Aa1IhALgUF3aOpqXBzaP7sPa783n83sFWf3nbt2vBo7cfyOJP1MYal+rZ3IyB5DsGaCVAH3hY6hVxDAVyE/p7A3trd3WAdgsiEdrHVG+4LHUT/uxLPJbc/qTrLjTSvddJzK5Hraf73a+BX7rVuNcBQHdgrOlGDz+0Ld+PP5O3nhnm2ZpdZqsedGqnzthOeAV693Clmzfw9hwraGaz8rps6u6cWJhQVWI1Uwf01u7OtSUv8T+0zmwMP7ozR/a3mSfGjHg0ud18/Q+FoQO1u/cyADgMeNXD/k0bi4Eia3vjdQDwIoaz/F05qhdLJpzt+VGdjBY/jcvHHwkz3oQrtJ9D9nAA3n/RW+u8uWP71DpPXVO1/r8lVOtjYIkntaKfxqk1Kh970q6+WGuVyzPR6N7zWCTCwDHXIWhmB01SOuqoX+pNLSavDarQkvHx2ssA4CwMJj5IT0/jL//vGD595cSUSNLRLKMd6c1+2qfXtjW89qjKvW14SeAqNJ9wNGllamzbJnUOosRjIWqq1if89zP0Lz3Fkh80Skej+TmfO/JAQ5diVyycfABwtn7llWZ4s8n1NuAkD/p120hcKIbn1d23GerJ1chQmKr1uJtndtqjHvfdV8KhPYzX434Z7+pxx3XeHIs5mqezzakuy8KJJ14fNUP/ulMn+mm8hui8uXuXFgx2ceOwm6LhsqTfO6gvHNAFtpdoXcIgVFEzWzqiCvsY175tBheecRBnjujOkEEd6N2zDR3bZxCNOpSUh8nfXsOCpSXMXVLC1zMKqA6au7nv4k/AeKD+HcoJ8uoGdB2GosNUrsfdLLMD7BYAAIwaCf98ymg97mNQNc69qMddhcYyTkl5mJ4Hel/uIRIqorZ6c8Peo/9vZy2LVBN2mM6bTz2+W0oeU61PLFKV9CbAOscOhMlztZqwPQPwIIaza/bv046H7xjAVaP2nq00ozn0PLAVPQ9sxfFDOnPvjf2oDET4dEIez/xjNZu26mVV2k031KbAx0016MUSgNTjplHV496zZF4DlJTtO9ueLU48QqBkUYPfl7f/XEGJqNBuQdRHawH/iP7+fPqPhIq02zhGa+cEAH20W0hcR+BeU421atmMFx4dwspp5zHmij4NSlXevm0Gt13dlxWTR/LYLdDC7AG0ezC4v8GLAEDqce/USOpxJ7/QCGwv9j4AqCpZRCxa3eD3bdUPALQ+O5EQvWOqff0ZAIRr8rXbMFAh0OYplzEY2nTYr3dbfvjyLB64pT/NmyU//ZORHuT+a2DiK9DL3IHfTqif1QjbAYDU495NI6jHXajz5iXZya9TmlBTsZZwcFtS79285+pOQ23VbkHUR2sHX78+/juo4ThRIqEd2u0cqj+xaivPRRpwl4mGhh7Rkbmfn2nk2GcsovKEHzMApr0OA8w9q95qqiHbAYDU494Ln9fjXqfz5nlL9l5xz4ba6s1Ul2cl/f75y7UvIbGEA0KH1mFNP+X+rxMOFjS4DsDedNdfTbeVo+R4NPd6gHryn/reqXTrbObfPBr+aQdl147w+YvG8sEMBk4w0ZDtAEDqce+Fz+txr9F58/ylJTiJFywzJlxTQFXx4qTfH4nC98u0L0MCAPdp5alol0LHVBMVCmwy0k47/TwXttKvjtZtoFXLZnzx+ghjgz+wxyzMgV3Uvq9MM1+pX5hoxGYAIPW498PH9bi1ZgBKysLM+9HuLEBt9WYqd8xD5wTjopUQ0N/g+6N2C6I+WkWzUilPRSJi0Woj0/8ArfTHQlsfnva48tSvjzSa7TFaW0I8tuf+pqP7wUM3GuniYhON2AwApB53PR4ZA+20nleAn+px2/IjmrkA3h5n5oklETUVa6kq/gHNS+Zf32pfikNqBAA9UEHjn4DPgMVAHup4p7PzVbPzvy1GnUP+A+o75ocMOVrzS+kuFfJwS6hqPZo/8n/F9X5FwE4AcDCay8r9+7TjvpvM7icL7aea6F2joYf+I9pADGyytBkASD3uetTV4zbAZgWsYmCFTgOfTdpKVbUriTP+y4lHqCpeoLXmX6e0EsZ/o93MWgwm9GigE1CV0lYC21D10h9FVR87DujJ/6Ypbrnzvx0HXI46xvsvoAC1BPQcMAL7G1ATUaXz5mCNu99Lk1QdC3PBdET/RzeT5WT/tNfCH75jgNZu/9058Si1wX0HAJkZcL9+Dtw04BTdRmwFAFKPO0E+rcc9XefN1cEob41zbzk8EiqivOAbaqvzjLT3/gSo0T+9OM3ApTREO1R1tFXAAlTSFO0Nuag8+w8Bc1HBwEOkRi34OloBQMDlwNSkYOXahOtYJKJM/5CqjWOuQ3Xe3L5tBleNMptBNhTYiBML7/fvjD4XWuo/y2pPh9sKAKQed4J8Wo9bKwAA+OPfVlNavv9fmoZyYmECpUuo2D4zqXP+e1MRgLH/MtLUZCOt1K8Dano/D3gJd7Oz9UfNBmwG/ohmpUhDtAKArYU1pq7DVfFocOf0vzk79E/o2kh0pfV9vvCMgxqU5Kc+jhOlpnJtvX+vTSs4c7h2d9q/y7YCAKnH3QA+rMf9LZq/7KXlYZ7460ojF+PEwgTLV1KaPynh0r6JemosFOnfGKuAmdqt7F866mz0BtT0vs16tu2Bx1AbRO/A26JHWgFAXoHRVK6uqS7PMnL0b1d5Whk+ADtLXFqP72eOMJurKFi+MuH7/mnDtLvTzrRoKwCQetwN4MN63CHUBjItr3+0kUVZpUm/PxapoLp0OaXbviZYsapBhX0SsXAFfDDRSFP/wt06AAOB2cDfsXcWe2+6Av8AZgFerd9pJVtauS71kzVGQtuNLW/tal3DSmPsTa7+VdTrYJ03Dxlkcud/GTWVGxL++4P0EyX7YhOg1ONOgg/rcb+v20AkGueKu+dTUpbgUoDjEA2XU1O5lvKCbyjLn0ZN1Tqj66B1yqrg3ucgbmaDtfZntR/Xonbrn+xiHw11MrAMg+W/G6D++dj9WL7aq32aiVGbW5PPZ7E/q/Qnz2wc79FK1dinl/6GK1BT/1UlC2nI6aLD9Yc17fPwNgIAqcedBB/W454LaC9Cbt4W5Or75hKNhnCcODhxnFiYWKSaaLiM2uotBMuzqSyaR+nWCZQXfEN1WRbRsHs36nAUbnocNppJ3LsB9URsWjPgr8AHaGa/c0kb4EPUPgSbSwJaAcCCZaWeJKpKVKB0KfGY+WUKx1EzXppyDFxKfbQOThtJKOc4VBUv/G/q30QZ2ASoffE2zmlKPe4k+LAet4M6WjZWt6Fvvi/mhvsm8NKDRqslJsVx4IEXYK5+1r86L6CbhGBPLYGPsJv/IVm/Qh0pvBYwu+tz77QyVeZvr2HVhkqO6Jd696BQVU6DS1gnau1mKNaPqVcZuJT6aP0uxWKO9jAaKF1CONjw4ksZ+mGwdgs2bq9SjztJx+rvA7Bdj/ufwL4PwDbAx5Phjj8aOYuctHAU7n0WPp1qrMkdmJ/+b4E6x++Hwb/OFcCX2EkVuw7NQWLKLP3dcKZFa0uoLtMvRrEvU+dpNxFBLfu4Ta8cuc7JI8chULok6dTLJfpnJLSnfmwEAFKPO0k+q8cN6pf+RVONfTkDxvxeHb2zrawKRj9kdPAH+DMqq54pzYBPMZAK1QM/Qy0JuL0cUAVojZTjJprfYKcjFqmmsmiu8V3/u5o0R7uJFbi70bWO1imP/O3J/To68QiVxfO0Thlt08/YrL1D1UYAIPW4k+Szetx1xqLWuY2YMg9Ovxnmufews4eFK+D8u4xO+4NaD33NaItqycVm1kfTrkDlDXCbVp6KRVmlrM/1IArdi3i0hsods/eaZ96UNbnwo9bCCQAL9a8kIVqFRBYua/ipo2htGeUF3yY17b+rbP0dEtpTUzYCAKnHnSQf1ePeVQgDVR93tXUH/OJX8MTr7s4GVATgwZfgovuMbfjb1SOYXfO+HrWe7ne/Bn7pch/aiape+9BYTJu0eLRmZ1Ird4MRQ0ddzc6d7ZtWMbLvFycePzhOlOqy5ZQXTjfybzBzkXYT2uc0bAQAUo87ST6qx727Kaiz7sbEHfj7ODjuanjhfag0k9gPULn9X/4ITroe3puAG7u+vwI+N9jeYcCrBtvz2ljAbDWW/zUHzbz0747PpTJgI7X93sWiASuDf3kVfKKfo7IW+E7/ahKidcrj6xkF9f67OvEoNZXrKNs2mZpK7S0lgKokOlu/FJhW8AP28gAkTepxa/Eyd/L9gN4Zhr2oCMCz76pA4NcvwoxFyW0UjETVssIDL8KQ0fCnt4xk+NubcuBOg+2lo476+XNtbO/aAG/j3v2oCvhep4GKqgh/fddsqt1ERWtLqDD01Fmft/4NVfqnCueguTmvAbJ13lwdjPLphL3v8YjWlhAoXUpp/tdUly3X3tS9q0+mQLX+biDtBBA29teH0ThoUbv2MjIzPD4L1gCxaDVl2yZjoiRnJAo99JIoV6OZKEPTKNTTr6vfs07t4JRjYXBfGNhbZVLs1B4ydsaO0RjkF6nUppsLYEEWzFmqonALrgLGGWzvDlR2vcboNuBNl9q+CXhHp4EO7TLImXkBXTrZi6tDVRupLlvm6oa/OsXlcMK1RmbX7gDe0L+ihHRHrYUnfY/p07M1KyadQkazGmKRKqLhEiKhHa7tswhH4KQbYEuBdlMHobkPwEYAUIvGk2hk/eVGSzW6rbpsGTWVZp4UasPQ8zy9JlBnxL30AvCAx9fglb9hdj9ER9RmQv3Fod20b5vBhWccxJkjujNkUAd692xDx/YZRKMOJeVh8rfXsGBpCXOXlPD1jAKqg66czyxCFRRyI6tTe1T5Yq0Zyduu7ssbfzrOzBXthxOPECj5cb9lZU27/3n4aJJ2MyGgB+DOfNreZaFZGe+xW4yU6E3Ic/+E59/TbmYFKsmeFhsjazEaKQsrsi4xk63JAicWpnTb18ZS0QaC0EevMFAAu+mA9yYD+AbNehA+NA84ExWEmfJHVJEdY/r3acfDdwzgqlGHJFwVrTIQ4dMJeTzzj9Vs2mp8GuUp4HHTje70EZobDtPT05g97nROPs697TXhmkICJUtcyfC3L/Oz4JL7jaS6Hg+M1r+iBnkJzQ2xLTJh4itGjl7vV/YGOO8uNQug6TngYd1GbMytSz3uJPmkHnd9IsDFwFKvL8SiDcAvMDv4dwTuNdVYq5bNeOHRIaycdh5jrujToJKo7dtmcNvVfVkxeSSP3aJungbdg3v7G7Sfu+JxhxseWESVC/elWLSaquIFVO6YY3Xwr66Be54xVufibSOtNMzHug3UhlXOEQPZD/epsASuedTI4A+GNhWnfAAg9bi12KjHnYhK4ELsFAfx2jZU+Wv9c6D/awyGZnP69W7LD1+exQO39NdaXstID3L/NerJqZe5A6edUD+rG75BMykQQM6WAHf9Tn8Ld514rJbqsizK86e6UtVvfxwHfvWCkfVoUNPS04y01DCLMZB2OG+7mgUpNL51WbV55W/UXiQDVgH6hwjxQQAg9bi1pFIpswLUwNiYg4AtqKWOXMPtpgF3mWho6BEdmfv5mUbKa9cVPzlmAEx7HQYcqt1knVuNtfS/HOBpEw19+OVmXnhT6wQasWiAQOlSyrZ9TU3lWisb/Xb32mfwb+0sCf/1PCZ2PyfnXRONrN0MF90Ly7UP2P0kewOcd6eR6op13jLVkI0AQOpxJ8kn9bgbIgdVGtZiXj9rNgCn4k4FtOPRrKkB6sl/6nun0q2zmdwa0fBPj0pdO8LnL0LvHkaaHgycYKSlPX2O5tnxOg8/u4Ivpm5r0HuceITa6i1UbJ9F2bbJhKo2eDLwg0q1/Qdze/U3o9JSe+UNDG08zM2HC+5WuUF0puvDEbXh77y7jD35g/oZfRUASD3uJPmkHndDFaCekt0oieuVWcCJqJugG7Q3VbVq2YwvXh9hbPAH9sh2eWAXePsJyDSTuuMXRlrZUxxVk0G/objD1fcu4OsZ+58/j0UqCVXlULnje0q3fkVV8UIjmUJ1fLcQ7n7a2Lo/wO/QTLakqQp4xVRj4ajKDTL8Gnj3Pw07sx8IwptfqKN+z79nbM2/zqtozqrvysYpgGtQRT+S0uOAVmydNyplKwJWFf/gSklOx4HBl2pvSrkZzbPPLspATcc+gJ3voVteB+7D3dK2K1FPxUl74dEhPHBLf0OXo5KklBfufe745Y/UzVPTajR/5v1ohspVb+Q8X4vMdD546VguPaczsWgN8VgNsUgl0XAFsXA58bh7efuT8eUMNfiHze1j/BEYjvky1w3VCfXA2c10wy0y4azj4bRhMKgPHN5L5RnJzFDZE7duV7n9Zy5SGf4MJPnZm+2ojJm+CgCOQzNjUfbU81K2Hneg1NxmoF2tyYWRN2k3cxKwQLsVd41ClRFO+qioRypRCU8+cbmfg9FcRuvfpx0rp51nNJ9GoHQpoaq958cPR9STk+a0p4OqI+LWo/LxwHwMzYKmp8GTd8IdV5hozT1/H6em/Q0++YM67jrDaIvJ0074lMKMJ8qysQQg9biT4KN63LomAkMwmyvfbRNRiUfcHvzBwFr4w3cMMDr4O/HofhPUZGYYSaqSBpyi3cq+SICulgAAIABJREFU/YDBm2ncgd+9Brf/0bWnPy3VNXDbU6qgluHB/31SZ/AH9TAx1+uLcMFMDK7917F1CkDqcTeQj+pxm7ANVRr2fMCbhOuJyUWtTV+E2vFvw1CdN7dvm8FVo7Qqcu8hFNiIE9v/isfoc6Gl/nYDrexuCXgUwzMMX3wHZ96mEuukivlZcOrNRnf71ykk9SpSOsANpM4RaBOqgFtw4YSFrST7Uo+7AXxWj9ukqaib/j3YG2ATUYhKwjMA+NJy34N03nzhGQc1KMlPfRwnSk1l/ft627SCM4drd6f1syegFDVlbPTGunEr/Px+VVrazcQy9SkuV2f8L7nf2Dn/3d2F+gxTTQ5qwGws7sSd00X+CABA6nEnwVY9btNqgb+jNrvcgoGSlxpWoX756srvurnRb1+0Ht/PHNHd1HUAECxfmXBVtNOGaXfXR7uF+k1CnV83ynFUaenjr4EX31dVLG0pr1Ils0+4Fj782viUf53XgH+70rIZn6NSBPvdi6gU1q6wtfu6Hao0bNJJ/Tu0y2DL3As9qwsQiwao3D7HSj3uY6/SLslZC3TFXklON6UBI4DrUMfhOrncXwXqxvYBam3Tq8Qmdbahiqsk5Ycvz2L40WZqB0Vry3bu/E9sS8/8LLj4Pq0uc7ETBDRHrbGe7FYHbVvDtRfCdReqapVuWJOrHh4+nux6pcvFqP0ZqXW8YU9pqA2BN3p8Hckah6pd4drpCpvHr6YDZ+g08IdfHcHv/s+tk0H7Fq0tobJorqvT/nVeeF/Vu9f0LSrrXmPTArXjuO51DGZmsVahPrNvdv5vKu2dqEAjN37Rkovp2kl/Md5xopQXfPvf7H8J9V2mjrJqqMK9ugC764XaGHig2x0NHQgXnQZnn6COlOlYk6s2DE+aY2TZMBHFqCN/uVZ605eBWra7wOsLaaCvUPuiXJ11tBkASD3uevi0HreXOqM2yfUHBqLW6LsDHXa+2qGe7ipQTyslqL0FW1HnhZehihSl4jpmnQjqZ0hK7drLyMzQjJEch8rieYSD+Q16W1UQ+upVswwBrbRaaJhjUEmdrJ05PqALHDtQpVPu21NlUuzaCdq3Ua9IVO3grwrC9hJ13nzdZpUkbOEK63sMqoGz8N/+ogxUqmBLBX+1fQZci4XESjYDAKnHXQ8f1+MW7qkFko54g6supVVLvU2AgZLFhAINTyoZqoVe52t1HUHjZ0/S6cBkoKXlflNdDLgc+5tgTUlDldB90OsLqcczqJLfVpIq2doECCpxivaX561xm5i7pNjA5exbuKaQsvxpVgf/+VnwyWQjTU1ABv/GRGsfR0m5xgyi4xAoXZLU4A9Qon8Qy4tKYDNR+028SdCfmqLA9fh38Ae1l+chVBCTikcEK4Grgd9iMaOizQAApB73XjWCetzCPVppP/O3J5eVxolHqCyeR6gq+YIU2/RP2HtVCexz1ECRSntBvBJDbaL72OPrMOVfwLGAfqYVc75HLWVaL6ZkOwCQety7aST1uIV7tKa7Fi5r+PaGaG0Z5QXfNnjNf3fZ+ieXvUwBWrdxLBWfFm2pAS7DxWNoHtmIKkh2I+6lmk5EEeqo86k7r8k62wGA1OPeTSOqxy3coZUH4fvFiccPjhOlumw55YXTjRx3nblIuwlPboq7mIE67tawmr+NQwFqP8R/PL4OtzioGekBwO+xuxG4Ymefh6FmbD27Z3tRhS0ddexqgHZD6WmM//tJXHrewQm/x4lHCNcUEAps8rwk55cz4PanjE39b0Ylz/GyJKcw7/fAE8m+uU3r5uQvGLXf/BlOPEoosJGayrUJJ/mpTyAIR16unRf/KeBxIxekpxeq7oNreQJSzI/Az9EsQuUzbVHFdsYAR7jUxxpUkrP3MFjRT4e5HKGJc1A//CXaDTnw5bRtHHtkJ/r3abfPvxeLVBIObiVYsYrq0h+pDW4lHtU/a6fju4Vw65MQNbfd417UkTbRuHRFJUBKSiQSp0/PNhx31J75k6K1JQQr1xIoXUw4mI/jmNtX894EmKJfkuUl1HFNr1Wiit44qOlaP5evrs8HqGn/Eq8vxLIwqjrka6gz+FVAG9Sx4mT/vR0gG/WZ3ova3f8D3mQU3SuvvshSj7tx1uMW5nVHrYUn/bvap2drVkw6hYxmNcQiVUTDJURCO1xLbBWOwEk3GNnXchDe7gPYmwtQZ8rN5lj2XjHq6XeC1xeSYrqigr7BqNoU/VH5RzqiZg3q8ozUoHKM5AErUTlGFgDb7V9y4ryMZKUetzmpVI9bmJeFZmW8x24xUqI3Ic/9E57XPu/DCuBo7Vbc0RF4Ergbb2ZRTXKAD1Hn471dExXWefnlrctxrl8yBPUtnrEIcraqKmSZ3pQM2Ke6o36vjze+4+N94C9mmxQpph9wkk4DP2TDmcfDgV0NXdE+ZG9Q3/OY/lzUe6i0zKkoBExBJQwaikatBo9loZaX/orK8ieaGK/XsjoDqzE8nda3J7z8EJyUIs8P87PUTdGFkpyFqA0rqZzKVugbBmjvqe91AEx7Hbp2NHBFe1FYAufdCflFRpo7HgM/swXpqBSzv8X98sWmbEBtLP0EWTZs0rwOAECtqU3E8LWkpcH1o+CRMe7d8OpTXA5/egs+nuRaSc5LSe2SnMKclah1SC0DDoXPX4QDuxi4ol0UlsCVv1E56g1YhXs7sd2Sjto89yiqpkAqygJeRk35y2khkRLrV+tR9QGMH7FZvg7enwDRGBxxGLS0lFW8vAr+Nk4d8Vu00rVDnq+hakWLpqE1cK5uIyUVMPl7OOEoc0FA9gb4xa9ho7nT8n9GbaDyEwcVuIwF5qICgsPRKIFuSC3qLP/dwCOozWny1C+A1JgBAKnH3VB+qcctzGmHyvWw53m+JGQ2h4duhLtGJ79fJhyBlz+Cv36s/m9DyoBDSZFz0praoWbprkPtJLcVDERRVQ0/Ab5AaoOIfUiVAACkHnei/FaPW5jzBCoxkDE9uqnTAaPPhTYJFt4NBOGTKfD6567sa/kDhn/GFNEGGIk6sXMGavOgqRnYKGr2YSZq4+QsvKujIHwklQIAkHrc9fFrPW5hRidUYpxuphtukQlnHQ+nDVNB8eG9IKO5mh0or1Lf++wcld539o/aGf72ZTvqxENjePqvTxvUmfIBO18DgZ6os+XtgQ6oGYS6c+a1qM+lEHXefCuQg0r+lY0ULhKNxOmopAqOvP7nFcVA9kThezfh/XfRrdetBj8nIYRPXY4a8Ly+IaXKKwL8UusTFY1FGqp8qNffSdOvGaTejKQQwiOXIDMBDioQspTDTfjEYUA53n83Tb0qd/5MQgjxX2fQuG50DX0FUVW5hNjd5Xj//TT1kgBXCLFXR6I2vHh9k7L9ykdlQxNiX17E+++p7usF45+KEKJR6UXjXPfc12sJakewEPuThqpM5/X3NdnXpxgqBiaEaNyao85Bx/D+xuXm631U1jchEpEBfI3339uGvv4DWMrNKYRoLC5AnRf2+gZm+lUEXGTwcxJNRwYqv7vX3+FEX+PwPkWuEMKnOqJKWDaGo4Jx1FO/0YqIoslJA57H++9zfa8/I9P+QggDhqNKhnp9U0v2tRyVHlQIUy4jNU/OVABXufhzCyGaoHRUsY1VeH+TS/S1HnX0SZ6EhBv6ArPx/nte95qz85qEEMIV6cAVqNzYXt/w9vVajkrlKuufwm1pwA14u19mB3AzkuFPCGFJGnAOalNUNd4P+iHgc1SNAyFs6wg8DpRg7ztfvrPPdhZ+PiGE2Kt2qKegb4Ew9m6AkZ193oyh+u1CaGoL/BpVOc6t7/1q4B5k4BdCpJg2wPnAc6iNgyZPEERQ0/t/RR3ls1bOWIgkDEWdGFiGXl6NOJC1s63jrP4EQghtTXltTupxCwFdgVOBwcAg1O9EZ9TSQVt++v7XoL73ecBKVPCwALXHQAghhBBCCCGEEEIIIYQQQgghhBBCCCGEEEIIIYQQQgghhBBCCCGEEEIIIYQQQgghhBBCCCGEEEIIIYQQQgghhBBCCCGEEEIIIYQQQgghhBBCiEYhzYU2hwC3AWcBvYDWLvQhhBBCNHZBIA/4FhgLZJls3GQA0BL4C3C74XaFEEKIpi4OvAH8Cqg10aCpgbolMAU4zVB7QgghhNjTTOB8DAQBzbQvRXkVuNxQW0IIIYTYu95AF+Br3YZMzAAMAX4E0g20JYQQQoj9iwND0dwTYGLQvtVQO0IIIYSoXzpq7NVuRNeZBtoQQgghROLO0G3AxBJADWoToBBCCCHsCAJtdBowMQMgR/6EEEIIu7THXhMBQK6BNoQQQgiRuE26DZgIAL4z0IYQQgghEjddtwET0/dHA8sMtSWEEEKI/XNQY2+2TiMmZgCygNcNtCOEEEKI+v0NzcEfzD21t0JlJdI+liCEEEKIffoWuAgI6TZkKhVwFBgHdAWOQ5YDhBBCCJMc1Gz7DaRYMaBdnYoqWzjAhbaFEEKIpmYTqtLuNyYbdetJvRXwMPAokOFSH3toe8DhDL95LN0Hy0qEEEKkmkjMYfmWEDlFYfU86ycFC2H6fVC6xmavUeA14DEgYLpxt6fqhwBvAcNc7ucnaWkcdsatDLn6eTJatbfWrRBCiH3LL4uweFOImkjc60tpmEgQFj0HP74CjtVrzwJuARa51YGNtfrmwN3An9BMW9gQrToexLE3vErP4ZfZ6lIIIcRuaiIOP+bWsLU04vWlNFzuVJj5AFRttdlrCHgWeBoIu9mRzc16fYE3gLMt9kmPoaMYNuZ1WnU62Ga3QgjRtDmQUxRm+ZYQkZjP5vuDO2Du47DmU9s9zwFuA6ysM5g6BZCIMuBDYCNqo2BrG51WFa5j46x3yGzTmc69j4U0OaAghBBuCoTizN0QZP32MHGfjf1s+BImjIZC12be96YCeAS4Cyiy1alXo+GBwHPAdTY77TbwVIbfPJZ2B8kBBSGEMC3uwNqCWrK3hvw38Fduhun3Q94M2z1PBO4ErK4zgPfn9Uehdjj2stVhs8xWDBz1Gwb//DHSm1k7oCCEEI1aWXWMRZtqKKuOeX0pDROPwoq3YP5TEKm22XMh8H/A5zY73ZXXAQBAB+APwD2YSU2ckI6HDGH4rW/RuY+9AwpCCNHYxOIOK7fVsqagFsdvT/3FK2H6/8H2H2326qCWw+8HSm12vLtUCADqnIJKIDTIVodpzZrT7+y7OGr00zRvYe2AghBCNAoF5VGW5NZQXeuzo32xECx+GZa8BDFXN9rvLgeV0CclquimUgAA0BK1EeK3QKatTtt278uwMW9wwJFWDygIIYQvhaMOWXkhcnZYHTzNyJ+vEvqUrbPZa11Cn0cBq+sM+5NqAUCdo1AJhI631mNaGr1Pvpah1/6FzLZdrHUrhBB+klcSYcnmGmojPpvvD1fCgqcha6zthD7LUAl9ltjsNBGpGgCA2g9wC/Ai0NZWpy07HMCQq5+j9ynX2+pSCCFSXnVtnMW5NRSWR72+lIbbNAVm/hoC+TZ7rQGeBF4AUnJnZCoHAHX6oCognWuz0x5DR3Hcja/Ruou1AwpCCJFyHGDjjjDLNoeI+u1sX3A7zPoNbPiP7Z5noRL6WF1naCibiYCSVY7aMbkKOAOLCYQ2zX6HZpmt6HzY8aRJAiEhRBNTURPj+3VBcnb4LaGPA2vGwcSrYccymx2XA/cB9wIlNjtOht9Gte6o6RSrCYS69j+Z4be8Sfse1g4oCCGEZ3yd0KdiE8y4H/Jm2e55ImqHv9V1Bh1+CwDqXAD8AzjEVofNMloy8KKHGXzxo6Q3t3ZAQQghrCquirFoY5DKkM+O9v03oc8fVAU/ewpQeWy+sNmpCX4NAEAtBTwOPIjFpYwOvY5i+C1v0uWwE2x1KUTSxl2r9yt+5Yd+e/wTyYrEHLK3hlhfGMZ3/+pFK1RCH7vT/Q7wJvAQUGmzY1OsZd5zQRCVM+BU1P4AKyryVvDdEyNY/M7tREMBW90KIYRr8sujTFkRYJ3fBv9oCOY9AeNOtz34bwDOQk35+3LwB38HAHXmAceggoFaGx06Tpyc6WOZ8tujKMyaaqNLIYQwLhRxWJgTZM7aaoJ+y+a3bS58cgoseRkca6fsIsCzwJGA9apBpjWGAAB++kc5Cphpq9PqolxmPXc+814dTW1Vsa1uhRBCW15JhClZVeQWR7y+lIaprVCb/L4YBeUbbPY8HxiKxYdNtzWWAKDOeuBM1LRMla1O8xaOZ9JDA8iZPtZWl0IIkZRAbZxZa6qZtyFIbdRXE/6w4Uv4YBhk/xPsLVbULTePBFba6tSGxhYAgPpWjAUGAv+21Wk4UMrid25n9gsXUl282Va3QgiREMeBdYW1TF0RoLDCZ9n8qgth0rUw+UaoKbLZ82RgMGqGOSWz+elojAFAnXzgUmA0sMNWpwXLJjH5N4NZPeFZnHij+74IIXyoPBjj25UBlm4OEY356anfUU/7Hw6DnIk2Oy5DzSRfADTaJ7rGHADUGY+aDRiLpTmjWDhI1rhH+O6pkVRsbVQzRkIIH4nFHbK3hfgmO0Bptc8eSMpz4IuL1Hp/2OqJq/HAANSY0ag1hQAAformzkDtE7CiZP18pj02lKxxjxCPNIo9I0IInyiqijItO8DKrbX+yuYXj6id/R+PgG3f2+w5FzgfNWtsdZ3BK00lAKgzC3Vk0Np6TjwWYfWEZ5ny26PYsXqmjS6FEE1YJOqwdHMNM1ZVU1njs6N9hT/AJyPV2f6YtYemOOpp/2igSZ3rbmoBAPy0o3M48KOtTqsK1zPj6TN3JhCydkBBCNGE5JdFfJrQp0YN+p//DErX2Ow5GxiB5ZNjqaIpBgB1lgInoIKBkJUeHYec6WOZ9NBAti62dkBBCNHIhSIO89YHmbMuSDDss6f+3Gnw4fFeJfQ5Dlhoq9NU05QDAIAoP2V1mm6r05qyfOa+fCnzXh1NqNLaAQUhRGPjQG5xmMlZVeSV+iyhT6hMbfCbMBqq8mz2PBcYgnr4C9vsONU09QCgTg5wNnADUGqr07yF45n04M4EQo6vJuyEEB4LhOLMXFPNwpwawn5M6PNhXUIfayqB+1H1Y1bb7DhV+bkaoFsOAl4FLrPZabdBpzH85rG0O7C/zW5FIyfVABsfx4E1BbWs3BYi5rPZfiq3wIxfwZbvbPf8NXAnYHWqIdXJDMCeCoDLgYuBbbY6LVo9i6mPHiMJhIQQ+1QejPHNygBZeT4b/J24etr/+CTbg/921MzuKGTw34MEAPs2AbU3wGICoRqyxj3CtN8No2zTEhtdCiF8IBZ3yMoLMS07QJnfEvqUrILPz1Xr/ZFqmz2PB44A3rfZqZ9IALB/5ajjIacBa611unkZ3zxxIks/uI9ordVfGCFEiimqjDJ1RYDV+bX+2ioUC8HCZ2Dc6VC42GbPG4FzUQl9Smx27DcSACRmDqoM5JOo4yOuc2JR1k19hamPDmH7SuvrZUIIj0ViDos31TB9TTVVIT/N9wP5C+DT0+CHZyBmbaN9FHgFtcP/G1ud+plsAmy4IcCbqERCdqSl0fvkaxl67ctktu1srVvhf7IJ0J/ySiL8uLmGUMRnn3+4EhY8DVlj1bq/PVnALcAim536ncwANNxyVOao+wE78/OOQ+73HzD54SPI++FzK10KIeyrCceZuy7IvA1B/w3+uVPgo5Ng+es2B/8a1MzscGTwbzCZAdDTF3gDlUPAmh5DR3HcTf+gdeeeNrsVPiQzAD7hQE5RmGWbQ0R9VbkHCO6AuY/Dmk9t9zwHuA2wmju4MZEZAD11m01uwOJmk/ylE5nyyJGsm/pXHLvTbEIIw6pCcWasqWbxphqfDf6OGvQ/OtH24F+OmoE9HRn8tcgMgDkHAM8D19nstNuAkQy7eSztewy02a3wCZkBSF1xB9YW1JK9NeSvcr0AFbnqWF/eTNs9T0Ql9Nlqu+PGSGYAzNkOXA9chMWEE0Vr5zDtsaFkf/EE8WiTTmsthG+UVMWYlq0S+vhq8I9H1Rr/JyNsD/6FwBWo+6sM/oZIAGDeROAo1HEUK/PzsUiIlV88yTePD6d0o+yDESJV1SX0+W51gIqgzxL6FGfD+HNg9iMQCdrq1QE+QCX0kR3QhkkA4I4K4D4sF50o35LFt0+OUAmEQgFb3QohElBQHmVylg8T+kTrEvqcATuW2uy5rkjb9Vgs0taUSADgLutlJ+sSCE357dEUZksuDCG8Fo6qhD6z11ZTXeuzTbvb5sGnI1VCn7i1csOelGlvimQToD1HoRIInWCz014nXMFxN75Gi3ZdbXYrUoRsAvRWXkmEJbk11PqtXG9tBcz7PWS/h6VSKHWWoRL6SDEUC2QGwJ4VqARCtwPW5ufzFo5nyiNHkvu91MMQwpbq2jiz1lYzb0PQf4P/pinw8Ymqep+9wb8GNVM6DBn8rZEAwK44qrrgUcBUW52GKraz8PUbmPPCKIIlW2x1K0ST4wA5O8JMWRGgsDzq9eU0THUhTLoeJl4FgQKbPc8CjkFN+/tsZ6S/SQDgjVzgfFS1qiJbneYv+5rJvxnM6gnPSgIhIQyrCMb4LjugEvrE/PTU76in/Q+HQ85XNjsuQ82IngGss9mxUCQA8NZ4YCBqVsCKaG01WeMeYfofRlK5bZWtboVotGJxyN4WYlp2gJJqnz3AVmyEf1+skvqEq2z2vOu9z0/RUqMiAYD3SlFR8AXAZludFq+fx9RHjyFr3CPEI7W2uhWiUSmuijJtRRUrt9b6LKFPBJa8rIr3bJ1js+d84FLU7OcOmx2LPUkAkDomA4OxuA4Wj0VYPeFZpv1uGCUbFtjoUohGIRJ1WLq5humrqqkM+Ww5rSgLPjsb5j0BMWvBv4N62h8I/NtWp2L/JABILUHUTtiRwEpbnVZszea7J09m8Tu3Ew1ZnQYUwnfyy6JMyQ6wrjDsr7nraI0a9MedAUXLbfa8HjgTNdMpN5gUIgFAapoPDEUFA1ZCdMeJkzN9LJMeGsi2JV/a6FIIXwlFHBbmBJmzrpqg3xL6bP4WPjxeTfs71vYpRFAzmkcBM211KhInAUDq8uSXp6Ysn+//8gvmvTqa2kprBxSESF0O5BaHmZxVRW6xtWx4ZtSWqw1+X10OVdZqlIEHDzGi4SQASH2eTJ/lLRzPpIcGkDPd2gEFIVJOoDbOzLXVLMypIey3hD4bvoQPhu1M6GONJ8uYIjkSAPiDJxtowtVlLH7ndmY/9zOqi60dUBDCc44D6wprmZoVYHuFDxP6fH0NTL4Raopt9mx9I7PQIwGAv3hyhKYga8pPCYTi8nstGrfyYIxvVwZYujlE1E9n+5z4zoQ+w2Dj1zZ79uQos9AnAYA/jQcGYDGJRiwcJGvcI3zz+HDKcn+00aUQVsXiDtnbQnyTHaDUbwl9SlbD5+ftTOhjtRT4rvci4TMSAPhXOR6k0SzLXcq3vz9REgiJRqWoMsrUFQH/JvQZdzoULrLZcy4/pTO3us4gzJEAwP+sF9KoSyA0+ZEj2bFqho0uhXBFJOaweFMN09dUU+W3hD4FC+GTkbYT+nhS0Ey4QwKAxsGTUpqB7RuY8eezWPzO7URqKm11K4QR+WURJi8PkLMj7K9s9JGgGvT/9TMoXWOzZ09Kmgv3SADQuCwDTkQFAyErPToOOdPHMvmhgWxd9C8rXQqhoybiMHd9kDnrgtREfPbUnzsVPqpL6GPt2utykgwDFtrqVLgvzesLEK45DDVVd6bNTnsMHcWwMa/TqtPBNrsV+zDuWr1f8Ss/9NOjcT0cyC0Js3RzyH9n+oM7YO7jsOZT2z3PBW4FVtvuWLhPZgAarxzgbOAG1DEdK/KXTmTyw0eqBEKOz26yotEKhOLMXOPjhD4fn2R78K8A7gdORQb/RktmAJqGA4FXgcttdtpt4KkMv3ks7Q4aYLNbsYumPgPgOLCmoJaV20LEfDbbT+VmmH4/5FnfaDsRuAuwmjtY2CczAE1DIXAFcDGw1VanRWtmM/WxoWR/8QTxmM9yqAvfK6uO8c3KAFl5Phv841FY/jp8PML24L8dNWN4ETL4NwkSADQtE1DHd15BHedxXSxcw8ovnuSb3w2ndNNiG102eptmv0s0lDqbsKOhAJtmv+v1ZfxXLO6QlRfim5UByvyW0Kd4JXx+Lsx+BCLVtnp1gA+AI4D3bXUqvCcBQNNTDtwHnA5YO0NUvmU53z5xEks/uI9orbUbW6OT/cUT/DB2DLOePY9oyPvS6tHaaua8eBE/jB1D1rhHvL4cCiqiTM4KsDq/1l9bUGIhWPgMfHYGbLeaaXMjcC5wPVBis2PhvWZeX4DwzBbgHSCKOtvr/nfBiVOSs5C8BZ/S4eAjaNu9r+tdNibZXzzByi+eBCBYmkfR6lkccuJo0pu32Od76v5+so689Il9/lm0tpo5L4xix+qZABSvm0s8EuKAI8/W6jMZ4ajD0s0hlm0JEfHbJr/8+TDhSsj5DzjWZiyiwN9Q+4LW2upUpBbZBCgAjgbeAoZb6zEtjd4nX8vQa/9CZtsu1rr1q10H/1117TeC0x6eQvOW7fb6Prc2Ae4++O9q0EUPc/SVz2j12xB5JRGWbK6hNuKzgT9cCQuehqyxNs/0AyxHHe2zmjtYpB6ZARCgNv+8izoueAqQaaPT8i1Z5M55n5YdutPxkCE2uvSlfQ3+UP9MgBszAPsb/MHeTEBNOM7CnBpW5df6a5MfwKYpMOGKnZv8rAUuNcDTwHXIJj+BzACIPfUFXgfOsdlpj6GjOO7G12jdpZfNblPe/gb/Xe1rJsD0DEB9g/+uXJsJcCCnKMwyv5XrBQhuh1m/gQ3/sd3zHNRTv0z3i/+STYBid3WbgkZjcVNQ/tKJTPntUayb+lccu9OhKSvRwR+geP08Zj17vqsbAxsy+AOsnvCs8Y2BFTUxvl0VYPGmGp8N/o5K5PPRibYH/7qqoachg7/YjSwBiH1ZBbwHHABYmZ+PR2ps/ZRcAAAgAElEQVQpzJrC9pXf0bXfSbRo181GtympIYN/nb0tB5haAmjo4F/H1HJAfGdCn/kbggTDfhr4gYpNMOVGWPp3iNop0bHTROACYKbNToV/SAAg9qca+DewGBgJdLDRabAkj00z3yYej9K13wjS0pvW1zSZwb/O7kGAiQAg2cG/jm4QUByIMXttNVtKIr4q2kc8qjb4Tb4ByjbY7LkAuAn4HeD9WVGRsprWnVUkaz3wNtAGdVLA9b0jTjxK0epZbFvyHzr3OY5WnZtGcSGdwb/OrkHA6q/+rNXWwAsf0hr86yQTBMTiDtlba1m0yYc7/ItWwNdXw6oPIW4tC6YDfIjK+Gk1mYDwJwkARKJqgSnAd8BJgJX5+drKHWya9Q415fl0H3QG6c2tHFDwhInBv06wNI+itXMIlmzRaqdo7WyK1sw2ck3F6+YC0H3Q6fX+3YLyKLPWBCkojxrp25poCBb8Eb69C6oLbPa8AbVv5yXUbn8h6iUBgGioPFSZ4WpUpTAL3yGHsk1L2DL/E9r3GETbAw53v0vLNs16h2Uf/dpom7qDv6k2dlW0ehZtuhxCp95D9/rnoYjDktwalueFiMR89tS/bS5MGA2bJmHxaF8UeB64EjVTJ0TCJAAQyYij6oR/CRwH9LTRaSRYzua5H1K5bRXdB59B8xatbXRrRbuD+lOyfh7VxbleX4qruvY/maOvfHqvOQvySiLMWVtNScBn+ftrK2DOIzDrYQhZq7wNsBQ13f8BKhAQokEkABA6dqDSCeejagvsOyetQZXbVrFx1ttktu5E5z7H2ejSdenNM+l1whWNOgjo2v9kTvvN5D1yFVTXxpm/IcjqAh8m9NnwJXx1BeTPs9lrELXB7ybU754QSZFEQMKU3qgEQufZ7PSgYy5g2E3/oHWXQ2x26xrdHfepam+DvwNs3BFm2ZYQUb9N91cXwqwHIWei7Z5noRL6yHS/0CYzAMKUctQO5FWo2YA2NjoNFK4nZ/pY0tKb07XfSaSl+Tu3VWOcCdjb4F8ejPH9uiA5O8L4Kp8PDmS/p3b4F2fb7LgMuB+4F6naJwyRGQDhhk7AM8BtNjvt0u8kht/8Jh16HmGzW1c0lpmA3Qf/WBxWF4RYva3WZwM/UJ4D0++Dbd/b7nk8cA9qyU0IY2QGQLghhMpC9gOquFBHG53WlG5l44w3iYWr6TZgJGnNmtvo1hWNYSZg98G/uCrKnHXVbC2N+iyhTwR+fBWm3KSy+tmTD9wAPIU6dSOEURIACDdtQB0ZbI7KHeD6/LzjxCleN5e8hePo0Oso2nTr7XaXrvFzELDr4B+JOmTlhViyKURt1FdDPxT+AF+NhnWfg2PtdIIDvIna4b/cVqei6ZElAGHLSaibmr35+bQ0DjvjVo755Qt77Dz3E78tB+w6+OeXRViSGyIY9tn2/mgN/PCsevK3N/CD2tx3G5K/X1ggMwDClq2oAKAaVVfAyvx82aYl5M55jzbd+9K+xyAbXRrnp5mA3af9J2UF/JfQJ3eaOtqXOw2LCX0iwAuobH45tjoVTZsEAMKmugRCnwJHAX1sdBoNVZG3YByV21bRbdBpNG9h5YCCUX4IAva223/ltloPr6iBQmUw57fw/WMQrrTZ8zzgQuATwGdZkISfSQAgvFAKvI/a5HQaNhMIzXiLzDad6dz7WEjz1wpYKgcB+0ry45sAYMOX8NXlkD/fZq91CX1uRXb4Cw9IACC8tAR4DzUTYGV+Ph4Jkb90IjvWzKRr/xG0aNvFRrfGpGIQsK/BH3wQAFRugSljYMlf1Lq/PZOAn+38X5+tkYjGQgIA4bUA8BmqfOlpgJXdesHizWyc+bYvEwilUhCwv8EfUjgAcOKw8j34+pdQttZmzzuAu4CHgQqbHQuxOwkARKpYh6or0Bk4FgsnVJxYlO0rv2Xbj1/Rpe9wWnXq4XaXxqRCEFDf4A8pGgCUrFIDf/Y76oy/PeNRa/1W1xmE2BcJAEQqqUsgNBMYAViZnw9VFLJx9juEAyV0G3gq6c0zbXSrzcsgIJHBH1IsAIiFYNEL8M3tUJVns+dNwFWo7JhBmx0LsT8SAIhUtBl4G4sJhHDilOQsVAmEeh5B2+59Xe/SBC+CgEQHf0ihACB/AUy8Ejb8x+a5/jjq6OsvgNW2OhUiURIAiFQVBb4FvgKGAVbm58PVZeTO/YDqHTl0H3gazTJb2ehWi80goCGDP6RAABCuhLm/h5m/hppimz2vAH4OvAGEbXYsRKIkABCprhB4F3V0cCRgZX6+fEsWuXPep0233nQ4eLCNLrXYCAIaOviDxwFA7hSVxjdvBhY32oeAPwHXAVtsdSpEMiQAEH4QBxYC41CphK3Mz0drA+QtHE/ZpiV0G3gqGa3a2+g2aW4GAckM/uBRABDcATMfgHlPQLjKZs/fozb5fY4k9BE+IAGA8JMy4ANgI+rIoJX5+arCdWya9Q7NMlvR+bDjSUvhBEJuBAHJDv5gOwBwYM04mHg1FC6y2C8VwCPAnUCRzY6F0CEBgPCj5ahMgr0BK/Pz8UgthVlT2LFqBl36nUSLdl1tdJsUk0GAzuAPFgOAilxVrnfp32wn9JkIjAKsFg4QwgQJAIRfBVDnqn9E7Q2wMj8fLNnCpplvE49H6dpvBGnpqfkrZCII0B38wUIAEI9C1liYfD2UrXe3r/9VCNyNevK3WjhACFNS8+4lROLqEgi1BoZjI4FQPErR6lnk//gVnfsMo1Wng93uMik6QYCJwR9cDgCKs9V0/6oPbSb0cYAPUTv8F9jqVAg3SAAgGoNaYAowA5U3wMr8fKhiO5tmv6sSCA0YmZIJhNKbZ9Lr+MspXj+PYPHmhN7TfdDpnPrQJO3BH1wKAKK7JPQJbDPf/r5tBK4EXgSsrjMI4QYJAERjsgWVQCiGyiTo/vd7ZwKhLfM/pX3PwbTtfpjrXTZUevNMDh3xSyLV5ZTlLgFn70vVaenN6HfOPZx45wfG8h8YDwC2zYOJoyHnK5XP344o8DfgcsBq4QAh3JS625mF0HMM8BZwnLUe09Lod849DL3mJdKaNbfWbUNUbF3JxplvsT37W6qLNgHQplsfDjjybA4741baG855MG6hoXo38SjMeRSy3sTyXrslwC3AMpudCmGDBACiMWsO3A88idojYMWBR53LyAcmpOSSgG1GAoBYGCaMhryZ+m0lLgj8HngZNQMgRKMjSwCiMYsD84BPUMcFrczPB3bkEI+GOfDIc2x0l9KMLAHM+z2s/Uy/ncTNRh3tm4D6DgnRKPmnCLoQydsEnAeMQaUUdt3ar1+gqkCWi7WVroWlf7fWG+o7cjqy1i+aAAkARFPhoGoKDEZlE3S3MyfOxplvu91N47fqfSyt+U8EjkZ9RyShj2gSJAAQTc124HrUFK+rxVq2r/zWzeabhq2z3e6hALW7/yLA6plCIbwmAYBoqr4GjgJewaV13sCOTW4027RUuhajOaiZoCOBf7nViRCpTAIA0ZRVAvehUgmvMt14JFhuusmmp9bQMcL/tQE4CzUTZGVPiBCpSAIAIdRJgWNQed09LGAvXBYF/n979x1nRXX+cfyzlQUB6R3BgtLBAlIFEWsUEIyGSCRqYn4mlkQTjSYRa6JpaiLGrjEJgmAlKogajTTBAggsogLSZJe6LAtsubu/Pw4bF9h6z5k7M3e+79frvtSE+8zD3tlnnnvmzDn3YUZ+/uNzLiK+UwMgYhRjLg6noDXek9EnwKmYJm+/z7mIBIIaAJGDLQcGAz8C8n3OReztxVz0+2F2jhSRA4K5XqmIv0qBxzB7vGsmX7j1ANb5nYRIEGkEQKRq6/xOQKyt8zsBkaBSAyAiIhJBagBEREQiSA2AiIhIBKkBEBERiSA1ACIiIhGkBkBERCSC1ACIiIhEkBoAERGRCFIDICIiEkFqAERERCJIDYCIiEgEqQEQERGJIDUAIiIiEaQGQEREJILUAIiIiESQGgAREZEIUgMgIiISQWoAREREIkgNgIiISASpARAREYkgNQAiIiIRpAZAREQkgtQAiIiIRJAaABERkQhSAyAiIhJBagBEREQiSA2AiIhIBKkBEBERiSA1ACIiIhGkBkBERCSC1ACIiIhEkBoAERGRCFIDICIiEkFqAERERCJIDYCIiEgEqQEQERGJIDUAIiIiEaQGQEREJILUAIiIiESQGgAREZEIUgMgIiISQWoAREREIkgNgIiISASpARAREYmgdL8TCKgOQC+g04F/PwroCLQG6gGNMD+7JkAKUAAUAfuB7cA2IBdYD6wD1gIrD/y7RMi0D/L8TkEkbFR/E0QNALQATgf6A32BE4HmdYxxxIEXQNtq/lwesAxYDMwF5gM5dTyWiEiyUP31UYrfCfggHRgGnAmMxJxwft4KWQG8ceD1PlDsYy5yuDKrd1+7y1EaEfXXJrYRoljjgkz1N0Ci8suRCgwFvgNchOk6g2gH8BIwDXgHiPmbjqAGwF9qAJKB6m9AJfsvR0fgauAyoL3PudTVRuAp4EnMvSzxhxoAP6kBCDPV34BL1l+OwcB1wFjCP8+hFHgZ+BPmnpUklhoAP6kBCCPV35BItscAzwY+wEzwuJjwn3xgPqOxwLwDr7P8TUdEpFKqvyGTLA3AEOA9YBZmNmmyGgTMxkxWGepzLiIioPobWmFvAI4DXsN8IKf5nEsilf/C/QNo43MuIhJNqr8hr79hbQAygJuBT4HzfM7FLynABGAVcD2Q5m86IhIRqr9JUn/D2AAMwyzmcC+Q5XMuQXAk8ACwCDjV51xEJLmp/h4s1PU3TA1AOnA75vnMrv6mEkgnAQuAB4FMn3MRkeSi+lu9UNbfsDQAXTA/3EmEJ2c/pGAev5mLuT8nImJL9bd2Qld/w/Bhfhf4GDjF70RCpB/wIXCB34mISKip/tZdaOpvkBuAFOAe4J9AQ59zCaMjgVeAO9BiKCJSN6q/dkJRf4PaAGRhTrxbCfAPLwRSgNuAv2Nm7oqI1ET1143A198gfritgNeBk/1MIr1xY47o2p2G3XtwxAldaXDMsWS2bElGi5ZktmhJSmoq6U3MMqWlhYWU7M6jJC+P4h3b2bd+PfvWrWXf2jXsyV5J/pKPie3d6+dfB+DfwCWA74mEjN1SwOK3INa4IFP99UYg62/QfjnaAm8D3RJ94IymTWk+8iyaDBpC08FDadizFympbgZIykpK2JO9krxFC9k+Zzbb33mLkt27ncSuo3mY+1I7/Th4SKkBCLeg1bggU/31VuDqb5B+OTpiTr4uiTpgZqvWtL5wHK1GX0izocNIyUjMKE1ZcTE7588l58UZbJk+leIdOxJy3ANWYNaz3pzIg4aYGoBwC1KNCzLV38QIVP0Nyi9HZ8zzpUd7faCU1FSajRhJhyt+SKsLRifspKtKaWEhW1+byaZnnmTbnNlQlpDrzQrMWtaB6UQDTA1AuAWlxgVZZ1R/I1l/g/DL0RwzNHKClwdJycig3fgJHH3TLTQ4LmFNbp3sWf4p6x74E1uef47SoiKvD1e+s1Wg7kkFkBqAcAtCjQsy1d8Dolh//f7lqA+8hdllyRMpaWm0n3gFR998K/U7dfbqME7t37iBL+64jc3/ehZKS7081L+BC4ESLw8ScmoAws3vGhdkqr+ViFL99fOXIw2YAYzx6gDNho/ghD/cT6Nevb06hKfmznmTvb+9ExbM8/IwTwNXogtdVfRzCTc1AJVT/a1BFOqvnzsY/QG4wovAmS1b0fOJZzj+nvuo17q1F4dIiF2NG7Pn3AugU2f4cBHs3+/FYU4ESjHbW8rhbvc7AbFyh98JBJTqbw2iUH/96o7HAdO9OH7rMWPp9tAjZLZo6Tp0wn2+cydrd+WZ/9i+He6+DWa97sWhYpj7Ue94ETzkdgON/E5C4rIbsyKbHEz1txaiUH/9WAmwC/Akjk++1Pr16fn40/SZ+kJSnHwAWWnp3/xH8+Zw/2S447dQr57rQ6UB/wLauA6cBDb4nYDEbb3fCQSQ6m8tRaH+JroByAKm4bgrz2rfgX5z3qPd977vMqzvstIruUNz8Xh47gU4qpPrw7UBnsPf20JBNMfvBCRub/qdQMCo/tZBFOpvohuAezH3PJxpOnQYAxd9wpGn9HMZNhAO6kAr6tYDpr0EfU9yfcjhwK9dBw25JzBDdBIuMcw3XfmG6m8dRKH+JrLbGAg8isOhp5bnj+LEGa+Q3rixq5CBEqOM9VUtWZlVH84fBV+shrVrXB52KOZb70aXQUMsF7M+en+/E5E6eQj4h99JBIjqbx1Fof4mqgGoh9lgopWrgG3HT6D3s1NIzcx0FTJwSsvK+CqvmjWr0zPg7PNg00b4LNvVYVOBAeibb0Xlz0of43ciUitvARMxs6tF9TcuUai/iWoA7gTGugrWdvwEej75d1LSkv929dq8vOr/QGoqnD4S1q2Fz1e7OmwrzMmnRwONGDAVaIrZJS2o22hHXQzzzX8iUOxzLkGi+hunZK+/ifgEj8PMcHRyrJbnj6L3s1MicfKlAGt21XACgjkJR54Jq1fDmi9dHX4A5nPb5SpgyMWAN4AXgELMo4ENgOT9ChQOe4DVmP3rr8IM++ub/zdUf+MUhfqbiHUAZmCeO7XWdOgwTp45i9SsLBfhAq+0rIy31n1V+zcUFsJl34FlS1ylMAP4tqtgIpJwqr9xikL99XoocxCOhp7qH9WJvlNnRObkA4iV1nF1yHr1YPJj0LadqxQuwkxKEZHwUf21EIX662UDkAL8EQejDKn169Nn2otkNG9hn1WIlMazPHSLlvDwE+DuF/VuV4FEJGFUfy1Fof562QCch3n0xFr3vzxM4xOdP3MZGGUllW8GVRrv3tRdu8FNt1pkdJDTgDNdBRORhFD9raUo118vG4BfuAjSeszYpFthqqJdC+bxftdjzNaThyiMWTwF8p0JcIaz8+Y2V4FEJCFUf2sh6vXXq0mA/YEPbINktmzFoE+WJ83a0ocqi8VYOOgU8peaSSPNTj+Dbg88xBEndAUgp2AvS3Nz4z/Azp1w/kjYscNFuoOABS4CiYinVH9rQfXXuxGAn7sI0u3ByUl78gFseGTy/04+gB3/eZsF/fqw6sbriRUUUBirfGiq1po2hV84G4py8pmKiOdUf2tB9debEYDOwBdYPnfabPgITpn1tpOEgqgoN4e5vbtSsqvyxzyz2neg8aS7yB063O5AZWUwcTwstv5CEMOshKcd1kSCqzOqvzVS/TW8GAGYiOXJl5KWxgl/uN9ROsG0+pabqjz5APZv2kjuVZfD1VfCBovPPCUFfnMn2C/ckQZcYRtERDyl+lsLqr+G6wYgBbjMNkj7iVfQqFdvB+kE064F89g8pZb7lLz7Dow6Gx56wCw0EY8ux8O3RsX33oNdgbYLFgkq1d9aUP39hutbAKdhuX5xSkYGQz79jPqdj3aUUrAcOvGkTjoeBbdOguEj6v7eTRvh3BFQbL1E+kggeccGRcJL9bcGqr8Hcz0CMNE2QLvxE5L25IPDJ57U7c3rzZDU1VfCxg11e2/7DjDKyaJgl7gIIiLOqf7WQPX3YC5HANIxe6c3jTdASmoqg5dm06DL8e6yCpCaJp7UybhL4O576/ae1Z/B6HNsj7wNaId2WxMJEtXfGqj+Hs7lCMAALE4+gGZnnJm0Jx/UPPGk1ho2hOtvqPv7jj8BBgyyPXoLzDOpIhIcqr81UP09nMsG4FzbAB0u/4GLPAKpThNPanL9z6Flq/jee6n1HCFw8FmLiFOqv9VQ/a2cy1sAnwB9431zZqvWDPtyAykZGQ5TCgariSeH6nI8vPQapKXH9/7iYhjSD3bXYp/rqi3F4rMWEedUf6ug+lu1OP8Wh2kL9LEJ0PrCcUl58oHlxJOK/vdMqcXHlpEBZ50DM6bZZNIbMxS1zSaIeKYD0AvodODfjwI6Aq2BekAjzO9+E8yXgAKgCNgPbMd8rrmYRUfWAWuBlQf+XYJH9bcaqr9Vc9UADMByNKHV6AsdpRIsRbk5fHHXJDfBRo+Ffqfax/nWKNsTMAUYDLxin4xYagGcjln/vS9wItC8jjGOOPACczGpSh6wDFgMzAXmAzl1PJa4p/pbBdXf6rlqAPpbJdGkCc2GDnOUSrA4nXhyw032cQD69YdGjSA/3yaKGgB/pAPDMFuEjsRc8L3c1bOiI4GhB17ls6BWAG8ceL2Png7xg+pvFVR/q+eqcPSzeXOLM89OyuGnwEw8OVRauotO1qroSJ2kYi76fwO+Bt4CbgZOJnEX/6r0wGxU8jawBXgC05xoxcjEUf2thOpvzVwUjxRMIYpb08FDHaQRLGWxGNk/vcZsBmGry/Ew/lL7OBUNGGwboQ/ebSctRkfgt5h78e8C/4cZ8g+qZsCVwJuY+QJ3YOYfiHdUfyuh+ls7LhqAYzCTieLWZNAQB2kES6AmnlTm1IG2EZoA7R1kIocbDEwD1gC3EM6fcwfgNswEwhfQ2hFeUf2thOpv7bhqAOKW3rgxDXv2cpBGcARy4smhjj0W6tWzjdLdRSryP2cDH2Am2F2Muzk6fkoFxgLzDrzO8jedpKP6ewjV39rzvQFo2K0HKal+38Z0K5ATTw6Vlm6Gtuwk76LhiTUEs4nLLJJ7bsUgYDZmsmDyjTv7Q/X3EKq/tefik7dK4oiu3RykEByBnXhSmW49bCOoAbBzHPAa5oJ4ms+5JFJ5w/MPoI3PuYSd6m8Fqr91438D0C2xo8gbHn+EkjyrVZiqVFZSQvb1P3Ez8aRrNxg/wT5OdY7qZBvBOkBEZWBm8X8KnOdzLn5JASYAq4Dr0VMD8VL9PUD1t+5cNACtbd6cyK0nc2e+Qva1VzOvd1dyZ7p/hH3Dow+Tv2ypfaCUFLPvdJrHNbFNdWu+1EpLF2lEzDDMYjr3Alk+5xIERwIPAIsAD262Jj3V3wNUf+vORQNgNQO1Xmur87fWirdvY+VPfgRAYc4Wlnx7DEsvvZjiHTucxA/FxJNDtW1nG6GuK85FWTpwO/AO0NXfVALpJGAB8CCQ6XMuYaL6i+pvvFw0AI1t3pzp5T2WClZe92OKcg9etTTnhenMP7GHk240FBNPDmX/sw/yM+lB0gVzcZuE/wv3BFkKcB3mKYjjfM4lLFR/Uf2Nl4tidKTNmzOae38N2TLjeXJemF7p/+eiGw3VxJOK6te3jdDARRpJ7rvAx8ApficSIv2AD4EL/E4kBFR/VX/j5vsIQKr9s5DVKt6+jVU3XFfjn4u3Gw38ilPVybI+Ab398MItBbgH+CfQ0OdcwuhIzFrnd6AVJ6uj+qv6GzffhyNT0r1d66SyoaeqxNONBn7FqerYd6BqACqXhbnw34ouXjZSMKsJ/h3z5IQ4pvp7QETrr4vitA+L2cxn7o15thDFlhnPs2zCJXG9t17rNnR76BFaXTC6yj9TlJvD3N5d3dx7GjMOfvdH+zh1UVQEfU6wiVCMJmwdqhXwOpbrs9tKb9yYI7p2p2H3HhxxQlcaHHMsmS1bktGiJZktWpKSmkp6EzN/rLSwkJLdeZTk5VG8Yzv71q9n37q17Fu7hj3ZK8lf8jGxvXv9/OsA/Bu4BPA9kYBR/VX9jZuLBiAfiyHOkXn7PRmGKt6+jXl9e1C0NdcqTutx36b7Xx8ho1mzw/6/5VdOZPO/nrWKD5iJJ6+/nbh7T+V27oRBJ9lEyMNyFnKSaYvZFS/hq6tkNG1K85Fn0WTQEJoOHkrDnr2cFfaykhL2ZK8kb9FCts+ZzfZ33qJk924nsetoHmZewE4/Dh5Qqr+2Ilx/XYx3lFi9eXeeJzNRV157tfXJB+be1K657x/WjYZ24klFe6z2owZ9G6uoI+bi3yVRB8xs1ZrWF46j1egLaTZ0mGdbuqakp9OoV28a9epNhyuvoqy4mJ3z55Lz4gy2TJ/q7FGuWhiMWTXxLGBzog4acKq/tiJcf118Rdhn82YnwzeH2DLjeXJenOEs3qH3pkI98aSiggLbCFaffRLpjFna1vOLf0pqKs1HnkWfKdMZ9uUGuj04meYjRiZ0P/eUjAyaDTudbg9OZtjazfSZMp0WZ51j7qN6rwdmu+GmiThYCKj+2oh4/XUxApCLGfqMS/Eut6N5RVtzWfXTa5zGLJfzwnTyFi6g+ciz3E08uf2exE48qcj+BNQIgFmMYxYe74uQkpFBu/ETOPqmW2hwXMIGGWqUWq8ercdeROuxF7Fn+aese+BPbHn+OUqLirw8bA9gJmYkIOrnoOpvvFR/nYwAWI3z7F+/3kEK38i+/icUbdvqNGZF+zdtZNPfn3ITbPRYOMnHx8O/3mQboXbTe5NXfeBVwGomT3VS0tLocMUPGbJ8NT0eeypQF/9DNezZi55PPMOQlV/Q7nvfB293mRsMTCM5tky2ofobL9VfJw2AVRJ7165xkIKRt3iR06EnTzVqDD//pb852P/sN7hII6TSgCmYLW490Wz4CAYs/JjuDz9G/U6dvTqMc1kdOtLz8adp8MobMHCwl4c6H3iMaD9qqfobD9VfIAAjAPscnoBH9uvPyTNnkdWho7OYnrnuBkjAKlzVWrfWNsJGF2mE1H3AGC8CZ7ZsRZ8p0zll1ts06tXbi0MkROO+J8JT/4Tf3w9NPbtlfznwG6+Ch4DqbzxUfwE3DYDVGbQne6WDFL7R/MyzGfTxcjpceVWiJiXVnZ8TTypa86VthKiOAIwDbvAicOsxYxn0yXJaj73Ii/AJVb98kZkLxsDMOXCOZzsf3waM8Cp4wKn+1pXq7/+4aACybd6cv+RjykqsnmQ5THrjxnSf/Cgnv/pG8LpRP1acqkwsBl+ts43i9gZiOHQBnsTxsHNq/fr0fPxp+kx9gcwWybHLclbFc7x5c7h/MtzxW3D/3Hka8C+gjevAIaD6WxeqvwfxvQGI7d3LnpUrHKRxuEB2o4naarImK1fAPutJpA423w6VLMzEM6sNWA4L2nhw1VUAABqDSURBVL4D/ea8ZybOJZGs9Er2U794PDz3AhzVyfXh2gDPYZqBKFH9rQvV34O4aAC+xnJlrrzFHzhIo3KB6kYTudVkTRYtsI2Qi/nso+Re4ESXAZsOHcbARZ9w5Cn9XIYNhKyqvmV16wHTXoK+VqugVWY48GvXQQNO9be2VH8P4+o5neU2b94+Z7ajNKoWiG7UrxWnKrNwvm2ET1ykESIDgWtdBmx5/ihOnjkrIVuy+iEtrZry0qQpPP1POONM14f9DeazihLV39pQ/T2MqwbA6m+z/Z23vF44BPC5Gw3KxBOA4mL46EPbKFFqAOph7vs7e7C97fgJ9J36AqlZce/jEnhpNRX6rPrw4N/MsKzDwwKPE61NqlR/a6L6WylXBW2uzZtLdu9m14J5jlKpWcK70aBMPCn34SIX958Wu0glJG7D4QY/bcdPoOeTf/d8K1a/1dgAAKSlwT2/h/MucHnoHsAtLgMGnOpvdVR/q+SqAZgHlNoESPQCEgntRoMy8aTcKy/aRogB79onEgrHAT93Fazl+aPo+fjTnm3BGiS1agDANAG//zOMPNvl4X+J2aMhClR/q6P6WyVXVWgnYPVA6ZbpUyktLHSUTu153o0GaeIJmM5zzizbKB8BCdsCzmf34mg4uenQYfT557Sk/+Zfrk5btaSlwx8fhN59XR0+C/iDq2ABp/pbFdXfarn8GmI1k6R4xw62vjbTVS514mk3GqSJJwBzZsNe6+Gnt1ykEgKDACc3qOsf1Ym+U2ck9T3/Q8VK67hbW716MPkxaNvOVQoXAUNdBQs41d/KqP5Wy2UD8LJtgE3PPOkij7g570aDNPGk3MsvuIgShQYgBfgjDhb8Sa1fnz7TXkza2f5VKa3bGIDRoiU8/AS4a5TudhUo4FR/D6X6WyOXDcB8YItNgG1vziJ/mb9ry6Q2akTT+/5Mw6enQJu4d9kM3sQTgFUrXTx+shV430E2QXcejh4n6/6Xh2l8ovNn3gOjqpXkSuPdr71rN7jpVouMDnIa4PxZwwBS/a1I9bdWXDYApZg9uq189Zf7HaRSd7sLi1i9Yyfvrd/Ip1u3sufUAfDqbBh3cXwBJ0wM1sQTgL89BPEW5W9MA9yuHRpMv3ARpPWYsUm3wl9FuxbM4/2ux7D5X88e9v8VxmLxB/7OBJdrBNzmKlCAqf5WpPpbK65nXZyF5b2o1MxMhqz8wvOZoWVlZeQVFZFbsJecggL2Vbce9n/fhUm3wJZaNtiDhsAjT0FGhpNcnfjycxh1DpRaTRYGc0/V6rGjEOgPWC+PltmyFYM+WZ40a/sfqiwWY+GgU8hfugSAZqefQbcHHuKIE7oCkFOwl6W5FpvV7dwJ54+EHU7mOw0CrJdfCzjVX1D9rQPX62avBSYCTeINUBaLUbxzJ61Gud1pNVZaRn5REVsKClibl0f29h1s2J3PrsJCSmr6UDp1hnGXwM4dsCq76i4uLQ0uvQx+96dgnXwA994Nn1ktGw5m84kbHWQTdPdjniW30vOJZzjy5ORb4rfchr89xOZnn/nff+9bt5ZNTz1O0bZtNB1yGjtjMbbt2xf/AerXN1u2vv2mfbLQFHjeRaAAU/1V/a0TL1Zh+DVwl1WE1FQavPIGjfueSP30dLLS0slKTyMrLZ30tFRSU1JIJYX0tFRKS8soLSujjDJiZWUUxmIUlcTYHyuhMBajoKiY/KKi6jvMulj9GTw/BRYugE0bIS0V2rWHQUPhoovhuOPdHMelZUth/FgX3eddJP9wamfgCyyb42bDR3DKrLedJBRERbk5zO3dlZJduyr9/7Pad6DxpLvIHTrc7kBlZTBxPNivVx8DjiH5d7BU/Q2aANdfLxqA9sA6wG72xcDB8NQ/XeQTbbEYXHIhrPjUNlIRcDSw2T6pQJsE3G4TICUtjQELP6ZRr95uMgqg5VdOrPS+/2GGj4BbJ0HHo+I/2Oer4cLzzLls5w4sP9sQUP0NkoDXXy+WI9sEvG4dZcE8mGn9ZIs8P8XFyQcwg+S/+KcAl9kGaT/xiqS++O9aMI/NU/5Ruz/87jsw6mx46AGId6GZLsfDt0bF996DXUHybxes+hskAa+/Xi3EPAQXjyo0bQoz50Dz5vYZRdH2bXDuGZC/20W0ATiYGBdwpwHv2QRIychgyKefUb/z0Y5SCpZDJ/7VScejzGjA8BF1f++mjXDuCLORip2RQPLemzFUf4MgBPXXqwXJ5+JireKdO+HuZL/l7JHSUvjlja5Ovvkk/8UfzAQqK+3GT0jaiz/Ahkcmx3fxB9iwHq6+0rw2bqjbe9t3gFFOFmW8xEWQgFP99VtI6q+Xw2GbcDCcyhefQ6vW0KOXfUZR8uhkmD7VVbTvY2YYJ7N04CmgfrwBUlJT6f2PqWQk6Temotwcloy/iNL9++0CrVtrlkMdMbJu7+vQEaZa35fuBDyA5eY5IaD666eQ1F8vtyR7C7NLlb17bnd1HyUaPlps7rm68V/gHVfBAmwA5lGxuDU740wadAngLGRHVt9yU5Wz/uukYUO4/oa6v+/4E2DAINujt8CsCZDsVH/9EqL66/WepL9yEqWoCH52jRmSkurl5sCN17mYMV3uZleBAu5c2wAdLv+BizwCqU4T/2pis0HLpfZfanHwWYeE6m+ihaz+et0AvAdMdxJpw3r48Q9gv8XCIskuPx+u+j7kWC0JXtErwEJXwQLuPJs3Z7ZqTasLRrvKJVDKYjGyf3qNi2VM7TdoGTYCGh9pm8U5tgFCQvU3kUJYf71uAMCsXGS9/yEASz42nWgsCkvR11FxMVx/NXy2ylXEfUAc47Sh1BboYxOg9YXjSAna6mOOWE38q8jFBi0ZGXCW9fW7N+ZWQBSo/iZCSOtvIhqADcCfnUV79x341c0uh1jCLxYzw04L3NzyO+AuYI3LgAE2AMtHYluNvtBRKsFSlJvDF3dNchNs9Fg3G7TYrwmQAgy2TyQUVH+9FuL6m4gGAOB3wGpn0V55EW76mTpRMIur/OwamDPLZdRs4E8uAwZcf5s3pzdpQrOhw1zlEihOJ/7dcJN9HIB+/aFRI9soUWkAQPXXOyGvv4lqAPZinrF21za+PhN+ek38q4slg/x8+OFE1ydfKfB/mKUno8Jqx54WZ56dlMP/gZn4d6i0dBcjCVZNX8io/nohCepvohoAMJMZ7nMa8a3ZcNl3YNtWp2FDYdtW83e33yTlUPdhHj2JihTgZJsATQcPdZRKcARq4l9lBlh/ge+DdyuhBpHqr0tJUn8T2QCA2YxjqdOIy5bAxWPMNpFR8dFiuGgUrFrpOvIHmM1wouQYLLZPBWgyaIijVIIjUBP/KnPqQNsITTAb50SJ6q8LSVR/E90AFAEXA3lOo369Gb5zITz7tJtvLEFVVmb+jt//rstHTcrtAb4HWC+2HjLH2Lw5vXFjGvZMrlXSAjnx71DHHgv16tlG6e4ilRBR/bWRhPU30Q0AmMkolwFuz5TCQvjdnXDtj5JzwYrt28wzpr+7E1ztrf2NMsxOaZ+7DhwCVg1Aw249SEn149fIO4Gc+HeotHRza8FO8m7aUDXV33gkaf31q3K9CtzpSeS355hdw55/Ljm60dJSM+v2/LNgrme3hm7H1YIh4WN1ETiiazdXeQRCYCf+VaZbD9sIUWwAQPW39pK8/vr51eVOzInoXt4umHQrTBwPn7t7+iXhli0199d+eSPs8qyrnop55jSq7BqAbokdRd7w+COU5LkdwS1XVlJC9vU/cVO4u3aD8RPs41TnqE62EawDhJjqb00iUH/9bABKgfG42rCiMos/gDHnws03mKUsw+LLz+Hmn8H4sV5vwvEBZugpCVr1uLW2eXMit/7NnfkK2ddezbzeXcmd+Yrz+BsefZj8ZQ7miKWkwK2TIM3LzUaBNm1tI7R0kUZIqf5WJUL1NwiPwTTB7F1ttRRrjdLTYfQ4uOxys6tYEGWvgEcmm8drSj3frfRTYASwzesDBdwSLM69/v+ZS5OB3q8pU7x9G/NO7ElRbs7//rfW475N978+QkazZtbxi3JzmNu7q5t7/2PGwe/+aB+nJh8thgkX20RYApzoKJuwUv0tF8H6G4QGAKAN8D5wXEKONmCQ2VVs2Aiztrif9u2FOW/CyzNg4fxE3TfLBoYDuYk4WMCtweI2wJDlq2lwXBeH6VRu6aUXk/PC4bcJ67VuQ7eHHrHeiGj5lRPZ/K9nrWIAZuLf6297e++/3Pqv4OzhNhE2Ah3dJBNqqr8Rrb9BaQAAOgNzSNRJCGZXsbPOMWuL9+vv/lnlqhQXw4eLzOSSObNgr5u9Omrpc8zJtzmRBw2w7UDcX6FP/3oHGU2bOkzncFtmPM+yCZdU+2dsRgN2LZjHohFD3RS/X90OEybax6mNrblwmtUjhjuA5o6yCbvOqP4mQqDqb5AaADCd6GzMbl2J1bAh9B8AA4eYfx57rLsTMhaD7JXwwXzTZX70oek8E28FZivUjX4cPKCKgbg/6DN2FJDWoIHDdA5W2dB/VeIZDSiLxVg46BQ3i/50OR5eei1xhTw/H/pblYoCoKGjbJKB6q+3Ald/g9YAgLkn9W/83qyjXj1T0Lr1MLONW7eBdh2gRQs44gjIzISGjczJVbDHFKOCPVBQAFu+hjVfwto1sG6t+af/+2j/FxgDJOFDulasGoCRuwtJzcx0mM7Bqhr6r05dRgPWT/4Lq268Pt70vpGSAn9/zptFf6pSUgK9rG6/lADJt4mDHdVfbwSy/gaxAQBogHk84gK/E0kSMzCrTO33O5EA2gdkxfvmM/fGPFsIqDZD/1WpzWhAKCf+VVRUBH2sJpQVA951b+Gl+utWYOtvUJcw24vplu4k2o+o2SrDbC5xCQE8+QLCalmvsmJvVu4s3r6NVT+7Nu73F+ZsYcm3x7D00osp3rGj0j8TihX/qlNQYBvBl3HgEFD9dSPw9TeoDQCY51QnYbpQB1UqcnZj1v3+JeZnKZWzagBKdnuzKM/Ka6+maKv9JOGcF6Yz/8Qeh60bEKoV/6qyJ982ghqAqqn+2glF/Q1yA1DuNWAgsMzvRELkI6AvZuhJqmd1c9DJN+hDbJnxPDkvuvvoDh0NCPxWv7VlPwLg+43hEFD9rbvQ1N8wNAAAq4B+wG+x/MaW5GLA74EhwFqfcwkLq6/ZxY6XCC3amsuqn17jNGa5nBems6BfH1b++Cp3W/3efk/iZv0fSrcAEkX1t3ZCV3/D0gCA2cryV5jZqat8ziWIVgCDgJsJ6P2mgLJqAPavd7vEafb1P6Fo21anMSvav2kjm/7+lJtgo8fCSae4iRWPrzfZRqj52Uopp/pbvVDW3zA1AOUWASdhJqhoCA8KMT+LkzA/G6kbq4vA3rVrXOVB3uJFTof+PdWoMfz8l/7mYP+z3+AijYhR/T1YqOtvGBsAMCfeJOB44B9Ed6bqv4EemJ9Fkc+5hJXVCMA+hw3Akf36c/LMWWR1CMHqtNfdAM1b+JvDOutR1sAsyBIyqr9G6OtvWBuAchuBy4DTgQU+55JIc4EBmBm6X/qcS9hZXcH3ZK90lQcAzc88m0EfL6fDlVeZe+xB5OfEv4rWWJ/6GgGwo/ob8vob9gag3HuY+y9nAP/xORcv/Qc4FxiK2UpS7GXbvDl/yceUlbidF5XeuDHdJz/Kya++EbzRgJQU+M2d/k38KxeLwVfrbKOEaI/aQFP9DalkaQDKvYPZYnEw8BLJMWM1BkzHzMIdAczyN52kY9UAxPbuZc/KFa5yOUggRwNGj03scr9VWbnCxXruS12kIv+j+hsyydYAlJsPjAWOwsxcDcUjGYf4EnNv6TjMghIf+ptO0voay/W58xZ792UgUKMBfq34V5lF1iPOuZjPXtxT/Q2JZG0Ayn2NeXb1OGAk8CjB/qXfDjyOGWLqgpldus7PhCJiuc2bt8+Z7SqPKgViNMCvFf8qs3C+bYRPXKQh1VL9DbiAjCsmVCpwKmat67OBXvjXCJUBHwNvAK9jHiOJ+ZRLlN2LeX43LumNGzN841ZPdwWsaPuc2ay4+ofs35jAOWyJ3uq3OsXFcGpf21sA9wK3OMpIak/1N0Ci2AAc6kjMPauhmIksPYGa91GNzw5gcYXXB2gxkiA4H5hpE+CU2e/QbNjpjtKpWcnu3ay+5RdsfOpxN0v6VsePrX6rs2AeXDHBNso44EUH2Ygd1V8fqQGoXCugO9AVOObAf7cC2hz4Z4MKf7YB5ueYh9kAYteBf8/FPGJW8fVVYtKXOmoKbMPim0jHH/2Ybg9OdpdRLSVkNMCPrX6r88sb4RWra3cM83tc+TaJ4jfV3wRRAyBifIr59hGXjGbNGLZ2M6n16jlMqXY8HQ1o2BBefzs49/737YUh/WCv1fD/IswwtEikJfskQJHasprJV7xjB1tfs7qLEDdPnxQI0sQ/gDmzbS/+AG+5SEUk7NQAiBgv2wbY9MyTLvKIm/MnBYKy4l9FL7/gIooaABHUAIiUmw9ssQmw7c1Z5C/zd22Z1EaNaHrfn2n49BRo0zb+QEFZ8a+iVStdPP63FXjfQTYioacGQMQoxfJJAICv/nK/g1TqbndhEat37OS99Rv5dOtW9pw6AF6dDeMuji/ghInBmfVf7m8PuZjjMI3kWKFOxJomAYp84yws5wKkZmYyZOUXnq/aV1ZWRl5REbkFe8kpKGBfdfsR/PddmHQLbKnlAMegIfDIU5CR4SRXJ778HEadA6WltpGGYjZzEYm8NL8TEAmQtcBEoEm8AcpiMYp37qTVqDHusgJipWXkFxWxpaCAtXl5ZG/fwYbd+ewqLKSkpotip84w7hLYuQNWZVf9LTotDS69DH73p2Bd/AHuvRs+s9q2AczmPzc6yEYkKWgEQORgvwbusoqQmkqDV96gcd8TqZ+eTlZaOlnpaWSlpZOelkpqSgqppJCelkppaRmlZWWUUUasrIzCWIyikhj7YyUUxmIUFBWTX1RU/Tf8ulj9GTw/BRYugE0bIS0V2rWHQUPhoovhuOPdHMelZUth/FgX3/7vAm5zkJFIUlADIHKw9pj1v+1mvw0cDE/900U+0RaLwSUXwopPbSMVAUcDm+2TEkkOmgQocrBNmHXB7SyYBzOtnyyU56e4uPgDzEAXf5GDaARA5HBDcPGoWNOmMHMONG9un1EUbd8G554B+btdRBuAWftdRA7QCIDI4eYC71pH2bkT7tYt57iUlpo1/91c/Oeji7/IYfQUgEjlNgGXWUf54nNo1Rp69LLPKEoenQzTp7qK9n3MEx4iUoFuAYhUbS5mq1I7mZkwZYaagNr6aDFMHG8mANr7LzDMRSCRZKMGQKRqw3BxKwCg41Ew7WUzL0CqlpsDF4+BHKtVmSsaCCx0FUwkmWgOgEjV3gOmO4m0YT38+Aewf5+TcEkpPx+u+r7Li/8r6OIvUiWNAIhUryOwCmjgJNrwEfDQo8HaZCcIiovhR5ebxyfd2Af0BNa4CiiSbDQJUKR6u4H6wGlOoq1bC5s2wekjIVUDcIC513/DtfDef1xGnYSDzZ1EkpkaAJGafQB8G3DzQP9n2aYRGHmmmoDCQrjxOpgzy2XUbMyeDk5mEYokKzUAIjUrBj4ELsfVvJnPV8Pq1XDGmZAe0dsB+fnwf1fA+++5jFqKadY09C9SAzUAIrWzEaiH2U7WjTVfwvy5cPoZ0OAIZ2FDYdtWuGICLFviOvK9wFOug4okI00CFKm9TGAR0Mdp1Lbt4OEnoGs3p2ED66PFZtjf3Wz/ch9gGrRi14FFkpFGAERqLwa8g1khMMtZ1D358PIMMwrQuy+kJGlfXlYG/3gGbvqpqyV+K9oDnANsdR1YJFmpARCpm+3ASuA7uBxBi8Vg7nuwaiUMHAL16zsLHQjbt8H1P4Ypz5p1/t0qA76Hiw2cRCJEDYBI3X2GufgPdx557RqYMQ0aHwnde4Z/NKC0FF59CX78Q1j9mVdHuR34m1fBRZJVyKuLiG9SgZeAUZ4dod+p8Js7ocvxnh3CU8uWwp2/gRWfenmUqcB3MaMAIlIHagBE4tcAeBMXGwZVJTUVzh8N1/zU7CcQBl9+Do89DP9+1Yvh/oo+AE7HrPonInWkBkDEThPMhkFunww4VHo6jB4Hl10Ox5/g6aHilr0CHpkMb832+sIP8CkwAtjm9YFEkpUaABF7bTAT0I5LyNEGDIJLL4NhIyAjIyGHrNK+vTDnTfMUw8L5Zqa/97Ix8y9yE3EwkWSlBkDEjc7AHBLVBICZKHjWOfCtUdCvf+I2GCouhg8XwSsvmiV89+5NzHGNzzEX/82JPKhIMlIDIOJOG2A20DvhR27YEPoPMI8Q9h8Axx7rriGIxSB7JXww33zL/+hD880/8VZgnvXf6MfBRZKNGgARt5oA/8bLiYG1Ua+eeXqgWw84qhO0bgPtOkCLFnDEEZCZCQ0bmYt7wR6zLn/BHigogC1fm2WK164xmxatXQP7fZ9n919gDLDT70RERESq0gB4FfNoml72r+m4XHlRRETEQ6nAHZjd6fy+gIb1VYrZ3CfieyaLiEgYfQszbO33xTRsrzzgojh+3iIiIoHRFViK/xfVsLw+BI6O6yctIiISMJnAPZitav2+wAb1VQLch+73i4hIEuqPWcjG74tt0F7LD/xsREREklZ9zATBvfh/4fX7tf/AzyLT6icqIiISIh2AZ4nukwIzgWOtf4oiIiIhNQyYj/8X5ES93gdOdfKTExERSQIjgHfw/wLt1esdzFK+IiIiUolBwIskxxMDJcDzwClOf0IiIiJJrC1wK7AG/y/kdX19AdyG2SVRRERE4pAKnAE8gtkG1++Le1WvbcBjwBC00ZiIiIhTqcBAzII5S4AY/l3wSzGr9t11IKc0D//eIuKYunSRcDsSs/XwUMzcgZ5AM4+OtQNYXOH1AZDj0bFExGNqAESSTyugO2YPgmMO/HcroM2Bfzao8GcbYOpAHrAb2HXg33Mxcw8qvr5KTPoiIiIiIiIiIiIiIiIiIiIiIiIiIiIiIiIiIiIiIiIiIiIiIiIiIiIiIiIiIiIiIiIiIiIiIiIiIiIiIiIiIiIiIv74fxcVJfl07uTCAAAAAElFTkSuQmCC;" vertex="1" parent="1">
          <mxGeometry x="40" y="70" width="110" height="110" as="geometry" />
        </mxCell>
        <mxCell id="Dj6f-7nEe7_ozWwD5Nd7-4" value="&lt;b style=&quot;background-color: initial; font-size: 11px;&quot;&gt;&lt;font style=&quot;font-size: 11px;&quot;&gt;All &lt;u&gt;co-changes&lt;/u&gt; from the versioning system&lt;/font&gt;&lt;/b&gt;" style="text;html=1;align=center;verticalAlign=middle;whiteSpace=wrap;rounded=0;fontSize=11;" vertex="1" parent="1">
          <mxGeometry x="10" y="20" width="165" height="50" as="geometry" />
        </mxCell>
        <mxCell id="Dj6f-7nEe7_ozWwD5Nd7-5" value="" style="endArrow=classic;html=1;rounded=0;exitX=1;exitY=0.75;exitDx=0;exitDy=0;strokeWidth=2;entryX=0.167;entryY=1.027;entryDx=0;entryDy=0;entryPerimeter=0;" edge="1" parent="1" source="Dj6f-7nEe7_ozWwD5Nd7-3" target="Dj6f-7nEe7_ozWwD5Nd7-7">
          <mxGeometry width="50" height="50" relative="1" as="geometry">
            <mxPoint x="285" y="230" as="sourcePoint" />
            <mxPoint x="235" y="70" as="targetPoint" />
            <Array as="points">
              <mxPoint x="195" y="153" />
              <mxPoint x="195" y="70" />
            </Array>
          </mxGeometry>
        </mxCell>
        <mxCell id="Dj6f-7nEe7_ozWwD5Nd7-6" value="" style="shape=image;verticalLabelPosition=bottom;labelBackgroundColor=default;verticalAlign=top;aspect=fixed;imageAspect=0;image=data:image/png,iVBORw0KGgoAAAANSUhEUgAAAgAAAAIACAYAAAD0eNT6AAAABHNCSVQICAgIfAhkiAAAAAlwSFlzAAAOxAAADsQBlSsOGwAAABl0RVh0U29mdHdhcmUAd3d3Lmlua3NjYXBlLm9yZ5vuPBoAACAASURBVHic7N15fFTV+fjxTwIJ+76oCAooqwui4ILivlXRWhfUuuO+fNVWrVZ/tVpb616rrVXc6i5irRVkU1llExAIYScQCCSB7MlkMpnt/v44pFK2TOace+7c5Hm/XvPq9yvMOTfD5J7nnuV5QAghhBBCCCGEEEIIIYQQQgghhBBCCCGEEEIIIYQQQgghhBBCCCGEEEIIIYQQQgghhBBCCCGEEEIIIYQQQgghhBBCCCGEEEIIIYQQQgghhBC7S/P6AoTQ0BkYDgwF+gB9gZ5AB6Aj0Grn36sEaoAiYDuwEVgNrAIWAaVWr1oIaIP63h7BT9/dXkAX1Pe3A9Bi598tB+Ko728RsAP1HV4DrER9jystXrsQQljXCrgA+DuwFnAMvOJANvCPnW23QAjz2gOXAW8Ay4EIZr6/DhAFlgGvAqOBTpZ+JiGEcFU6cCbwHlCFuZvmvl6VwIfAGcgMmdDTGbgbmAGEcf+7W/cKA9OAO4Hurv+UQghhWCvUDWw99m6cu7/WAf/HT0sJQtQnDTgfGA+E8O67W/eqBT4DzkEF00IIkbJaAg+h1jm9vnnWvQqBB3demxB7kwncAKzA++/rvl5rdl5jhkufgRBCJO1qIBfvb5T7em0ELnXrhxe+lA7cBOTh/fezId/jW4BmLnweQgjRIIcAk/H+xpjoazJwsCufhPCTc1Cb77z+Pib7WgacbvpDEUKIRF2P2njn9c2woa9S4JcufB4i9XUDPsb776Cp16c7fyYhhLCiBfBXvL/56b7eQK3/iqbhKlJrf4qpVyFwicHPSQgh9qo7sBDvb3qmXnOQ41aNXUvgLbz/rrn9ehvZ7CqEcElfzCXxSaVXDnCYwc9JpI5DaFwBa32vpUBvEx+cEELUGYiaavT6BufWK2/nzygajxFAMd5/t2y/dgAjDXx+QgjBYcBWvL+xuf3aijw9NRaXAEG8/0559Qohx16FEJq6A5vw/oZm67UW2RPgd2NQOfa9/i55/QoD12h+lkKIJioTmIn3NzLbr3nI6QC/uhaI4f13KFVeMSQIEEIk4R28v4F59XrNwOcn7Locs5X6GssrDIzS+FxFCmrK1c6kHrf7rkYlTHHVgd1acuZJ3TnhmM4MPKw9fQ9pQ5eOmbRt05xo1KGkPExJWS3bi2tZkl3GvCXFzF9aQklZ2O1LA/Xk5PpnIIw4GfgOiyWhu3dpwanHd+OI/u0Z2Lc9/fu0pVOHTDq2z6Btm+Y0b5ZOeWWYUG2cvIIgeQVBVq2vZNmqcuYvLaFgR8jWpQLUAOehjr2KRqApBQDtUak7zwVOBAYDzQ21HUPVlJ+z8/UNUGaobb86FFX3vIMbjXfplMk1Pz+U635xKMOOanj5c8eBuUuKefuzTYyftJXqYNSFqwTU9+AoYJtbHQgjeqOO+rm+d2P40Z25+uJenHPKARzRrwNpGnfhlesrmTKrkM++zuOH5aXmLnLfioBhwBYbnQl3NfYAoDPqKfRyVHRvqwpWBLXu/W/gX6gZg6ZmEvAz0432PLAVD946gFuv6kvrVmZqmVQGIrzzWS5P/W0VpeWuzApMBi5wo2FhRGvU4H+kWx20b5vBbVf3ZcwVvRl0eHtX+lifG+C1Dzfw7mcbqQjEXOljp8WoI4JWpx+EeY0xAEhDTVPdDFyExem8fQgD/wHeRE0vxr29HCuuQNUgNyajeTp3XnsYf3rwSNq2NjVx87/KKsI8+8Za/vL2OsIR4/9MlwFfmG5UGPEGcJsbDXfumMl9N/bj/244nE4d7OwJrayq5em/TuQf4+JUVrvWzduoioLCxxpTAJCJetp/EBcjeU1rgT+j1oQjHl+LW1oB64Cephoc0Lcd4149kSGDOppqcr8Wryjj8rvmsXlb0GSzG1H7TeSpKbVcipqlMyotDcZc0YdnHj6Krp3sP4NUFs1l+/Z8nhoLH30NcceVbi5BPdwIn2oM9aDTgRuBL1GV5VL5/HVX1C/NtUA1ao3cnV9N79yLmgEw4rLzezLp3ZEc0qO1qSbr1eOAVlz3i94sXVXCxi3GgoBOqM2k8001KLR1B6aglgCMOfzQtkx46xTuvu5wWrdyZ7aqPo4To1ksn/NGwGnHwbzlUF5lvJszgH+ikiUJH/J7AHAOKnq/HbXJzy86ARcDP0edJMj19GrMaQuMR52w0HbHNYfx7nPDadnC/te0datmXD3qIHJy1rFig7Fmjwb+jkowI7z3OmpDsDFXjurFxLdP4fBD25pstsHS0poTqlJf3IO7wy9/BvlFsGqj0W7aouokGJ9BEXb4NQDohqrM9RxwoMfXouNA1OzFIGAW/o+kb0dtuNR2xzWH8Y+njiU93btVqrT0dE4ZvJqN22D1JiNNtkXVQlhkpDWh4yzgeQwtg6anp/HSY8fwwqNDaJHp/W01vVkLQoGNOI6KNTMz4MKR0KYVzF5idNrxSNSG583mmhS2+HEPwFXAK6ggoDHZDtyBWsrwo3TUbEY/3YYuO78n4149kWbNvP16Ok6cki3/IhqDmx6HKfOMNLsWFfA1tqUfP2kGrED9O2jLzEjnny8M5+qLDjHRnDGVO74nXFOwx3+fOAdu/wOEzc1DLUMdDXT16IFHegDHA8NR97a+wAFAR1RAD2pfTzHqHr4JWI36TOahAv6U5acAoCXwN9Tu/sbsHeBu/LdZ7HzUcTctA/q2Y/FXZ7u2078h4vFaSvO+AqAiAKffDFvNHOg8HTXjI7xxI/CuiYYyM9L59xsjuOD0g0w0Z1R1+QpqKtbs9c++WQA3Pg5hc1uRb0GdDGgMTkDNZF6AyhejYy3wFerBbj4pFvine30BCToEdcNs7IM/qCIk8/FfRTntXOGZGemMe/XElBj8AZz4T49IHdrCa4+BoRUJOT7lnQzgdyYaSkuDN/88LCUHf4Dmzfe9LeqcE+HtJ6CZuRHgUcwlVvNCO+BXqKyuC1CnyXQHf4ABwEPAXNQM6UOo2YOU4IcAYATwI2oapqk4BvgB/9TjboXa0Kjl1zf3t3bULxFOvPZ//v+TjoY7Rxtp+iKkUJBXbkJN42p76bFjuP7SQ0005Yr05q32++fnj4An7jDWXV/UMWy/6QD8CcgDXsLQstA+9EftW9sM/BG1GdxTqR4AXAJ8i8rP39R0Q6UU9kM97nNREXTSDj6wFf/vHjd/9xouFgns8d9+da2aDdDUAThTuxXRUGnAfSYaunJUL+4fo73dxVXpzfYfAADccQVcepaxLh/BP8vK6cBdwAbU7IUrKcv3oT3wGCpfyh14uBk/lQOAMcDnqKfLpqoF8CmpX4rzHN0GHrp1AG1SZOq/TiyyZ32nDm3VTdOAi4y0IhribAxM6x5+aFvGPn2cgctxV3qzxBIQvfQA9DWTtmswKjdAqhsIzEYdye3q4XV0Bf6BWt4+3IsLSNUA4FpU6lzvz9N4LwN4n9QOArQCgC6dMrn1KiOzskZF9xIAANx2GXTUmu8A4FTtFkRD/Z9uA2lp8N6Lx9O+ra2yIhrSErt9tmkFLz9kbH+LKymVDboWVcvgZK8vZBcno04NWL/Hp2IAcDlqh24qXptX0lGfSSrW4+6OWttK2i8vPsRYYR9jHIdoqHivf9S+DVx0mnYPg1HFqoQdXVEnVbSMuaIPI471x4pkWlozEp2RP+louM7M3eUSUvOIdjPgr8AHGEpUZlgb4EPUPgRrN8PUmnNVkdCHWLwuH9XjzkAV2Em1etzH6DZw/aW9DVyGWdFIBfHdNgHu6qJT4YOJWl2ko84WT9VqRSTqMjSrgXbumMkzDx9l6HJsSfzU2SNj4IvvoEovHVkL1L6lN7RaMasl8BH+2E/1K1QdlWtRheRclUoBQG9UtTTXK2c0tB53XRWvg7q35Pghnblsl+cIy/W4W6HSbqZSPe6hOm8+qHtLjjvS882we4iEtu/3z08ZCp3aQZlefvVBSABgy1W6Ddx/Uz9PCvsky3Ealpena0e4+0p4Rj9DwiWkTgDQAlWWXXv2x6IrUEmGLsHlICBVptlbAxNwsZBP+7YZPHjrAFZNO48fvjyLX43pz5H96x/863NEv/Y8cEt/Fv77LNZN/xn3j+lHh7auzuB0QwUBLd3spAG0tkKffkJ37X8DN9RW7z++ymgOpxyr3U1qHXtovDqieaS2fdsM7rnek31ayYs3PDHfrZepJS5NZ5EaZ92boTZR+2nwr/Mz1Gy4q4NJqgQAf8GlEr6dO2by5P1HkDvnAp7/7dEMOty9mkH9erflL//vGLbMvZCHx6Sb+EXal2GorIipoJfOm08cmnrL4LFIBdFweb1/b7D+vsXe2i2IRJyB5o30tqv7/ncm0C/i8YYvT7ZvA7+8QLvrDFQQ4LXnUU/RfnUFKm+Aa1IhALgUF3aOpqXBzaP7sPa783n83sFWf3nbt2vBo7cfyOJP1MYal+rZ3IyB5DsGaCVAH3hY6hVxDAVyE/p7A3trd3WAdgsiEdrHVG+4LHUT/uxLPJbc/qTrLjTSvddJzK5Hraf73a+BX7rVuNcBQHdgrOlGDz+0Ld+PP5O3nhnm2ZpdZqsedGqnzthOeAV693Clmzfw9hwraGaz8rps6u6cWJhQVWI1Uwf01u7OtSUv8T+0zmwMP7ozR/a3mSfGjHg0ud18/Q+FoQO1u/cyADgMeNXD/k0bi4Eia3vjdQDwIoaz/F05qhdLJpzt+VGdjBY/jcvHHwkz3oQrtJ9D9nAA3n/RW+u8uWP71DpPXVO1/r8lVOtjYIkntaKfxqk1Kh970q6+WGuVyzPR6N7zWCTCwDHXIWhmB01SOuqoX+pNLSavDarQkvHx2ssA4CwMJj5IT0/jL//vGD595cSUSNLRLKMd6c1+2qfXtjW89qjKvW14SeAqNJ9wNGllamzbJnUOosRjIWqq1if89zP0Lz3Fkh80Skej+TmfO/JAQ5diVyycfABwtn7llWZ4s8n1NuAkD/p120hcKIbn1d23GerJ1chQmKr1uJtndtqjHvfdV8KhPYzX434Z7+pxx3XeHIs5mqezzakuy8KJJ14fNUP/ulMn+mm8hui8uXuXFgx2ceOwm6LhsqTfO6gvHNAFtpdoXcIgVFEzWzqiCvsY175tBheecRBnjujOkEEd6N2zDR3bZxCNOpSUh8nfXsOCpSXMXVLC1zMKqA6au7nv4k/AeKD+HcoJ8uoGdB2GosNUrsfdLLMD7BYAAIwaCf98ymg97mNQNc69qMddhcYyTkl5mJ4Hel/uIRIqorZ6c8Peo/9vZy2LVBN2mM6bTz2+W0oeU61PLFKV9CbAOscOhMlztZqwPQPwIIaza/bv046H7xjAVaP2nq00ozn0PLAVPQ9sxfFDOnPvjf2oDET4dEIez/xjNZu26mVV2k031KbAx0016MUSgNTjplHV496zZF4DlJTtO9ueLU48QqBkUYPfl7f/XEGJqNBuQdRHawH/iP7+fPqPhIq02zhGa+cEAH20W0hcR+BeU421atmMFx4dwspp5zHmij4NSlXevm0Gt13dlxWTR/LYLdDC7AG0ezC4v8GLAEDqce/USOpxJ7/QCGwv9j4AqCpZRCxa3eD3bdUPALQ+O5EQvWOqff0ZAIRr8rXbMFAh0OYplzEY2nTYr3dbfvjyLB64pT/NmyU//ZORHuT+a2DiK9DL3IHfTqif1QjbAYDU495NI6jHXajz5iXZya9TmlBTsZZwcFtS79285+pOQ23VbkHUR2sHX78+/juo4ThRIqEd2u0cqj+xaivPRRpwl4mGhh7Rkbmfn2nk2GcsovKEHzMApr0OA8w9q95qqiHbAYDU494Ln9fjXqfz5nlL9l5xz4ba6s1Ul2cl/f75y7UvIbGEA0KH1mFNP+X+rxMOFjS4DsDedNdfTbeVo+R4NPd6gHryn/reqXTrbObfPBr+aQdl147w+YvG8sEMBk4w0ZDtAEDqce+Fz+txr9F58/ylJTiJFywzJlxTQFXx4qTfH4nC98u0L0MCAPdp5alol0LHVBMVCmwy0k47/TwXttKvjtZtoFXLZnzx+ghjgz+wxyzMgV3Uvq9MM1+pX5hoxGYAIPW498PH9bi1ZgBKysLM+9HuLEBt9WYqd8xD5wTjopUQ0N/g+6N2C6I+WkWzUilPRSJi0Woj0/8ArfTHQlsfnva48tSvjzSa7TFaW0I8tuf+pqP7wUM3GuniYhON2AwApB53PR4ZA+20nleAn+px2/IjmrkA3h5n5oklETUVa6kq/gHNS+Zf32pfikNqBAA9UEHjn4DPgMVAHup4p7PzVbPzvy1GnUP+A+o75ocMOVrzS+kuFfJwS6hqPZo/8n/F9X5FwE4AcDCay8r9+7TjvpvM7icL7aea6F2joYf+I9pADGyytBkASD3uetTV4zbAZgWsYmCFTgOfTdpKVbUriTP+y4lHqCpeoLXmX6e0EsZ/o93MWgwm9GigE1CV0lYC21D10h9FVR87DujJ/6Ypbrnzvx0HXI46xvsvoAC1BPQcMAL7G1ATUaXz5mCNu99Lk1QdC3PBdET/RzeT5WT/tNfCH75jgNZu/9058Si1wX0HAJkZcL9+Dtw04BTdRmwFAFKPO0E+rcc9XefN1cEob41zbzk8EiqivOAbaqvzjLT3/gSo0T+9OM3ApTREO1R1tFXAAlTSFO0Nuag8+w8Bc1HBwEOkRi34OloBQMDlwNSkYOXahOtYJKJM/5CqjWOuQ3Xe3L5tBleNMptBNhTYiBML7/fvjD4XWuo/y2pPh9sKAKQed4J8Wo9bKwAA+OPfVlNavv9fmoZyYmECpUuo2D4zqXP+e1MRgLH/MtLUZCOt1K8Dano/D3gJd7Oz9UfNBmwG/ohmpUhDtAKArYU1pq7DVfFocOf0vzk79E/o2kh0pfV9vvCMgxqU5Kc+jhOlpnJtvX+vTSs4c7h2d9q/y7YCAKnH3QA+rMf9LZq/7KXlYZ7460ojF+PEwgTLV1KaPynh0r6JemosFOnfGKuAmdqt7F866mz0BtT0vs16tu2Bx1AbRO/A26JHWgFAXoHRVK6uqS7PMnL0b1d5Whk+ADtLXFqP72eOMJurKFi+MuH7/mnDtLvTzrRoKwCQetwN4MN63CHUBjItr3+0kUVZpUm/PxapoLp0OaXbviZYsapBhX0SsXAFfDDRSFP/wt06AAOB2cDfsXcWe2+6Av8AZgFerd9pJVtauS71kzVGQtuNLW/tal3DSmPsTa7+VdTrYJ03Dxlkcud/GTWVGxL++4P0EyX7YhOg1ONOgg/rcb+v20AkGueKu+dTUpbgUoDjEA2XU1O5lvKCbyjLn0ZN1Tqj66B1yqrg3ucgbmaDtfZntR/Xonbrn+xiHw11MrAMg+W/G6D++dj9WL7aq32aiVGbW5PPZ7E/q/Qnz2wc79FK1dinl/6GK1BT/1UlC2nI6aLD9Yc17fPwNgIAqcedBB/W454LaC9Cbt4W5Or75hKNhnCcODhxnFiYWKSaaLiM2uotBMuzqSyaR+nWCZQXfEN1WRbRsHs36nAUbnocNppJ3LsB9URsWjPgr8AHaGa/c0kb4EPUPgSbSwJaAcCCZaWeJKpKVKB0KfGY+WUKx1EzXppyDFxKfbQOThtJKOc4VBUv/G/q30QZ2ASoffE2zmlKPe4k+LAet4M6WjZWt6Fvvi/mhvsm8NKDRqslJsVx4IEXYK5+1r86L6CbhGBPLYGPsJv/IVm/Qh0pvBYwu+tz77QyVeZvr2HVhkqO6Jd696BQVU6DS1gnau1mKNaPqVcZuJT6aP0uxWKO9jAaKF1CONjw4ksZ+mGwdgs2bq9SjztJx+rvA7Bdj/ufwL4PwDbAx5Phjj8aOYuctHAU7n0WPp1qrMkdmJ/+b4E6x++Hwb/OFcCX2EkVuw7NQWLKLP3dcKZFa0uoLtMvRrEvU+dpNxFBLfu4Ta8cuc7JI8chULok6dTLJfpnJLSnfmwEAFKPO0k+q8cN6pf+RVONfTkDxvxeHb2zrawKRj9kdPAH+DMqq54pzYBPMZAK1QM/Qy0JuL0cUAVojZTjJprfYKcjFqmmsmiu8V3/u5o0R7uJFbi70bWO1imP/O3J/To68QiVxfO0Thlt08/YrL1D1UYAIPW4k+Szetx1xqLWuY2YMg9Ovxnmufews4eFK+D8u4xO+4NaD33NaItqycVm1kfTrkDlDXCbVp6KRVmlrM/1IArdi3i0hsods/eaZ96UNbnwo9bCCQAL9a8kIVqFRBYua/ipo2htGeUF3yY17b+rbP0dEtpTUzYCAKnHnSQf1ePeVQgDVR93tXUH/OJX8MTr7s4GVATgwZfgovuMbfjb1SOYXfO+HrWe7ne/Bn7pch/aiape+9BYTJu0eLRmZ1Ird4MRQ0ddzc6d7ZtWMbLvFycePzhOlOqy5ZQXTjfybzBzkXYT2uc0bAQAUo87ST6qx727Kaiz7sbEHfj7ODjuanjhfag0k9gPULn9X/4ITroe3puAG7u+vwI+N9jeYcCrBtvz2ljAbDWW/zUHzbz0747PpTJgI7X93sWiASuDf3kVfKKfo7IW+E7/ahKidcrj6xkF9f67OvEoNZXrKNs2mZpK7S0lgKokOlu/FJhW8AP28gAkTepxa/Eyd/L9gN4Zhr2oCMCz76pA4NcvwoxFyW0UjETVssIDL8KQ0fCnt4xk+NubcuBOg+2lo476+XNtbO/aAG/j3v2oCvhep4GKqgh/fddsqt1ERWtLqDD01Fmft/4NVfqnCueguTmvAbJ13lwdjPLphL3v8YjWlhAoXUpp/tdUly3X3tS9q0+mQLX+biDtBBA29teH0ThoUbv2MjIzPD4L1gCxaDVl2yZjoiRnJAo99JIoV6OZKEPTKNTTr6vfs07t4JRjYXBfGNhbZVLs1B4ydsaO0RjkF6nUppsLYEEWzFmqonALrgLGGWzvDlR2vcboNuBNl9q+CXhHp4EO7TLImXkBXTrZi6tDVRupLlvm6oa/OsXlcMK1RmbX7gDe0L+ihHRHrYUnfY/p07M1KyadQkazGmKRKqLhEiKhHa7tswhH4KQbYEuBdlMHobkPwEYAUIvGk2hk/eVGSzW6rbpsGTWVZp4UasPQ8zy9JlBnxL30AvCAx9fglb9hdj9ER9RmQv3Fod20b5vBhWccxJkjujNkUAd692xDx/YZRKMOJeVh8rfXsGBpCXOXlPD1jAKqg66czyxCFRRyI6tTe1T5Yq0Zyduu7ssbfzrOzBXthxOPECj5cb9lZU27/3n4aJJ2MyGgB+DOfNreZaFZGe+xW4yU6E3Ic/+E59/TbmYFKsmeFhsjazEaKQsrsi4xk63JAicWpnTb18ZS0QaC0EevMFAAu+mA9yYD+AbNehA+NA84ExWEmfJHVJEdY/r3acfDdwzgqlGHJFwVrTIQ4dMJeTzzj9Vs2mp8GuUp4HHTje70EZobDtPT05g97nROPs697TXhmkICJUtcyfC3L/Oz4JL7jaS6Hg+M1r+iBnkJzQ2xLTJh4itGjl7vV/YGOO8uNQug6TngYd1GbMytSz3uJPmkHnd9IsDFwFKvL8SiDcAvMDv4dwTuNdVYq5bNeOHRIaycdh5jrujToJKo7dtmcNvVfVkxeSSP3aJungbdg3v7G7Sfu+JxhxseWESVC/elWLSaquIFVO6YY3Xwr66Be54xVufibSOtNMzHug3UhlXOEQPZD/epsASuedTI4A+GNhWnfAAg9bi12KjHnYhK4ELsFAfx2jZU+Wv9c6D/awyGZnP69W7LD1+exQO39NdaXstID3L/NerJqZe5A6edUD+rG75BMykQQM6WAHf9Tn8Ld514rJbqsizK86e6UtVvfxwHfvWCkfVoUNPS04y01DCLMZB2OG+7mgUpNL51WbV55W/UXiQDVgH6hwjxQQAg9bi1pFIpswLUwNiYg4AtqKWOXMPtpgF3mWho6BEdmfv5mUbKa9cVPzlmAEx7HQYcqt1knVuNtfS/HOBpEw19+OVmXnhT6wQasWiAQOlSyrZ9TU3lWisb/Xb32mfwb+0sCf/1PCZ2PyfnXRONrN0MF90Ly7UP2P0kewOcd6eR6op13jLVkI0AQOpxJ8kn9bgbIgdVGtZiXj9rNgCn4k4FtOPRrKkB6sl/6nun0q2zmdwa0fBPj0pdO8LnL0LvHkaaHgycYKSlPX2O5tnxOg8/u4Ivpm5r0HuceITa6i1UbJ9F2bbJhKo2eDLwg0q1/Qdze/U3o9JSe+UNDG08zM2HC+5WuUF0puvDEbXh77y7jD35g/oZfRUASD3uJPmkHndDFaCekt0oieuVWcCJqJugG7Q3VbVq2YwvXh9hbPAH9sh2eWAXePsJyDSTuuMXRlrZUxxVk0G/objD1fcu4OsZ+58/j0UqCVXlULnje0q3fkVV8UIjmUJ1fLcQ7n7a2Lo/wO/QTLakqQp4xVRj4ajKDTL8Gnj3Pw07sx8IwptfqKN+z79nbM2/zqtozqrvysYpgGtQRT+S0uOAVmydNyplKwJWFf/gSklOx4HBl2pvSrkZzbPPLspATcc+gJ3voVteB+7D3dK2K1FPxUl74dEhPHBLf0OXo5KklBfufe745Y/UzVPTajR/5v1ohspVb+Q8X4vMdD546VguPaczsWgN8VgNsUgl0XAFsXA58bh7efuT8eUMNfiHze1j/BEYjvky1w3VCfXA2c10wy0y4azj4bRhMKgPHN5L5RnJzFDZE7duV7n9Zy5SGf4MJPnZm+2ojJm+CgCOQzNjUfbU81K2Hneg1NxmoF2tyYWRN2k3cxKwQLsVd41ClRFO+qioRypRCU8+cbmfg9FcRuvfpx0rp51nNJ9GoHQpoaq958cPR9STk+a0p4OqI+LWo/LxwHwMzYKmp8GTd8IdV5hozT1/H6em/Q0++YM67jrDaIvJ0074lMKMJ8qysQQg9biT4KN63LomAkMwmyvfbRNRiUfcHvzBwFr4w3cMMDr4O/HofhPUZGYYSaqSBpyi3cq+SICulgAAIABJREFU/YDBm2ncgd+9Brf/0bWnPy3VNXDbU6qgluHB/31SZ/AH9TAx1+uLcMFMDK7917F1CkDqcTeQj+pxm7ANVRr2fMCbhOuJyUWtTV+E2vFvw1CdN7dvm8FVo7Qqcu8hFNiIE9v/isfoc6Gl/nYDrexuCXgUwzMMX3wHZ96mEuukivlZcOrNRnf71ykk9SpSOsANpM4RaBOqgFtw4YSFrST7Uo+7AXxWj9ukqaib/j3YG2ATUYhKwjMA+NJy34N03nzhGQc1KMlPfRwnSk1l/ft627SCM4drd6f1syegFDVlbPTGunEr/Px+VVrazcQy9SkuV2f8L7nf2Dn/3d2F+gxTTQ5qwGws7sSd00X+CABA6nEnwVY9btNqgb+jNrvcgoGSlxpWoX756srvurnRb1+0Ht/PHNHd1HUAECxfmXBVtNOGaXfXR7uF+k1CnV83ynFUaenjr4EX31dVLG0pr1Ils0+4Fj782viUf53XgH+70rIZn6NSBPvdi6gU1q6wtfu6Hao0bNJJ/Tu0y2DL3As9qwsQiwao3D7HSj3uY6/SLslZC3TFXklON6UBI4DrUMfhOrncXwXqxvYBam3Tq8Qmdbahiqsk5Ycvz2L40WZqB0Vry3bu/E9sS8/8LLj4Pq0uc7ETBDRHrbGe7FYHbVvDtRfCdReqapVuWJOrHh4+nux6pcvFqP0ZqXW8YU9pqA2BN3p8Hckah6pd4drpCpvHr6YDZ+g08IdfHcHv/s+tk0H7Fq0tobJorqvT/nVeeF/Vu9f0LSrrXmPTArXjuO51DGZmsVahPrNvdv5vKu2dqEAjN37Rkovp2kl/Md5xopQXfPvf7H8J9V2mjrJqqMK9ugC764XaGHig2x0NHQgXnQZnn6COlOlYk6s2DE+aY2TZMBHFqCN/uVZ605eBWra7wOsLaaCvUPuiXJ11tBkASD3uevi0HreXOqM2yfUHBqLW6LsDHXa+2qGe7ipQTyslqL0FW1HnhZehihSl4jpmnQjqZ0hK7drLyMzQjJEch8rieYSD+Q16W1UQ+upVswwBrbRaaJhjUEmdrJ05PqALHDtQpVPu21NlUuzaCdq3Ua9IVO3grwrC9hJ13nzdZpUkbOEK63sMqoGz8N/+ogxUqmBLBX+1fQZci4XESjYDAKnHXQ8f1+MW7qkFko54g6supVVLvU2AgZLFhAINTyoZqoVe52t1HUHjZ0/S6cBkoKXlflNdDLgc+5tgTUlDldB90OsLqcczqJLfVpIq2doECCpxivaX561xm5i7pNjA5exbuKaQsvxpVgf/+VnwyWQjTU1ABv/GRGsfR0m5xgyi4xAoXZLU4A9Qon8Qy4tKYDNR+028SdCfmqLA9fh38Ae1l+chVBCTikcEK4Grgd9iMaOizQAApB73XjWCetzCPVppP/O3J5eVxolHqCyeR6gq+YIU2/RP2HtVCexz1ECRSntBvBJDbaL72OPrMOVfwLGAfqYVc75HLWVaL6ZkOwCQety7aST1uIV7tKa7Fi5r+PaGaG0Z5QXfNnjNf3fZ+ieXvUwBWrdxLBWfFm2pAS7DxWNoHtmIKkh2I+6lmk5EEeqo86k7r8k62wGA1OPeTSOqxy3coZUH4fvFiccPjhOlumw55YXTjRx3nblIuwlPboq7mIE67tawmr+NQwFqP8R/PL4OtzioGekBwO+xuxG4Ymefh6FmbD27Z3tRhS0ddexqgHZD6WmM//tJXHrewQm/x4lHCNcUEAps8rwk55cz4PanjE39b0Ylz/GyJKcw7/fAE8m+uU3r5uQvGLXf/BlOPEoosJGayrUJJ/mpTyAIR16unRf/KeBxIxekpxeq7oNreQJSzI/Az9EsQuUzbVHFdsYAR7jUxxpUkrP3MFjRT4e5HKGJc1A//CXaDTnw5bRtHHtkJ/r3abfPvxeLVBIObiVYsYrq0h+pDW4lHtU/a6fju4Vw65MQNbfd417UkTbRuHRFJUBKSiQSp0/PNhx31J75k6K1JQQr1xIoXUw4mI/jmNtX894EmKJfkuUl1HFNr1Wiit44qOlaP5evrs8HqGn/Eq8vxLIwqjrka6gz+FVAG9Sx4mT/vR0gG/WZ3ova3f8D3mQU3SuvvshSj7tx1uMW5nVHrYUn/bvap2drVkw6hYxmNcQiVUTDJURCO1xLbBWOwEk3GNnXchDe7gPYmwtQZ8rN5lj2XjHq6XeC1xeSYrqigr7BqNoU/VH5RzqiZg3q8ozUoHKM5AErUTlGFgDb7V9y4ryMZKUetzmpVI9bmJeFZmW8x24xUqI3Ic/9E57XPu/DCuBo7Vbc0RF4Ergbb2ZRTXKAD1Hn471dExXWefnlrctxrl8yBPUtnrEIcraqKmSZ3pQM2Ke6o36vjze+4+N94C9mmxQpph9wkk4DP2TDmcfDgV0NXdE+ZG9Q3/OY/lzUe6i0zKkoBExBJQwaikatBo9loZaX/orK8ieaGK/XsjoDqzE8nda3J7z8EJyUIs8P87PUTdGFkpyFqA0rqZzKVugbBmjvqe91AEx7Hbp2NHBFe1FYAufdCflFRpo7HgM/swXpqBSzv8X98sWmbEBtLP0EWTZs0rwOAECtqU3E8LWkpcH1o+CRMe7d8OpTXA5/egs+nuRaSc5LSe2SnMKclah1SC0DDoXPX4QDuxi4ol0UlsCVv1E56g1YhXs7sd2Sjto89yiqpkAqygJeRk35y2khkRLrV+tR9QGMH7FZvg7enwDRGBxxGLS0lFW8vAr+Nk4d8Vu00rVDnq+hakWLpqE1cK5uIyUVMPl7OOEoc0FA9gb4xa9ho7nT8n9GbaDyEwcVuIwF5qICgsPRKIFuSC3qLP/dwCOozWny1C+A1JgBAKnH3VB+qcctzGmHyvWw53m+JGQ2h4duhLtGJ79fJhyBlz+Cv36s/m9DyoBDSZFz0praoWbprkPtJLcVDERRVQ0/Ab5AaoOIfUiVAACkHnei/FaPW5jzBCoxkDE9uqnTAaPPhTYJFt4NBOGTKfD6567sa/kDhn/GFNEGGIk6sXMGavOgqRnYKGr2YSZq4+QsvKujIHwklQIAkHrc9fFrPW5hRidUYpxuphtukQlnHQ+nDVNB8eG9IKO5mh0or1Lf++wcld539o/aGf72ZTvqxENjePqvTxvUmfIBO18DgZ6os+XtgQ6oGYS6c+a1qM+lEHXefCuQg0r+lY0ULhKNxOmopAqOvP7nFcVA9kThezfh/XfRrdetBj8nIYRPXY4a8Ly+IaXKKwL8UusTFY1FGqp8qNffSdOvGaTejKQQwiOXIDMBDioQspTDTfjEYUA53n83Tb0qd/5MQgjxX2fQuG50DX0FUVW5hNjd5Xj//TT1kgBXCLFXR6I2vHh9k7L9ykdlQxNiX17E+++p7usF45+KEKJR6UXjXPfc12sJakewEPuThqpM5/X3NdnXpxgqBiaEaNyao85Bx/D+xuXm631U1jchEpEBfI3339uGvv4DWMrNKYRoLC5AnRf2+gZm+lUEXGTwcxJNRwYqv7vX3+FEX+PwPkWuEMKnOqJKWDaGo4Jx1FO/0YqIoslJA57H++9zfa8/I9P+QggDhqNKhnp9U0v2tRyVHlQIUy4jNU/OVABXufhzCyGaoHRUsY1VeH+TS/S1HnX0SZ6EhBv6ArPx/nte95qz85qEEMIV6cAVqNzYXt/w9vVajkrlKuufwm1pwA14u19mB3AzkuFPCGFJGnAOalNUNd4P+iHgc1SNAyFs6wg8DpRg7ztfvrPPdhZ+PiGE2Kt2qKegb4Ew9m6AkZ193oyh+u1CaGoL/BpVOc6t7/1q4B5k4BdCpJg2wPnAc6iNgyZPEERQ0/t/RR3ls1bOWIgkDEWdGFiGXl6NOJC1s63jrP4EQghtTXltTupxCwFdgVOBwcAg1O9EZ9TSQVt++v7XoL73ecBKVPCwALXHQAghhBBCCCGEEEIIIYQQQgghhBBCCCGEEEIIIYQQQgghhBBCCCGEEEIIIYQQQgghhBBCCCGEEEIIIYQQQgghhBBCCCGEEEIIIYQQQgghhBBCiEYhzYU2hwC3AWcBvYDWLvQhhBBCNHZBIA/4FhgLZJls3GQA0BL4C3C74XaFEEKIpi4OvAH8Cqg10aCpgbolMAU4zVB7QgghhNjTTOB8DAQBzbQvRXkVuNxQW0IIIYTYu95AF+Br3YZMzAAMAX4E0g20JYQQQoj9iwND0dwTYGLQvtVQO0IIIYSoXzpq7NVuRNeZBtoQQgghROLO0G3AxBJADWoToBBCCCHsCAJtdBowMQMgR/6EEEIIu7THXhMBQK6BNoQQQgiRuE26DZgIAL4z0IYQQgghEjddtwET0/dHA8sMtSWEEEKI/XNQY2+2TiMmZgCygNcNtCOEEEKI+v0NzcEfzD21t0JlJdI+liCEEEKIffoWuAgI6TZkKhVwFBgHdAWOQ5YDhBBCCJMc1Gz7DaRYMaBdnYoqWzjAhbaFEEKIpmYTqtLuNyYbdetJvRXwMPAokOFSH3toe8DhDL95LN0Hy0qEEEKkmkjMYfmWEDlFYfU86ycFC2H6fVC6xmavUeA14DEgYLpxt6fqhwBvAcNc7ucnaWkcdsatDLn6eTJatbfWrRBCiH3LL4uweFOImkjc60tpmEgQFj0HP74CjtVrzwJuARa51YGNtfrmwN3An9BMW9gQrToexLE3vErP4ZfZ6lIIIcRuaiIOP+bWsLU04vWlNFzuVJj5AFRttdlrCHgWeBoIu9mRzc16fYE3gLMt9kmPoaMYNuZ1WnU62Ga3QgjRtDmQUxRm+ZYQkZjP5vuDO2Du47DmU9s9zwFuA6ysM5g6BZCIMuBDYCNqo2BrG51WFa5j46x3yGzTmc69j4U0OaAghBBuCoTizN0QZP32MHGfjf1s+BImjIZC12be96YCeAS4Cyiy1alXo+GBwHPAdTY77TbwVIbfPJZ2B8kBBSGEMC3uwNqCWrK3hvw38Fduhun3Q94M2z1PBO4ErK4zgPfn9Uehdjj2stVhs8xWDBz1Gwb//DHSm1k7oCCEEI1aWXWMRZtqKKuOeX0pDROPwoq3YP5TEKm22XMh8H/A5zY73ZXXAQBAB+APwD2YSU2ckI6HDGH4rW/RuY+9AwpCCNHYxOIOK7fVsqagFsdvT/3FK2H6/8H2H2326qCWw+8HSm12vLtUCADqnIJKIDTIVodpzZrT7+y7OGr00zRvYe2AghBCNAoF5VGW5NZQXeuzo32xECx+GZa8BDFXN9rvLgeV0CclquimUgAA0BK1EeK3QKatTtt278uwMW9wwJFWDygIIYQvhaMOWXkhcnZYHTzNyJ+vEvqUrbPZa11Cn0cBq+sM+5NqAUCdo1AJhI631mNaGr1Pvpah1/6FzLZdrHUrhBB+klcSYcnmGmojPpvvD1fCgqcha6zthD7LUAl9ltjsNBGpGgCA2g9wC/Ai0NZWpy07HMCQq5+j9ynX2+pSCCFSXnVtnMW5NRSWR72+lIbbNAVm/hoC+TZ7rQGeBF4AUnJnZCoHAHX6oCognWuz0x5DR3Hcja/Ruou1AwpCCJFyHGDjjjDLNoeI+u1sX3A7zPoNbPiP7Z5noRL6WF1naCibiYCSVY7aMbkKOAOLCYQ2zX6HZpmt6HzY8aRJAiEhRBNTURPj+3VBcnb4LaGPA2vGwcSrYccymx2XA/cB9wIlNjtOht9Gte6o6RSrCYS69j+Z4be8Sfse1g4oCCGEZ3yd0KdiE8y4H/Jm2e55ImqHv9V1Bh1+CwDqXAD8AzjEVofNMloy8KKHGXzxo6Q3t3ZAQQghrCquirFoY5DKkM+O9v03oc8fVAU/ewpQeWy+sNmpCX4NAEAtBTwOPIjFpYwOvY5i+C1v0uWwE2x1KUTSxl2r9yt+5Yd+e/wTyYrEHLK3hlhfGMZ3/+pFK1RCH7vT/Q7wJvAQUGmzY1OsZd5zQRCVM+BU1P4AKyryVvDdEyNY/M7tREMBW90KIYRr8sujTFkRYJ3fBv9oCOY9AeNOtz34bwDOQk35+3LwB38HAHXmAceggoFaGx06Tpyc6WOZ8tujKMyaaqNLIYQwLhRxWJgTZM7aaoJ+y+a3bS58cgoseRkca6fsIsCzwJGA9apBpjWGAAB++kc5Cphpq9PqolxmPXc+814dTW1Vsa1uhRBCW15JhClZVeQWR7y+lIaprVCb/L4YBeUbbPY8HxiKxYdNtzWWAKDOeuBM1LRMla1O8xaOZ9JDA8iZPtZWl0IIkZRAbZxZa6qZtyFIbdRXE/6w4Uv4YBhk/xPsLVbULTePBFba6tSGxhYAgPpWjAUGAv+21Wk4UMrid25n9gsXUl282Va3QgiREMeBdYW1TF0RoLDCZ9n8qgth0rUw+UaoKbLZ82RgMGqGOSWz+elojAFAnXzgUmA0sMNWpwXLJjH5N4NZPeFZnHij+74IIXyoPBjj25UBlm4OEY356anfUU/7Hw6DnIk2Oy5DzSRfADTaJ7rGHADUGY+aDRiLpTmjWDhI1rhH+O6pkVRsbVQzRkIIH4nFHbK3hfgmO0Bptc8eSMpz4IuL1Hp/2OqJq/HAANSY0ag1hQAAformzkDtE7CiZP18pj02lKxxjxCPNIo9I0IInyiqijItO8DKrbX+yuYXj6id/R+PgG3f2+w5FzgfNWtsdZ3BK00lAKgzC3Vk0Np6TjwWYfWEZ5ny26PYsXqmjS6FEE1YJOqwdHMNM1ZVU1njs6N9hT/AJyPV2f6YtYemOOpp/2igSZ3rbmoBAPy0o3M48KOtTqsK1zPj6TN3JhCydkBBCNGE5JdFfJrQp0YN+p//DErX2Ow5GxiB5ZNjqaIpBgB1lgInoIKBkJUeHYec6WOZ9NBAti62dkBBCNHIhSIO89YHmbMuSDDss6f+3Gnw4fFeJfQ5Dlhoq9NU05QDAIAoP2V1mm6r05qyfOa+fCnzXh1NqNLaAQUhRGPjQG5xmMlZVeSV+iyhT6hMbfCbMBqq8mz2PBcYgnr4C9vsONU09QCgTg5wNnADUGqr07yF45n04M4EQo6vJuyEEB4LhOLMXFPNwpwawn5M6PNhXUIfayqB+1H1Y1bb7DhV+bkaoFsOAl4FLrPZabdBpzH85rG0O7C/zW5FIyfVABsfx4E1BbWs3BYi5rPZfiq3wIxfwZbvbPf8NXAnYHWqIdXJDMCeCoDLgYuBbbY6LVo9i6mPHiMJhIQQ+1QejPHNygBZeT4b/J24etr/+CTbg/921MzuKGTw34MEAPs2AbU3wGICoRqyxj3CtN8No2zTEhtdCiF8IBZ3yMoLMS07QJnfEvqUrILPz1Xr/ZFqmz2PB44A3rfZqZ9IALB/5ajjIacBa611unkZ3zxxIks/uI9ordVfGCFEiimqjDJ1RYDV+bX+2ioUC8HCZ2Dc6VC42GbPG4FzUQl9Smx27DcSACRmDqoM5JOo4yOuc2JR1k19hamPDmH7SuvrZUIIj0ViDos31TB9TTVVIT/N9wP5C+DT0+CHZyBmbaN9FHgFtcP/G1ud+plsAmy4IcCbqERCdqSl0fvkaxl67ctktu1srVvhf7IJ0J/ySiL8uLmGUMRnn3+4EhY8DVlj1bq/PVnALcAim536ncwANNxyVOao+wE78/OOQ+73HzD54SPI++FzK10KIeyrCceZuy7IvA1B/w3+uVPgo5Ng+es2B/8a1MzscGTwbzCZAdDTF3gDlUPAmh5DR3HcTf+gdeeeNrsVPiQzAD7hQE5RmGWbQ0R9VbkHCO6AuY/Dmk9t9zwHuA2wmju4MZEZAD11m01uwOJmk/ylE5nyyJGsm/pXHLvTbEIIw6pCcWasqWbxphqfDf6OGvQ/OtH24F+OmoE9HRn8tcgMgDkHAM8D19nstNuAkQy7eSztewy02a3wCZkBSF1xB9YW1JK9NeSvcr0AFbnqWF/eTNs9T0Ql9Nlqu+PGSGYAzNkOXA9chMWEE0Vr5zDtsaFkf/EE8WiTTmsthG+UVMWYlq0S+vhq8I9H1Rr/JyNsD/6FwBWo+6sM/oZIAGDeROAo1HEUK/PzsUiIlV88yTePD6d0o+yDESJV1SX0+W51gIqgzxL6FGfD+HNg9iMQCdrq1QE+QCX0kR3QhkkA4I4K4D4sF50o35LFt0+OUAmEQgFb3QohElBQHmVylg8T+kTrEvqcATuW2uy5rkjb9Vgs0taUSADgLutlJ+sSCE357dEUZksuDCG8Fo6qhD6z11ZTXeuzTbvb5sGnI1VCn7i1csOelGlvimQToD1HoRIInWCz014nXMFxN75Gi3ZdbXYrUoRsAvRWXkmEJbk11PqtXG9tBcz7PWS/h6VSKHWWoRL6SDEUC2QGwJ4VqARCtwPW5ufzFo5nyiNHkvu91MMQwpbq2jiz1lYzb0PQf4P/pinw8Ymqep+9wb8GNVM6DBn8rZEAwK44qrrgUcBUW52GKraz8PUbmPPCKIIlW2x1K0ST4wA5O8JMWRGgsDzq9eU0THUhTLoeJl4FgQKbPc8CjkFN+/tsZ6S/SQDgjVzgfFS1qiJbneYv+5rJvxnM6gnPSgIhIQyrCMb4LjugEvrE/PTU76in/Q+HQ85XNjsuQ82IngGss9mxUCQA8NZ4YCBqVsCKaG01WeMeYfofRlK5bZWtboVotGJxyN4WYlp2gJJqnz3AVmyEf1+skvqEq2z2vOu9z0/RUqMiAYD3SlFR8AXAZludFq+fx9RHjyFr3CPEI7W2uhWiUSmuijJtRRUrt9b6LKFPBJa8rIr3bJ1js+d84FLU7OcOmx2LPUkAkDomA4OxuA4Wj0VYPeFZpv1uGCUbFtjoUohGIRJ1WLq5humrqqkM+Ww5rSgLPjsb5j0BMWvBv4N62h8I/NtWp2L/JABILUHUTtiRwEpbnVZszea7J09m8Tu3Ew1ZnQYUwnfyy6JMyQ6wrjDsr7nraI0a9MedAUXLbfa8HjgTNdMpN5gUIgFAapoPDEUFA1ZCdMeJkzN9LJMeGsi2JV/a6FIIXwlFHBbmBJmzrpqg3xL6bP4WPjxeTfs71vYpRFAzmkcBM211KhInAUDq8uSXp6Ysn+//8gvmvTqa2kprBxSESF0O5BaHmZxVRW6xtWx4ZtSWqw1+X10OVdZqlIEHDzGi4SQASH2eTJ/lLRzPpIcGkDPd2gEFIVJOoDbOzLXVLMypIey3hD4bvoQPhu1M6GONJ8uYIjkSAPiDJxtowtVlLH7ndmY/9zOqi60dUBDCc44D6wprmZoVYHuFDxP6fH0NTL4Raopt9mx9I7PQIwGAv3hyhKYga8pPCYTi8nstGrfyYIxvVwZYujlE1E9n+5z4zoQ+w2Dj1zZ79uQos9AnAYA/jQcGYDGJRiwcJGvcI3zz+HDKcn+00aUQVsXiDtnbQnyTHaDUbwl9SlbD5+ftTOhjtRT4rvci4TMSAPhXOR6k0SzLXcq3vz9REgiJRqWoMsrUFQH/JvQZdzoULrLZcy4/pTO3us4gzJEAwP+sF9KoSyA0+ZEj2bFqho0uhXBFJOaweFMN09dUU+W3hD4FC+GTkbYT+nhS0Ey4QwKAxsGTUpqB7RuY8eezWPzO7URqKm11K4QR+WURJi8PkLMj7K9s9JGgGvT/9TMoXWOzZ09Kmgv3SADQuCwDTkQFAyErPToOOdPHMvmhgWxd9C8rXQqhoybiMHd9kDnrgtREfPbUnzsVPqpL6GPt2utykgwDFtrqVLgvzesLEK45DDVVd6bNTnsMHcWwMa/TqtPBNrsV+zDuWr1f8Ss/9NOjcT0cyC0Js3RzyH9n+oM7YO7jsOZT2z3PBW4FVtvuWLhPZgAarxzgbOAG1DEdK/KXTmTyw0eqBEKOz26yotEKhOLMXOPjhD4fn2R78K8A7gdORQb/RktmAJqGA4FXgcttdtpt4KkMv3ks7Q4aYLNbsYumPgPgOLCmoJaV20LEfDbbT+VmmH4/5FnfaDsRuAuwmjtY2CczAE1DIXAFcDGw1VanRWtmM/WxoWR/8QTxmM9yqAvfK6uO8c3KAFl5Phv841FY/jp8PML24L8dNWN4ETL4NwkSADQtE1DHd15BHedxXSxcw8ovnuSb3w2ndNNiG102eptmv0s0lDqbsKOhAJtmv+v1ZfxXLO6QlRfim5UByvyW0Kd4JXx+Lsx+BCLVtnp1gA+AI4D3bXUqvCcBQNNTDtwHnA5YO0NUvmU53z5xEks/uI9orbUbW6OT/cUT/DB2DLOePY9oyPvS6tHaaua8eBE/jB1D1rhHvL4cCiqiTM4KsDq/1l9bUGIhWPgMfHYGbLeaaXMjcC5wPVBis2PhvWZeX4DwzBbgHSCKOtvr/nfBiVOSs5C8BZ/S4eAjaNu9r+tdNibZXzzByi+eBCBYmkfR6lkccuJo0pu32Od76v5+so689Il9/lm0tpo5L4xix+qZABSvm0s8EuKAI8/W6jMZ4ajD0s0hlm0JEfHbJr/8+TDhSsj5DzjWZiyiwN9Q+4LW2upUpBbZBCgAjgbeAoZb6zEtjd4nX8vQa/9CZtsu1rr1q10H/1117TeC0x6eQvOW7fb6Prc2Ae4++O9q0EUPc/SVz2j12xB5JRGWbK6hNuKzgT9cCQuehqyxNs/0AyxHHe2zmjtYpB6ZARCgNv+8izoueAqQaaPT8i1Z5M55n5YdutPxkCE2uvSlfQ3+UP9MgBszAPsb/MHeTEBNOM7CnBpW5df6a5MfwKYpMOGKnZv8rAUuNcDTwHXIJj+BzACIPfUFXgfOsdlpj6GjOO7G12jdpZfNblPe/gb/Xe1rJsD0DEB9g/+uXJsJcCCnKMwyv5XrBQhuh1m/gQ3/sd3zHNRTv0z3i/+STYBid3WbgkZjcVNQ/tKJTPntUayb+lccu9OhKSvRwR+geP08Zj17vqsbAxsy+AOsnvCs8Y2BFTUxvl0VYPGmGp8N/o5K5PPRibYH/7qqoachg7/YjSwBiH1ZBbwHHABYmZ+PR2ps/ZRcAAAgAElEQVQpzJrC9pXf0bXfSbRo181GtympIYN/nb0tB5haAmjo4F/H1HJAfGdCn/kbggTDfhr4gYpNMOVGWPp3iNop0bHTROACYKbNToV/SAAg9qca+DewGBgJdLDRabAkj00z3yYej9K13wjS0pvW1zSZwb/O7kGAiQAg2cG/jm4QUByIMXttNVtKIr4q2kc8qjb4Tb4ByjbY7LkAuAn4HeD9WVGRsprWnVUkaz3wNtAGdVLA9b0jTjxK0epZbFvyHzr3OY5WnZtGcSGdwb/OrkHA6q/+rNXWwAsf0hr86yQTBMTiDtlba1m0yYc7/ItWwNdXw6oPIW4tC6YDfIjK+Gk1mYDwJwkARKJqgSnAd8BJgJX5+drKHWya9Q415fl0H3QG6c2tHFDwhInBv06wNI+itXMIlmzRaqdo7WyK1sw2ck3F6+YC0H3Q6fX+3YLyKLPWBCkojxrp25poCBb8Eb69C6oLbPa8AbVv5yXUbn8h6iUBgGioPFSZ4WpUpTAL3yGHsk1L2DL/E9r3GETbAw53v0vLNs16h2Uf/dpom7qDv6k2dlW0ehZtuhxCp95D9/rnoYjDktwalueFiMR89tS/bS5MGA2bJmHxaF8UeB64EjVTJ0TCJAAQyYij6oR/CRwH9LTRaSRYzua5H1K5bRXdB59B8xatbXRrRbuD+lOyfh7VxbleX4qruvY/maOvfHqvOQvySiLMWVtNScBn+ftrK2DOIzDrYQhZq7wNsBQ13f8BKhAQokEkABA6dqDSCeejagvsOyetQZXbVrFx1ttktu5E5z7H2ejSdenNM+l1whWNOgjo2v9kTvvN5D1yFVTXxpm/IcjqAh8m9NnwJXx1BeTPs9lrELXB7ybU754QSZFEQMKU3qgEQufZ7PSgYy5g2E3/oHWXQ2x26xrdHfepam+DvwNs3BFm2ZYQUb9N91cXwqwHIWei7Z5noRL6yHS/0CYzAMKUctQO5FWo2YA2NjoNFK4nZ/pY0tKb07XfSaSl+Tu3VWOcCdjb4F8ejPH9uiA5O8L4Kp8PDmS/p3b4F2fb7LgMuB+4F6naJwyRGQDhhk7AM8BtNjvt0u8kht/8Jh16HmGzW1c0lpmA3Qf/WBxWF4RYva3WZwM/UJ4D0++Dbd/b7nk8cA9qyU0IY2QGQLghhMpC9gOquFBHG53WlG5l44w3iYWr6TZgJGnNmtvo1hWNYSZg98G/uCrKnHXVbC2N+iyhTwR+fBWm3KSy+tmTD9wAPIU6dSOEURIACDdtQB0ZbI7KHeD6/LzjxCleN5e8hePo0Oso2nTr7XaXrvFzELDr4B+JOmTlhViyKURt1FdDPxT+AF+NhnWfg2PtdIIDvIna4b/cVqei6ZElAGHLSaibmr35+bQ0DjvjVo755Qt77Dz3E78tB+w6+OeXRViSGyIY9tn2/mgN/PCsevK3N/CD2tx3G5K/X1ggMwDClq2oAKAaVVfAyvx82aYl5M55jzbd+9K+xyAbXRrnp5mA3af9J2UF/JfQJ3eaOtqXOw2LCX0iwAuobH45tjoVTZsEAMKmugRCnwJHAX1sdBoNVZG3YByV21bRbdBpNG9h5YCCUX4IAva223/ltloPr6iBQmUw57fw/WMQrrTZ8zzgQuATwGdZkISfSQAgvFAKvI/a5HQaNhMIzXiLzDad6dz7WEjz1wpYKgcB+0ry45sAYMOX8NXlkD/fZq91CX1uRXb4Cw9IACC8tAR4DzUTYGV+Ph4Jkb90IjvWzKRr/xG0aNvFRrfGpGIQsK/BH3wQAFRugSljYMlf1Lq/PZOAn+38X5+tkYjGQgIA4bUA8BmqfOlpgJXdesHizWyc+bYvEwilUhCwv8EfUjgAcOKw8j34+pdQttZmzzuAu4CHgQqbHQuxOwkARKpYh6or0Bk4FgsnVJxYlO0rv2Xbj1/Rpe9wWnXq4XaXxqRCEFDf4A8pGgCUrFIDf/Y76oy/PeNRa/1W1xmE2BcJAEQqqUsgNBMYAViZnw9VFLJx9juEAyV0G3gq6c0zbXSrzcsgIJHBH1IsAIiFYNEL8M3tUJVns+dNwFWo7JhBmx0LsT8SAIhUtBl4G4sJhHDilOQsVAmEeh5B2+59Xe/SBC+CgEQHf0ihACB/AUy8Ejb8x+a5/jjq6OsvgNW2OhUiURIAiFQVBb4FvgKGAVbm58PVZeTO/YDqHTl0H3gazTJb2ehWi80goCGDP6RAABCuhLm/h5m/hppimz2vAH4OvAGEbXYsRKIkABCprhB4F3V0cCRgZX6+fEsWuXPep0233nQ4eLCNLrXYCAIaOviDxwFA7hSVxjdvBhY32oeAPwHXAVtsdSpEMiQAEH4QBxYC41CphK3Mz0drA+QtHE/ZpiV0G3gqGa3a2+g2aW4GAckM/uBRABDcATMfgHlPQLjKZs/fozb5fY4k9BE+IAGA8JMy4ANgI+rIoJX5+arCdWya9Q7NMlvR+bDjSUvhBEJuBAHJDv5gOwBwYM04mHg1FC6y2C8VwCPAnUCRzY6F0CEBgPCj5ahMgr0BK/Pz8UgthVlT2LFqBl36nUSLdl1tdJsUk0GAzuAPFgOAilxVrnfp32wn9JkIjAKsFg4QwgQJAIRfBVDnqn9E7Q2wMj8fLNnCpplvE49H6dpvBGnpqfkrZCII0B38wUIAEI9C1liYfD2UrXe3r/9VCNyNevK3WjhACFNS8+4lROLqEgi1BoZjI4FQPErR6lnk//gVnfsMo1Wng93uMik6QYCJwR9cDgCKs9V0/6oPbSb0cYAPUTv8F9jqVAg3SAAgGoNaYAowA5U3wMr8fKhiO5tmv6sSCA0YmZIJhNKbZ9Lr+MspXj+PYPHmhN7TfdDpnPrQJO3BH1wKAKK7JPQJbDPf/r5tBK4EXgSsrjMI4QYJAERjsgWVQCiGyiTo/vd7ZwKhLfM/pX3PwbTtfpjrXTZUevNMDh3xSyLV5ZTlLgFn70vVaenN6HfOPZx45wfG8h8YDwC2zYOJoyHnK5XP344o8DfgcsBq4QAh3JS625mF0HMM8BZwnLUe09Lod849DL3mJdKaNbfWbUNUbF3JxplvsT37W6qLNgHQplsfDjjybA4741baG855MG6hoXo38SjMeRSy3sTyXrslwC3AMpudCmGDBACiMWsO3A88idojYMWBR53LyAcmpOSSgG1GAoBYGCaMhryZ+m0lLgj8HngZNQMgRKMjSwCiMYsD84BPUMcFrczPB3bkEI+GOfDIc2x0l9KMLAHM+z2s/Uy/ncTNRh3tm4D6DgnRKPmnCLoQydsEnAeMQaUUdt3ar1+gqkCWi7WVroWlf7fWG+o7cjqy1i+aAAkARFPhoGoKDEZlE3S3MyfOxplvu91N47fqfSyt+U8EjkZ9RyShj2gSJAAQTc124HrUFK+rxVq2r/zWzeabhq2z3e6hALW7/yLA6plCIbwmAYBoqr4GjgJewaV13sCOTW4027RUuhajOaiZoCOBf7nViRCpTAIA0ZRVAvehUgmvMt14JFhuusmmp9bQMcL/tQE4CzUTZGVPiBCpSAIAIdRJgWNQed09LGAvXBYF/n979x1nRXX+cfyzlQUB6R3BgtLBAlIFEWsUEIyGSCRqYn4mlkQTjSYRa6JpaiLGrjEJgmAlKogajTTBAggsogLSZJe6LAtsubu/Pw4bF9h6z5k7M3e+79frvtSE+8zD3tlnnnvmzDn3YUZ+/uNzLiK+UwMgYhRjLg6noDXek9EnwKmYJm+/z7mIBIIaAJGDLQcGAz8C8n3OReztxVz0+2F2jhSRA4K5XqmIv0qBxzB7vGsmX7j1ANb5nYRIEGkEQKRq6/xOQKyt8zsBkaBSAyAiIhJBagBEREQiSA2AiIhIBKkBEBERiSA1ACIiIhGkBkBERCSC1ACIiIhEkBoAERGRCFIDICIiEkFqAERERCJIDYCIiEgEqQEQERGJIDUAIiIiEaQGQEREJILUAIiIiESQGgAREZEIUgMgIiISQWoAREREIkgNgIiISASpARAREYkgNQAiIiIRpAZAREQkgtQAiIiIRJAaABERkQhSAyAiIhJBagBEREQiSA2AiIhIBKkBEBERiSA1ACIiIhGkBkBERCSC1ACIiIhEkBoAERGRCFIDICIiEkFqAERERCJIDYCIiEgEqQEQERGJIDUAIiIiEaQGQEREJILUAIiIiESQGgAREZEIUgMgIiISQWoAREREIkgNgIiISASpARAREYmgdL8TCKgOQC+g04F/PwroCLQG6gGNMD+7JkAKUAAUAfuB7cA2IBdYD6wD1gIrD/y7RMi0D/L8TkEkbFR/E0QNALQATgf6A32BE4HmdYxxxIEXQNtq/lwesAxYDMwF5gM5dTyWiEiyUP31UYrfCfggHRgGnAmMxJxwft4KWQG8ceD1PlDsYy5yuDKrd1+7y1EaEfXXJrYRoljjgkz1N0Ci8suRCgwFvgNchOk6g2gH8BIwDXgHiPmbjqAGwF9qAJKB6m9AJfsvR0fgauAyoL3PudTVRuAp4EnMvSzxhxoAP6kBCDPV34BL1l+OwcB1wFjCP8+hFHgZ+BPmnpUklhoAP6kBCCPV35BItscAzwY+wEzwuJjwn3xgPqOxwLwDr7P8TUdEpFKqvyGTLA3AEOA9YBZmNmmyGgTMxkxWGepzLiIioPobWmFvAI4DXsN8IKf5nEsilf/C/QNo43MuIhJNqr8hr79hbQAygJuBT4HzfM7FLynABGAVcD2Q5m86IhIRqr9JUn/D2AAMwyzmcC+Q5XMuQXAk8ACwCDjV51xEJLmp/h4s1PU3TA1AOnA75vnMrv6mEkgnAQuAB4FMn3MRkeSi+lu9UNbfsDQAXTA/3EmEJ2c/pGAev5mLuT8nImJL9bd2Qld/w/Bhfhf4GDjF70RCpB/wIXCB34mISKip/tZdaOpvkBuAFOAe4J9AQ59zCaMjgVeAO9BiKCJSN6q/dkJRf4PaAGRhTrxbCfAPLwRSgNuAv2Nm7oqI1ET1143A198gfritgNeBk/1MIr1xY47o2p2G3XtwxAldaXDMsWS2bElGi5ZktmhJSmoq6U3MMqWlhYWU7M6jJC+P4h3b2bd+PfvWrWXf2jXsyV5J/pKPie3d6+dfB+DfwCWA74mEjN1SwOK3INa4IFP99UYg62/QfjnaAm8D3RJ94IymTWk+8iyaDBpC08FDadizFympbgZIykpK2JO9krxFC9k+Zzbb33mLkt27ncSuo3mY+1I7/Th4SKkBCLeg1bggU/31VuDqb5B+OTpiTr4uiTpgZqvWtL5wHK1GX0izocNIyUjMKE1ZcTE7588l58UZbJk+leIdOxJy3ANWYNaz3pzIg4aYGoBwC1KNCzLV38QIVP0Nyi9HZ8zzpUd7faCU1FSajRhJhyt+SKsLRifspKtKaWEhW1+byaZnnmTbnNlQlpDrzQrMWtaB6UQDTA1AuAWlxgVZZ1R/I1l/g/DL0RwzNHKClwdJycig3fgJHH3TLTQ4LmFNbp3sWf4p6x74E1uef47SoiKvD1e+s1Wg7kkFkBqAcAtCjQsy1d8Dolh//f7lqA+8hdllyRMpaWm0n3gFR998K/U7dfbqME7t37iBL+64jc3/ehZKS7081L+BC4ESLw8ScmoAws3vGhdkqr+ViFL99fOXIw2YAYzx6gDNho/ghD/cT6Nevb06hKfmznmTvb+9ExbM8/IwTwNXogtdVfRzCTc1AJVT/a1BFOqvnzsY/QG4wovAmS1b0fOJZzj+nvuo17q1F4dIiF2NG7Pn3AugU2f4cBHs3+/FYU4ESjHbW8rhbvc7AbFyh98JBJTqbw2iUH/96o7HAdO9OH7rMWPp9tAjZLZo6Tp0wn2+cydrd+WZ/9i+He6+DWa97sWhYpj7Ue94ETzkdgON/E5C4rIbsyKbHEz1txaiUH/9WAmwC/Akjk++1Pr16fn40/SZ+kJSnHwAWWnp3/xH8+Zw/2S447dQr57rQ6UB/wLauA6cBDb4nYDEbb3fCQSQ6m8tRaH+JroByAKm4bgrz2rfgX5z3qPd977vMqzvstIruUNz8Xh47gU4qpPrw7UBnsPf20JBNMfvBCRub/qdQMCo/tZBFOpvohuAezH3PJxpOnQYAxd9wpGn9HMZNhAO6kAr6tYDpr0EfU9yfcjhwK9dBw25JzBDdBIuMcw3XfmG6m8dRKH+JrLbGAg8isOhp5bnj+LEGa+Q3rixq5CBEqOM9VUtWZlVH84fBV+shrVrXB52KOZb70aXQUMsF7M+en+/E5E6eQj4h99JBIjqbx1Fof4mqgGoh9lgopWrgG3HT6D3s1NIzcx0FTJwSsvK+CqvmjWr0zPg7PNg00b4LNvVYVOBAeibb0Xlz0of43ciUitvARMxs6tF9TcuUai/iWoA7gTGugrWdvwEej75d1LSkv929dq8vOr/QGoqnD4S1q2Fz1e7OmwrzMmnRwONGDAVaIrZJS2o22hHXQzzzX8iUOxzLkGi+hunZK+/ifgEj8PMcHRyrJbnj6L3s1MicfKlAGt21XACgjkJR54Jq1fDmi9dHX4A5nPb5SpgyMWAN4AXgELMo4ENgOT9ChQOe4DVmP3rr8IM++ub/zdUf+MUhfqbiHUAZmCeO7XWdOgwTp45i9SsLBfhAq+0rIy31n1V+zcUFsJl34FlS1ylMAP4tqtgIpJwqr9xikL99XoocxCOhp7qH9WJvlNnRObkA4iV1nF1yHr1YPJj0LadqxQuwkxKEZHwUf21EIX662UDkAL8EQejDKn169Nn2otkNG9hn1WIlMazPHSLlvDwE+DuF/VuV4FEJGFUfy1Fof562QCch3n0xFr3vzxM4xOdP3MZGGUllW8GVRrv3tRdu8FNt1pkdJDTgDNdBRORhFD9raUo118vG4BfuAjSeszYpFthqqJdC+bxftdjzNaThyiMWTwF8p0JcIaz8+Y2V4FEJCFUf2sh6vXXq0mA/YEPbINktmzFoE+WJ83a0ocqi8VYOOgU8peaSSPNTj+Dbg88xBEndAUgp2AvS3Nz4z/Azp1w/kjYscNFuoOABS4CiYinVH9rQfXXuxGAn7sI0u3ByUl78gFseGTy/04+gB3/eZsF/fqw6sbriRUUUBirfGiq1po2hV84G4py8pmKiOdUf2tB9debEYDOwBdYPnfabPgITpn1tpOEgqgoN4e5vbtSsqvyxzyz2neg8aS7yB063O5AZWUwcTwstv5CEMOshKcd1kSCqzOqvzVS/TW8GAGYiOXJl5KWxgl/uN9ROsG0+pabqjz5APZv2kjuVZfD1VfCBovPPCUFfnMn2C/ckQZcYRtERDyl+lsLqr+G6wYgBbjMNkj7iVfQqFdvB+kE064F89g8pZb7lLz7Dow6Gx56wCw0EY8ux8O3RsX33oNdgbYLFgkq1d9aUP39hutbAKdhuX5xSkYGQz79jPqdj3aUUrAcOvGkTjoeBbdOguEj6v7eTRvh3BFQbL1E+kggeccGRcJL9bcGqr8Hcz0CMNE2QLvxE5L25IPDJ57U7c3rzZDU1VfCxg11e2/7DjDKyaJgl7gIIiLOqf7WQPX3YC5HANIxe6c3jTdASmoqg5dm06DL8e6yCpCaJp7UybhL4O576/ae1Z/B6HNsj7wNaId2WxMJEtXfGqj+Hs7lCMAALE4+gGZnnJm0Jx/UPPGk1ho2hOtvqPv7jj8BBgyyPXoLzDOpIhIcqr81UP09nMsG4FzbAB0u/4GLPAKpThNPanL9z6Flq/jee6n1HCFw8FmLiFOqv9VQ/a2cy1sAnwB9431zZqvWDPtyAykZGQ5TCgariSeH6nI8vPQapKXH9/7iYhjSD3bXYp/rqi3F4rMWEedUf6ug+lu1OP8Wh2kL9LEJ0PrCcUl58oHlxJOK/vdMqcXHlpEBZ50DM6bZZNIbMxS1zSaIeKYD0AvodODfjwI6Aq2BekAjzO9+E8yXgAKgCNgPbMd8rrmYRUfWAWuBlQf+XYJH9bcaqr9Vc9UADMByNKHV6AsdpRIsRbk5fHHXJDfBRo+Ffqfax/nWKNsTMAUYDLxin4xYagGcjln/vS9wItC8jjGOOPACczGpSh6wDFgMzAXmAzl1PJa4p/pbBdXf6rlqAPpbJdGkCc2GDnOUSrA4nXhyw032cQD69YdGjSA/3yaKGgB/pAPDMFuEjsRc8L3c1bOiI4GhB17ls6BWAG8ceL2Png7xg+pvFVR/q+eqcPSzeXOLM89OyuGnwEw8OVRauotO1qroSJ2kYi76fwO+Bt4CbgZOJnEX/6r0wGxU8jawBXgC05xoxcjEUf2thOpvzVwUjxRMIYpb08FDHaQRLGWxGNk/vcZsBmGry/Ew/lL7OBUNGGwboQ/ebSctRkfgt5h78e8C/4cZ8g+qZsCVwJuY+QJ3YOYfiHdUfyuh+ls7LhqAYzCTieLWZNAQB2kES6AmnlTm1IG2EZoA7R1kIocbDEwD1gC3EM6fcwfgNswEwhfQ2hFeUf2thOpv7bhqAOKW3rgxDXv2cpBGcARy4smhjj0W6tWzjdLdRSryP2cDH2Am2F2Muzk6fkoFxgLzDrzO8jedpKP6ewjV39rzvQFo2K0HKal+38Z0K5ATTw6Vlm6Gtuwk76LhiTUEs4nLLJJ7bsUgYDZmsmDyjTv7Q/X3EKq/tefik7dK4oiu3RykEByBnXhSmW49bCOoAbBzHPAa5oJ4ms+5JFJ5w/MPoI3PuYSd6m8Fqr91438D0C2xo8gbHn+EkjyrVZiqVFZSQvb1P3Ez8aRrNxg/wT5OdY7qZBvBOkBEZWBm8X8KnOdzLn5JASYAq4Dr0VMD8VL9PUD1t+5cNACtbd6cyK0nc2e+Qva1VzOvd1dyZ7p/hH3Dow+Tv2ypfaCUFLPvdJrHNbFNdWu+1EpLF2lEzDDMYjr3Alk+5xIERwIPAIsAD262Jj3V3wNUf+vORQNgNQO1Xmur87fWirdvY+VPfgRAYc4Wlnx7DEsvvZjiHTucxA/FxJNDtW1nG6GuK85FWTpwO/AO0NXfVALpJGAB8CCQ6XMuYaL6i+pvvFw0AI1t3pzp5T2WClZe92OKcg9etTTnhenMP7GHk240FBNPDmX/sw/yM+lB0gVzcZuE/wv3BFkKcB3mKYjjfM4lLFR/Uf2Nl4tidKTNmzOae38N2TLjeXJemF7p/+eiGw3VxJOK6te3jdDARRpJ7rvAx8ApficSIv2AD4EL/E4kBFR/VX/j5vsIQKr9s5DVKt6+jVU3XFfjn4u3Gw38ilPVybI+Ab398MItBbgH+CfQ0OdcwuhIzFrnd6AVJ6uj+qv6GzffhyNT0r1d66SyoaeqxNONBn7FqerYd6BqACqXhbnw34ouXjZSMKsJ/h3z5IQ4pvp7QETrr4vitA+L2cxn7o15thDFlhnPs2zCJXG9t17rNnR76BFaXTC6yj9TlJvD3N5d3dx7GjMOfvdH+zh1UVQEfU6wiVCMJmwdqhXwOpbrs9tKb9yYI7p2p2H3HhxxQlcaHHMsmS1bktGiJZktWpKSmkp6EzN/rLSwkJLdeZTk5VG8Yzv71q9n37q17Fu7hj3ZK8lf8jGxvXv9/OsA/Bu4BPA9kYBR/VX9jZuLBiAfiyHOkXn7PRmGKt6+jXl9e1C0NdcqTutx36b7Xx8ho1mzw/6/5VdOZPO/nrWKD5iJJ6+/nbh7T+V27oRBJ9lEyMNyFnKSaYvZFS/hq6tkNG1K85Fn0WTQEJoOHkrDnr2cFfaykhL2ZK8kb9FCts+ZzfZ33qJk924nsetoHmZewE4/Dh5Qqr+2Ilx/XYx3lFi9eXeeJzNRV157tfXJB+be1K657x/WjYZ24klFe6z2owZ9G6uoI+bi3yVRB8xs1ZrWF46j1egLaTZ0mGdbuqakp9OoV28a9epNhyuvoqy4mJ3z55Lz4gy2TJ/q7FGuWhiMWTXxLGBzog4acKq/tiJcf118Rdhn82YnwzeH2DLjeXJenOEs3qH3pkI98aSiggLbCFaffRLpjFna1vOLf0pqKs1HnkWfKdMZ9uUGuj04meYjRiZ0P/eUjAyaDTudbg9OZtjazfSZMp0WZ51j7qN6rwdmu+GmiThYCKj+2oh4/XUxApCLGfqMS/Eut6N5RVtzWfXTa5zGLJfzwnTyFi6g+ciz3E08uf2exE48qcj+BNQIgFmMYxYe74uQkpFBu/ETOPqmW2hwXMIGGWqUWq8ercdeROuxF7Fn+aese+BPbHn+OUqLirw8bA9gJmYkIOrnoOpvvFR/nYwAWI3z7F+/3kEK38i+/icUbdvqNGZF+zdtZNPfn3ITbPRYOMnHx8O/3mQboXbTe5NXfeBVwGomT3VS0tLocMUPGbJ8NT0eeypQF/9DNezZi55PPMOQlV/Q7nvfB293mRsMTCM5tky2ofobL9VfJw2AVRJ7165xkIKRt3iR06EnTzVqDD//pb852P/sN7hII6TSgCmYLW490Wz4CAYs/JjuDz9G/U6dvTqMc1kdOtLz8adp8MobMHCwl4c6H3iMaD9qqfobD9VfIAAjAPscnoBH9uvPyTNnkdWho7OYnrnuBkjAKlzVWrfWNsJGF2mE1H3AGC8CZ7ZsRZ8p0zll1ts06tXbi0MkROO+J8JT/4Tf3w9NPbtlfznwG6+Ch4DqbzxUfwE3DYDVGbQne6WDFL7R/MyzGfTxcjpceVWiJiXVnZ8TTypa86VthKiOAIwDbvAicOsxYxn0yXJaj73Ii/AJVb98kZkLxsDMOXCOZzsf3waM8Cp4wKn+1pXq7/+4aACybd6cv+RjykqsnmQ5THrjxnSf/Cgnv/pG8LpRP1acqkwsBl+ts43i9gZiOHQBnsTxsHNq/fr0fPxp+kx9gcwWybHLclbFc7x5c7h/MtzxW3D/3Hka8C+gjevAIaD6WxeqvwfxvQGI7d3LnpUrHKRxuEB2o4naarImK1fAPutJpA423w6VLMzEM6sNWA4L2nhw1VUAABqDSURBVL4D/ea8ZybOJZGs9Er2U794PDz3AhzVyfXh2gDPYZqBKFH9rQvV34O4aAC+xnJlrrzFHzhIo3KB6kYTudVkTRYtsI2Qi/nso+Re4ESXAZsOHcbARZ9w5Cn9XIYNhKyqvmV16wHTXoK+VqugVWY48GvXQQNO9be2VH8P4+o5neU2b94+Z7ajNKoWiG7UrxWnKrNwvm2ET1ykESIDgWtdBmx5/ihOnjkrIVuy+iEtrZry0qQpPP1POONM14f9DeazihLV39pQ/T2MqwbA6m+z/Z23vF44BPC5Gw3KxBOA4mL46EPbKFFqAOph7vs7e7C97fgJ9J36AqlZce/jEnhpNRX6rPrw4N/MsKzDwwKPE61NqlR/a6L6WylXBW2uzZtLdu9m14J5jlKpWcK70aBMPCn34SIX958Wu0glJG7D4QY/bcdPoOeTf/d8K1a/1dgAAKSlwT2/h/MucHnoHsAtLgMGnOpvdVR/q+SqAZgHlNoESPQCEgntRoMy8aTcKy/aRogB79onEgrHAT93Fazl+aPo+fjTnm3BGiS1agDANAG//zOMPNvl4X+J2aMhClR/q6P6WyVXVWgnYPVA6ZbpUyktLHSUTu153o0GaeIJmM5zzizbKB8BCdsCzmf34mg4uenQYfT557Sk/+Zfrk5btaSlwx8fhN59XR0+C/iDq2ABp/pbFdXfarn8GmI1k6R4xw62vjbTVS514mk3GqSJJwBzZsNe6+Gnt1ykEgKDACc3qOsf1Ym+U2ck9T3/Q8VK67hbW716MPkxaNvOVQoXAUNdBQs41d/KqP5Wy2UD8LJtgE3PPOkij7g570aDNPGk3MsvuIgShQYgBfgjDhb8Sa1fnz7TXkza2f5VKa3bGIDRoiU8/AS4a5TudhUo4FR/D6X6WyOXDcB8YItNgG1vziJ/mb9ry6Q2akTT+/5Mw6enQJu4d9kM3sQTgFUrXTx+shV430E2QXcejh4n6/6Xh2l8ovNn3gOjqpXkSuPdr71rN7jpVouMDnIa4PxZwwBS/a1I9bdWXDYApZg9uq189Zf7HaRSd7sLi1i9Yyfvrd/Ip1u3sufUAfDqbBh3cXwBJ0wM1sQTgL89BPEW5W9MA9yuHRpMv3ARpPWYsUm3wl9FuxbM4/2ux7D5X88e9v8VxmLxB/7OBJdrBNzmKlCAqf5WpPpbK65nXZyF5b2o1MxMhqz8wvOZoWVlZeQVFZFbsJecggL2Vbce9n/fhUm3wJZaNtiDhsAjT0FGhpNcnfjycxh1DpRaTRYGc0/V6rGjEOgPWC+PltmyFYM+WZ40a/sfqiwWY+GgU8hfugSAZqefQbcHHuKIE7oCkFOwl6W5FpvV7dwJ54+EHU7mOw0CrJdfCzjVX1D9rQPX62avBSYCTeINUBaLUbxzJ61Gud1pNVZaRn5REVsKClibl0f29h1s2J3PrsJCSmr6UDp1hnGXwM4dsCq76i4uLQ0uvQx+96dgnXwA994Nn1ktGw5m84kbHWQTdPdjniW30vOJZzjy5ORb4rfchr89xOZnn/nff+9bt5ZNTz1O0bZtNB1yGjtjMbbt2xf/AerXN1u2vv2mfbLQFHjeRaAAU/1V/a0TL1Zh+DVwl1WE1FQavPIGjfueSP30dLLS0slKTyMrLZ30tFRSU1JIJYX0tFRKS8soLSujjDJiZWUUxmIUlcTYHyuhMBajoKiY/KKi6jvMulj9GTw/BRYugE0bIS0V2rWHQUPhoovhuOPdHMelZUth/FgX3eddJP9wamfgCyyb42bDR3DKrLedJBRERbk5zO3dlZJduyr9/7Pad6DxpLvIHTrc7kBlZTBxPNivVx8DjiH5d7BU/Q2aANdfLxqA9sA6wG72xcDB8NQ/XeQTbbEYXHIhrPjUNlIRcDSw2T6pQJsE3G4TICUtjQELP6ZRr95uMgqg5VdOrPS+/2GGj4BbJ0HHo+I/2Oer4cLzzLls5w4sP9sQUP0NkoDXXy+WI9sEvG4dZcE8mGn9ZIs8P8XFyQcwg+S/+KcAl9kGaT/xiqS++O9aMI/NU/5Ruz/87jsw6mx46AGId6GZLsfDt0bF996DXUHybxes+hskAa+/Xi3EPAQXjyo0bQoz50Dz5vYZRdH2bXDuGZC/20W0ATiYGBdwpwHv2QRIychgyKefUb/z0Y5SCpZDJ/7VScejzGjA8BF1f++mjXDuCLORip2RQPLemzFUf4MgBPXXqwXJ5+JireKdO+HuZL/l7JHSUvjlja5Ovvkk/8UfzAQqK+3GT0jaiz/Ahkcmx3fxB9iwHq6+0rw2bqjbe9t3gFFOFmW8xEWQgFP99VtI6q+Xw2GbcDCcyhefQ6vW0KOXfUZR8uhkmD7VVbTvY2YYJ7N04CmgfrwBUlJT6f2PqWQk6Temotwcloy/iNL9++0CrVtrlkMdMbJu7+vQEaZa35fuBDyA5eY5IaD666eQ1F8vtyR7C7NLlb17bnd1HyUaPlps7rm68V/gHVfBAmwA5lGxuDU740wadAngLGRHVt9yU5Wz/uukYUO4/oa6v+/4E2DAINujt8CsCZDsVH/9EqL66/WepL9yEqWoCH52jRmSkurl5sCN17mYMV3uZleBAu5c2wAdLv+BizwCqU4T/2pis0HLpfZfanHwWYeE6m+ihaz+et0AvAdMdxJpw3r48Q9gv8XCIskuPx+u+j7kWC0JXtErwEJXwQLuPJs3Z7ZqTasLRrvKJVDKYjGyf3qNi2VM7TdoGTYCGh9pm8U5tgFCQvU3kUJYf71uAMCsXGS9/yEASz42nWgsCkvR11FxMVx/NXy2ylXEfUAc47Sh1BboYxOg9YXjSAna6mOOWE38q8jFBi0ZGXCW9fW7N+ZWQBSo/iZCSOtvIhqADcCfnUV79x341c0uh1jCLxYzw04L3NzyO+AuYI3LgAE2AMtHYluNvtBRKsFSlJvDF3dNchNs9Fg3G7TYrwmQAgy2TyQUVH+9FuL6m4gGAOB3wGpn0V55EW76mTpRMIur/OwamDPLZdRs4E8uAwZcf5s3pzdpQrOhw1zlEihOJ/7dcJN9HIB+/aFRI9soUWkAQPXXOyGvv4lqAPZinrF21za+PhN+ek38q4slg/x8+OFE1ydfKfB/mKUno8Jqx54WZ56dlMP/gZn4d6i0dBcjCVZNX8io/nohCepvohoAMJMZ7nMa8a3ZcNl3YNtWp2FDYdtW83e33yTlUPdhHj2JihTgZJsATQcPdZRKcARq4l9lBlh/ge+DdyuhBpHqr0tJUn8T2QCA2YxjqdOIy5bAxWPMNpFR8dFiuGgUrFrpOvIHmM1wouQYLLZPBWgyaIijVIIjUBP/KnPqQNsITTAb50SJ6q8LSVR/E90AFAEXA3lOo369Gb5zITz7tJtvLEFVVmb+jt//rstHTcrtAb4HWC+2HjLH2Lw5vXFjGvZMrlXSAjnx71DHHgv16tlG6e4ilRBR/bWRhPU30Q0AmMkolwFuz5TCQvjdnXDtj5JzwYrt28wzpr+7E1ztrf2NMsxOaZ+7DhwCVg1Aw249SEn149fIO4Gc+HeotHRza8FO8m7aUDXV33gkaf31q3K9CtzpSeS355hdw55/Ljm60dJSM+v2/LNgrme3hm7H1YIh4WN1ETiiazdXeQRCYCf+VaZbD9sIUWwAQPW39pK8/vr51eVOzInoXt4umHQrTBwPn7t7+iXhli0199d+eSPs8qyrnop55jSq7BqAbokdRd7w+COU5LkdwS1XVlJC9vU/cVO4u3aD8RPs41TnqE62EawDhJjqb00iUH/9bABKgfG42rCiMos/gDHnws03mKUsw+LLz+Hmn8H4sV5vwvEBZugpCVr1uLW2eXMit/7NnfkK2ddezbzeXcmd+Yrz+BsefZj8ZQ7miKWkwK2TIM3LzUaBNm1tI7R0kUZIqf5WJUL1NwiPwTTB7F1ttRRrjdLTYfQ4uOxys6tYEGWvgEcmm8drSj3frfRTYASwzesDBdwSLM69/v+ZS5OB3q8pU7x9G/NO7ElRbs7//rfW475N978+QkazZtbxi3JzmNu7q5t7/2PGwe/+aB+nJh8thgkX20RYApzoKJuwUv0tF8H6G4QGAKAN8D5wXEKONmCQ2VVs2Aiztrif9u2FOW/CyzNg4fxE3TfLBoYDuYk4WMCtweI2wJDlq2lwXBeH6VRu6aUXk/PC4bcJ67VuQ7eHHrHeiGj5lRPZ/K9nrWIAZuLf6297e++/3Pqv4OzhNhE2Ah3dJBNqqr8Rrb9BaQAAOgNzSNRJCGZXsbPOMWuL9+vv/lnlqhQXw4eLzOSSObNgr5u9Omrpc8zJtzmRBw2w7UDcX6FP/3oHGU2bOkzncFtmPM+yCZdU+2dsRgN2LZjHohFD3RS/X90OEybax6mNrblwmtUjhjuA5o6yCbvOqP4mQqDqb5AaADCd6GzMbl2J1bAh9B8AA4eYfx57rLsTMhaD7JXwwXzTZX70oek8E28FZivUjX4cPKCKgbg/6DN2FJDWoIHDdA5W2dB/VeIZDSiLxVg46BQ3i/50OR5eei1xhTw/H/pblYoCoKGjbJKB6q+3Ald/g9YAgLkn9W/83qyjXj1T0Lr1MLONW7eBdh2gRQs44gjIzISGjczJVbDHFKOCPVBQAFu+hjVfwto1sG6t+af/+2j/FxgDJOFDulasGoCRuwtJzcx0mM7Bqhr6r05dRgPWT/4Lq268Pt70vpGSAn9/zptFf6pSUgK9rG6/lADJt4mDHdVfbwSy/gaxAQBogHk84gK/E0kSMzCrTO33O5EA2gdkxfvmM/fGPFsIqDZD/1WpzWhAKCf+VVRUBH2sJpQVA951b+Gl+utWYOtvUJcw24vplu4k2o+o2SrDbC5xCQE8+QLCalmvsmJvVu4s3r6NVT+7Nu73F+ZsYcm3x7D00osp3rGj0j8TihX/qlNQYBvBl3HgEFD9dSPw9TeoDQCY51QnYbpQB1UqcnZj1v3+JeZnKZWzagBKdnuzKM/Ka6+maKv9JOGcF6Yz/8Qeh60bEKoV/6qyJ982ghqAqqn+2glF/Q1yA1DuNWAgsMzvRELkI6AvZuhJqmd1c9DJN+hDbJnxPDkvuvvoDh0NCPxWv7VlPwLg+43hEFD9rbvQ1N8wNAAAq4B+wG+x/MaW5GLA74EhwFqfcwkLq6/ZxY6XCC3amsuqn17jNGa5nBems6BfH1b++Cp3W/3efk/iZv0fSrcAEkX1t3ZCV3/D0gCA2cryV5jZqat8ziWIVgCDgJsJ6P2mgLJqAPavd7vEafb1P6Fo21anMSvav2kjm/7+lJtgo8fCSae4iRWPrzfZRqj52Uopp/pbvVDW3zA1AOUWASdhJqhoCA8KMT+LkzA/G6kbq4vA3rVrXOVB3uJFTof+PdWoMfz8l/7mYP+z3+AijYhR/T1YqOtvGBsAMCfeJOB44B9Ed6bqv4EemJ9Fkc+5hJXVCMA+hw3Akf36c/LMWWR1CMHqtNfdAM1b+JvDOutR1sAsyBIyqr9G6OtvWBuAchuBy4DTgQU+55JIc4EBmBm6X/qcS9hZXcH3ZK90lQcAzc88m0EfL6fDlVeZe+xB5OfEv4rWWJ/6GgGwo/ob8vob9gag3HuY+y9nAP/xORcv/Qc4FxiK2UpS7GXbvDl/yceUlbidF5XeuDHdJz/Kya++EbzRgJQU+M2d/k38KxeLwVfrbKOEaI/aQFP9DalkaQDKvYPZYnEw8BLJMWM1BkzHzMIdAczyN52kY9UAxPbuZc/KFa5yOUggRwNGj03scr9VWbnCxXruS12kIv+j+hsyydYAlJsPjAWOwsxcDcUjGYf4EnNv6TjMghIf+ptO0voay/W58xZ792UgUKMBfq34V5lF1iPOuZjPXtxT/Q2JZG0Ayn2NeXb1OGAk8CjB/qXfDjyOGWLqgpldus7PhCJiuc2bt8+Z7SqPKgViNMCvFf8qs3C+bYRPXKQh1VL9DbiAjCsmVCpwKmat67OBXvjXCJUBHwNvAK9jHiOJ+ZRLlN2LeX43LumNGzN841ZPdwWsaPuc2ay4+ofs35jAOWyJ3uq3OsXFcGpf21sA9wK3OMpIak/1N0Ci2AAc6kjMPauhmIksPYGa91GNzw5gcYXXB2gxkiA4H5hpE+CU2e/QbNjpjtKpWcnu3ay+5RdsfOpxN0v6VsePrX6rs2AeXDHBNso44EUH2Ygd1V8fqQGoXCugO9AVOObAf7cC2hz4Z4MKf7YB5ueYh9kAYteBf8/FPGJW8fVVYtKXOmoKbMPim0jHH/2Ybg9OdpdRLSVkNMCPrX6r88sb4RWra3cM83tc+TaJ4jfV3wRRAyBifIr59hGXjGbNGLZ2M6n16jlMqXY8HQ1o2BBefzs49/737YUh/WCv1fD/IswwtEikJfskQJHasprJV7xjB1tfs7qLEDdPnxQI0sQ/gDmzbS/+AG+5SEUk7NQAiBgv2wbY9MyTLvKIm/MnBYKy4l9FL7/gIooaABHUAIiUmw9ssQmw7c1Z5C/zd22Z1EaNaHrfn2n49BRo0zb+QEFZ8a+iVStdPP63FXjfQTYioacGQMQoxfJJAICv/nK/g1TqbndhEat37OS99Rv5dOtW9pw6AF6dDeMuji/ghInBmfVf7m8PuZjjMI3kWKFOxJomAYp84yws5wKkZmYyZOUXnq/aV1ZWRl5REbkFe8kpKGBfdfsR/PddmHQLbKnlAMegIfDIU5CR4SRXJ778HEadA6WltpGGYjZzEYm8NL8TEAmQtcBEoEm8AcpiMYp37qTVqDHusgJipWXkFxWxpaCAtXl5ZG/fwYbd+ewqLKSkpotip84w7hLYuQNWZVf9LTotDS69DH73p2Bd/AHuvRs+s9q2AczmPzc6yEYkKWgEQORgvwbusoqQmkqDV96gcd8TqZ+eTlZaOlnpaWSlpZOelkpqSgqppJCelkppaRmlZWWUUUasrIzCWIyikhj7YyUUxmIUFBWTX1RU/Tf8ulj9GTw/BRYugE0bIS0V2rWHQUPhoovhuOPdHMelZUth/FgX3/7vAm5zkJFIUlADIHKw9pj1v+1mvw0cDE/900U+0RaLwSUXwopPbSMVAUcDm+2TEkkOmgQocrBNmHXB7SyYBzOtnyyU56e4uPgDzEAXf5GDaARA5HBDcPGoWNOmMHMONG9un1EUbd8G554B+btdRBuAWftdRA7QCIDI4eYC71pH2bkT7tYt57iUlpo1/91c/Oeji7/IYfQUgEjlNgGXWUf54nNo1Rp69LLPKEoenQzTp7qK9n3MEx4iUoFuAYhUbS5mq1I7mZkwZYaagNr6aDFMHG8mANr7LzDMRSCRZKMGQKRqw3BxKwCg41Ew7WUzL0CqlpsDF4+BHKtVmSsaCCx0FUwkmWgOgEjV3gOmO4m0YT38+Aewf5+TcEkpPx+u+r7Li/8r6OIvUiWNAIhUryOwCmjgJNrwEfDQo8HaZCcIiovhR5ebxyfd2Af0BNa4CiiSbDQJUKR6u4H6wGlOoq1bC5s2wekjIVUDcIC513/DtfDef1xGnYSDzZ1EkpkaAJGafQB8G3DzQP9n2aYRGHmmmoDCQrjxOpgzy2XUbMyeDk5mEYokKzUAIjUrBj4ELsfVvJnPV8Pq1XDGmZAe0dsB+fnwf1fA+++5jFqKadY09C9SAzUAIrWzEaiH2U7WjTVfwvy5cPoZ0OAIZ2FDYdtWuGICLFviOvK9wFOug4okI00CFKm9TGAR0Mdp1Lbt4OEnoGs3p2ED66PFZtjf3Wz/ch9gGrRi14FFkpFGAERqLwa8g1khMMtZ1D358PIMMwrQuy+kJGlfXlYG/3gGbvqpqyV+K9oDnANsdR1YJFmpARCpm+3ASuA7uBxBi8Vg7nuwaiUMHAL16zsLHQjbt8H1P4Ypz5p1/t0qA76Hiw2cRCJEDYBI3X2GufgPdx557RqYMQ0aHwnde4Z/NKC0FF59CX78Q1j9mVdHuR34m1fBRZJVyKuLiG9SgZeAUZ4dod+p8Js7ocvxnh3CU8uWwp2/gRWfenmUqcB3MaMAIlIHagBE4tcAeBMXGwZVJTUVzh8N1/zU7CcQBl9+Do89DP9+1Yvh/oo+AE7HrPonInWkBkDEThPMhkFunww4VHo6jB4Hl10Ox5/g6aHilr0CHpkMb832+sIP8CkwAtjm9YFEkpUaABF7bTAT0I5LyNEGDIJLL4NhIyAjIyGHrNK+vTDnTfMUw8L5Zqa/97Ix8y9yE3EwkWSlBkDEjc7AHBLVBICZKHjWOfCtUdCvf+I2GCouhg8XwSsvmiV89+5NzHGNzzEX/82JPKhIMlIDIOJOG2A20DvhR27YEPoPMI8Q9h8Axx7rriGIxSB7JXww33zL/+hD880/8VZgnvXf6MfBRZKNGgARt5oA/8bLiYG1Ua+eeXqgWw84qhO0bgPtOkCLFnDEEZCZCQ0bmYt7wR6zLn/BHigogC1fm2WK164xmxatXQP7fZ9n919gDLDT70RERESq0gB4FfNoml72r+m4XHlRRETEQ6nAHZjd6fy+gIb1VYrZ3CfieyaLiEgYfQszbO33xTRsrzzgojh+3iIiIoHRFViK/xfVsLw+BI6O6yctIiISMJnAPZitav2+wAb1VQLch+73i4hIEuqPWcjG74tt0F7LD/xsREREklZ9zATBvfh/4fX7tf/AzyLT6icqIiISIh2AZ4nukwIzgWOtf4oiIiIhNQyYj/8X5ES93gdOdfKTExERSQIjgHfw/wLt1esdzFK+IiIiUolBwIskxxMDJcDzwClOf0IiIiJJrC1wK7AG/y/kdX19AdyG2SVRRERE4pAKnAE8gtkG1++Le1WvbcBjwBC00ZiIiIhTqcBAzII5S4AY/l3wSzGr9t11IKc0D//eIuKYunSRcDsSs/XwUMzcgZ5AM4+OtQNYXOH1AZDj0bFExGNqAESSTyugO2YPgmMO/HcroM2Bfzao8GcbYOpAHrAb2HXg33Mxcw8qvr5KTPoiIiIiIiIiIiIiIiIiIiIiIiIiIiIiIiIiIiIiIiIiIiIiIiIiIiIiIiIiIiIiIiIiIiIiIiIiIiIiIiIiIiIiIv74fxcVJfl07uTCAAAAAElFTkSuQmCC;" vertex="1" parent="1">
          <mxGeometry x="265" y="60" width="110" height="110" as="geometry" />
        </mxCell>
        <mxCell id="Dj6f-7nEe7_ozWwD5Nd7-7" value="&lt;b style=&quot;background-color: initial; font-size: 11px;&quot;&gt;&lt;font style=&quot;font-size: 11px;&quot;&gt;Remaining co-changes after commit size filtering&lt;/font&gt;&lt;/b&gt;" style="text;html=1;align=center;verticalAlign=middle;whiteSpace=wrap;rounded=0;fontSize=11;" vertex="1" parent="1">
          <mxGeometry x="230" y="20" width="180" height="50" as="geometry" />
        </mxCell>
        <mxCell id="Dj6f-7nEe7_ozWwD5Nd7-8" value="" style="endArrow=classic;html=1;rounded=0;exitX=1;exitY=0.75;exitDx=0;exitDy=0;strokeWidth=2;" edge="1" parent="1" source="Dj6f-7nEe7_ozWwD5Nd7-6">
          <mxGeometry width="50" height="50" relative="1" as="geometry">
            <mxPoint x="315" y="230" as="sourcePoint" />
            <mxPoint x="415" y="143" as="targetPoint" />
          </mxGeometry>
        </mxCell>
        <mxCell id="Dj6f-7nEe7_ozWwD5Nd7-9" value="&lt;b style=&quot;background-color: initial; font-size: 11px;&quot;&gt;&lt;font style=&quot;font-size: 11px;&quot;&gt;&lt;u&gt;Logical dependencies&lt;/u&gt;&lt;/font&gt;&lt;/b&gt;" style="text;html=1;align=center;verticalAlign=middle;whiteSpace=wrap;rounded=0;fontSize=11;" vertex="1" parent="1">
          <mxGeometry x="410" y="120" width="85" height="50" as="geometry" />
        </mxCell>
        <mxCell id="Dj6f-7nEe7_ozWwD5Nd7-11" value="commit size filter" style="text;html=1;strokeColor=#d6b656;fillColor=#fff2cc;align=center;verticalAlign=middle;whiteSpace=wrap;overflow=hidden;" vertex="1" parent="1">
          <mxGeometry x="10" y="190" width="165" height="20" as="geometry" />
        </mxCell>
        <mxCell id="Dj6f-7nEe7_ozWwD5Nd7-12" value="strength filter" style="text;html=1;strokeColor=#d6b656;fillColor=#fff2cc;align=center;verticalAlign=middle;whiteSpace=wrap;overflow=hidden;" vertex="1" parent="1">
          <mxGeometry x="237.5" y="190" width="165" height="20" as="geometry" />
        </mxCell>
        <mxCell id="Dj6f-7nEe7_ozWwD5Nd7-15" value="" style="shape=image;verticalLabelPosition=bottom;labelBackgroundColor=default;verticalAlign=top;aspect=fixed;imageAspect=0;image=data:image/png,iVBORw0KGgoAAAANSUhEUgAAAgAAAAIACAYAAAD0eNT6AAAABHNCSVQICAgIfAhkiAAAAAlwSFlzAAAQ9AAAEPQBb05WrAAAABl0RVh0U29mdHdhcmUAd3d3Lmlua3NjYXBlLm9yZ5vuPBoAACAASURBVHic7N13mFTV/cfx953ZXfbQi1QFBUTBhoqFo1hiiSWaplhjP4kxGjVRE6MxPxM10WiKpmj02nuLXewFy7Ui2LBRFAFBetm77O7M/P64g0FkYcvcc+6d+b6eZx7UB+bzZYW93znVKxQKCCGEEC2ltOkADAaGFl8bF3/sC3QsvtQqP64AFgGLV3ktBD4GJhdfH4aBH1r9jVQ4TxoAIYQQa6O06QeMKb52AUYC2RLH5IHpwNvAs8AzYeC/W+IMsQppAIQQQnyN0iZD9KA/FNib6BO+C3OAZ4CngUfDwJ/tqI6yJA2AEEIIAJQ2o4ke+ocAAxyXs7oc8ARwPfBgGPgrHNeTetIACCFEBVPadAZOAE4Fhjgup6UWALcD14eB/6brYtJKGgAhhKhASpsNgJ8DJwLdHJfTHs8DfwgD/xnXhaSNNABCCFFBlDZDgN8TDfVXOy6nlF4kagSedF1IWkgDIIQQFaA41H8u8Augg+Ny4hQA54SB/5zrQpJOGgAhhChjShsPOAb4I9DfcTk23QicEQb+fNeFJJU0AEIIUaaUNiOIHoTbu67FkXlETcBNrgtJImkAhBCiDCltTgYuJTqJr9I9DZwYBv4U14UkiTQAQghRRpQ2fYHrgP1d15IwS4Bjw8C/z3UhSSENgBBClAmlzX5EQ/69XdeSYH8mWiSYc12Ia9IACCFEGVDanAL8ndKf0V+OngUOCwN/rutCXJIGQAghUqx4bv9fgNNd15IyM4HvhIE/yXUhrkgDIIQQKaW06QjcCnzfdS0ptQjYLwz8V1wX4oI0AEIIkUJKm+7A48AOrmtJuWXAd8PAf9Z1IbZlXBcghBCidYqn+o1DHv6l0Bl4VGnzHdeF2CYNgBBCpIjSRgEPAaNd11JGaoH7lDbfdV2ITTIFIIQQKaG0qQHuB/ZzXUuZqgN2CwP/DdeF2CAjAEIIkQLFM/1vQx7+ceoIPKS02dB1ITZIAyCEEOlwLnCQ6yIqQD/gEaVNN9eFxE2mAIQQIuGUNnsDjyEf2mx6Gtg3DPwm14XERf4wCSFEgiltNiAa+pfv13btCfzOdRFxkhEAIYRIKKVNNTCeNK7471hDoVdnyHowfzne0nrXFbVFDtg1DPyXXRcSB2kAhBAioZQ2lwC/cl1Hs2qryW23IYXh/Sj07ERhvc7Rj706QW31139uQw5vwTK8+cuLr2V4U74k8+o0vGUr3NTfMtOAkWHgL3VdSKlJAyCEEAmktNkaeB2ocl3Lqgo9OpLfcTC50UPIbzMIatp591AuT+bdWWSDKWSCqXhzE/mcvTEM/GNdF1Fq0gAIIUTCFC/4eQXY3nUtAFRnye23BbndNiE/oh94XmxRmalfknnhE6oenAR1DbHltMEPwsC/33URpSQNgBBCJIzS5lTgctd14EHuW8NpOkZT6NPFbvSSerK3v0bVw+9AU85qdjOmASPCwE/0fEVrSAMghBAJUlz1P5nojHpn8tsOoumEnckP6e2yDLw5S6i66RWyz34A7h9XvwkD/2LXRZSKNABCCJEgSps7gUNc5Rc27EXjT3Yhv+0gVyWskTd1HtVXjycz6XOXZSwFhoWBP8dlEaUi+0qFECIhlDZbAGNd5efGbMyKyw9N3MMfoDBkPRr+9AOaDtrWZRldgAtdFlBK0gAIIURy/BaIb4Vdczxo+tGONJ6zP3RI1KaDr/M8mswYGn+5N1S1c/dB2x2vtNnMVXgpSQMghBAJoLQZgYtP/7XVNJ6zP01H7uii9WiT3N4jaLjkhxS6KxfxGeAMF8GlJg2AEEIkw2+x/D250KcLDX85mNyYjW3GlkR+s/40XH4YhcHruYg/UmnT10VwKUkDIIQQjiltNgEOs5lZ6FpLwyU/dL7Kvz0KfbpEIwH9rV/c1wE4xXZoqUkDIIQQ7h2Pze/H2QyN5+xPoV/6b7wtdKml4fwDQdXYjj5JadPRdmgpSQMghBAOKW084HCbmY0n7UZ+5AY2I2NVGNSThl/vE+sJhWvQCzjKZmCpSQMghBBujQGs7bvLfWdLct/Z0lacNfkdB9N03E62Y6UBEEII0WZH2ArKj9yAxpN2sxVnXdPYUeT2GG4zcielzUCbgaUkDYAQQjiitKnG1tY/VU3jr/eFbHl/2288bQ8Kva3dW+ABh9oKK7Xy/pMghBDJ9m2iueTYNf1wWwo9Ur1mrWVqqmg6erTNRKu7N0pJGgAhhHDHyvB/oUdH10foWpXbcziFIdbOBxiltEnfQQpIAyCEEE4obToB37OR1XTkjqCqbUQlg+fReMIYm4n72wwrFWkAhBDCjZ2BTnGHFNbvTm7fzeOOSZz8toNsXmpktdsoFWkAhBDCjW1shDQdt3PZL/xrTtMJO9s6G0AaACGEEC22ddwBhT5dyO08NO6YxMoP6U1+iwE2ovorbVL3hZYGQAgh3Ii9AciPHhJ3ROJZ/BqkbhRAGgAhhLCseIb8JnHn5HZK3YfSksuNHmwryvoxhO0lDYAQQti3FTF//y107mBr+DvRCgO6UxjU00bUpjZCSkkaACGEsC/+4f8dB1fs4r/V5exMA6TuLAD50yGEEPbFvgMgr2X4f6W8ttIADFDa1NoIKhVpAIQQwr54N+Z7HrlR1vbAJ15+034UOneIO8YDUrXqUhoAIYSwr3ucb17o0RFqK+jkv3XxoNC3q42kVA27SAMghBD2dY7zzQu9Yj9gMH3sfE1SdTWwNABCCGFfvPfV9oq1v0ilgp2vSao6L2kAhBDCPhkBsMzS1yRVnZc0AEIIYZHSphqoiTOj0FMagNVZagBS9YWXBkAIIeyK/VOijAB8U6GnTAGsThoAIYSwK975f6DQTcUdkT52vibSAAghhGhW7B9FvSX1cUekz1IrX5O8jZBSkQZACCHsiv1J5C1YHndE6njzl9mIWWwjpFSkARBCCLu+iDvAmy8NwOosfU2kARBCCLFmYeDXAUtiDZEG4BssjYpIAyCEEGKtZsf55paGu1PFm2fla7LIRkipSAMghBD2xdwAyAjAN8gIwDdIAyCEEPbFug7AW1QHjbk4I1LHm7vURsw0GyGlIg2AEELYF+sIALk8mbdmxBqRJpkpX+ItDuOOKQAfxB1SStIACCGEffE2AEA2mBJ3RGpkgqk2YmaEgZ+quRdpAIQQwr7pcQdkXp0GhULcMalgqQF430ZIKUkDIIQQ9r0Yd4C3sI7M5NiPHEg8b+5SMlO/tBE12UZIKUkDIIQQloWBPxv4OO6czMsyDZB5xcqnf4D3bAWVSpXrApJOaTMA2AHoCXQvvrqt8s8r/10BnwFTgE+KP04BpqRtXkgIYcXzwLA4A7KvTKXJjIkzIvGy9hqA520FlYo0AKtR2nQHdgf2LL5GtOKXbwLstYb3/IKoGfgYeBR4OAz82JekCiES7XnAxBngzVxE5q0Z5LcZGGdMYnkzFpKZ9LmNqE/DwP/ERlApVXwDoLRRwBhgD6IH/ihKPzXSr/jaGTgWWKa0uR+4HXgyDPzGEucJIZLPyifGquteouGKw8CzkZYs1de/BHkrCyGfshFSal6hQleJKm36Ab8EfoqF+7nXYj5wL1EzMD4M/FRdJymEaDulzRRgSNw5jWfvS263TeKOSZTMe7OoOfMeW3GHhYF/p62wUqm4RYBKm8FKm38Tndh0Fm4f/gC9gJ8AzwIzlDZ/Udr0d1yTEMIOO6MANwTQVFmfLaqufclWVAF4xlZYKVVMA6C02VxpczPwEXASUOu4pDUZQDQq8aHS5kylTbXrgoQQsXrWRoj3xWKyj75jIyoRsi9+QmZy7GctrfRGGPhW9hmWWtk3AEqb7Yvz7e8APyId6x66AJcCbytt9nZdjBAiNv8FrBxSX3XbaxA22IhyK5en6oaXbSbeZDOslMq2AVDaVCltLgFeBb5HOpfADAeeUNrcq7TZ0HUxQojSKm4RvtVGlrc4pPryVI5Ut0q1/yLeTGu38jYSrd9KpbJsAJQ2g4DxwK9I54N/dT8EJittfqe0SeLUhRCi7a62FZR9/iOq7njdVpx12cffI3v/RJuRD4eBP99mYCmVXQOgtPkeMBHQrmspMQX8HnhfaVNuvzchKlYY+G8B1p7KVTcFts7Gtyrz3iyq//mc7dgbbQeWUtk0AEqbGqXN34H7gR6u64nRYOBppc0BrgsRQpTMf6wlFaDm0sfxpqf2g+s3eHOXUn3hI9CUsxk7j+hgt9QqiwZAaTMUeBk4zXUtlijgPqXNsa4LEUKUxB3AEmtpYSM15z+Et6QMDiStb6Tm9w/hLbL+e/lP2g9xS30DoLTZE5hAdIJfJakCrlfa/Mp1IUKI9rG5GHAlb84Sqn9zP96XVjYhxMJbUk/N7x7EmzrPdvQy4K+2Q0st1Q2A0mYU0ZB/V9e1OHRJ8fCgcljsKEQl+zdg9bSezNQvqTntTjLvW9szXzLeZwui2t+Z6SL+n2HgL3ARXEqpbQCUNsOAcUBn17UkwC+Bm5Q2aTjjQAixBmHgvwtcazvXW1hHza//S/bJ9Fxnn3ltOh1+cRfeF4tdxC8H/uIiuNRS2QAUj8p9HOjtupYE+RHwoGwTFCLVzgWsbWL/SlOO6r8+SdU1L9i6PKfNqu6dQM35D0Gds0ON/h0GvvU5hzikrgFQ2nQDHiNaDS++bj/KpDMVohIVj5Q931V+1X/foubc+/E+S97otvflUqr/NI4q/0Vwd4ndEuAyV+GllqrbAIufbh8HdnVdS8IdHAb+va6LEEK0XnEqbxKwmbMiMh65vTej6agdKfRyO8vqLa0ne+cbVD00CRqsbvNbk1PCwP+X6yJKJTUNgNImC9wDfN91LSmwCNgmDPzprgsRQrSe0mYv4EnXdVBTRdP3RpI7dDsKnTrYzW5oouqBSWTvfANv+Qq72Wv2KrBTOV3ZnqYG4GLg167rSJFXgF3CwG9yXYgQovWUNv8FfuC6DoBCl1pyP9yG3O6bUOjXLdYsb/5yMi99QtVdb+LNXxZrVis0AaPCwH/bdSGllIoGQGkzgmhITK7HbZ0/h4EvTZMQKaS0GQy8T8KuLi9s1IvcTkPJ6yHkN+5Tkvf0PltANphKJphC5qM5kLzH0iVh4J/tuohSS0sD8CSwl+s6UqgA7B8G/mOuCxFCtJ7S5sdYvCyotQp9upAfPYT88H4Uenai0Ct6oWrW/AtWNOHNX4a3YDnevOV4U+aSDabavL2vLT4GRoaBXwbHJn5d4hsApc1BRHP/om2+JPrDm76TPoQQKG2uBn7suo5WUdUUenWOmoGMhzd/eTScv9zZ1r22qgNGh4H/jutC4pDog2OUNooyOG7Rsd7A34FDXRcihGiTU4CtgB1dF9JiYSPe5wvxPl/oupL2OrFcH/6Q/HMAfgMMcl3EmnSuzTOsXyO7DK9nu6ErWL9nE1XZxI6mHKy02dR1EUKI1gsDvwE4CJjjupYK8+8w8G9xXUScEjsFoLQZArxHAhbA1FYX2H3zkO+OWs5Om9bTv0eOLrXf3AmSL8C8JVmmzq3m8UkdefCNjkye2cxcmH03hIF/nOsihBBto7TZBXgaWQxtw6vArsXmq2wluQF4EDjQZQ17bRly/LeWsNeWIZ3X8MBviSlzqnnwjU788/FuzF6YLXGFrdIIDAsD/1OXRQgh2k5pcwrwD9d1lLlpRFuondwyZFMiGwDXh2BsM3gFFx66gG9tXrpFn3UNHv8Y142/PdKdJaGzmZd/hYF/iqtwIUT7KW3uAsa6rqNMzSR6+E9zXYgNSW0A7gQOsZ3bt1uOS46cz9jRy/Biulx33tIsF9zbg2uednKDcT2wURj4MpcoRAopbboAE4EhrmspQ3OB3cLA/8B1IbYkbhGg0qYzDob+t95oBS/+YSaH6Pge/gDrdclx+bHzuP6kudRWW2++aoEzbIcKIUrmCuThH4eFwLcr6eEPCWwAiM76VzYDf7jDcp46bxbr97R3au6hOy3jiXNn0a+79cstfqq06WE7VAjRPkqbscCxrusoQ/OAfcLAn+S6ENuS2AAcYTPs9P0Xc/Mpc+hYY38qZLuhK3jpD58zrF+jzdguwAk2A4UQ7aO02QD4j+s6ytAngA4D/3XXhbiQqAZAabMesLetvO9vv5yLDpsf65D/uvTvkeOeM76gW0erF0x922aYEKLtlDYecCMgI3el9TLRw/8T14W4kqgGgGhlq5XTCbfasIFrTpzr9OG/0rB+jdx8yhyy9v5v7Ky0ScwBBUKItToD2MN1EWXmbmDPMPDnuS7EpaQ1AFaG/3t3zXH3L76gU4fk7IDYa8uQi4+YbyuuIzDaVpgQom2UNlsDF7muo4w0Ab8FDg0Dv951Ma4lpgFQ2gwCdraRdeFhCxjYy96Cv5Y6eZ/FbD90ha04+UQhRIIV70K5DZDRutL4GNgpDPyLwsBPzqc/hxLTABDt+499QH6zDRo4cszSuGPa7I+HWxsFkAZAiGS7FBjhuogycQ2wTaUu9mtOkhqArW2EXHTYAjIJmPdvzs6b1rP/NnU2onZU2nS0ESSEaB2lzf7Aya7rKAMzgO+Hgf+TMPCXuy4maZLUAMR+uMUuw+vZZ6SVh2u7XHDoAhuLE2uAMbGnCCFaRWnTB7jedR0ptww4D9g0DPwHXBeTVFZW3LdQ7A3A0bsld+h/VSPWb2CHofW8+knsFyHuATwRd4gQolWuA/q4LiKl8kRbJs8NA3+262KSLhENgNKmE9A3zoxsBvbfOj0jQAduV2ejARgVd4AQouWUNj8DvuO6jhTKAfcBF4WBP9F1MWmRlCmA2D/977xpSI/OVg/baZcDtrXSrMjBIkIkhNJmBHCZg+g0r4hfTnQ98rAw8MfKw791EjECAAyNO+DAUcmf+1/VJv0b2XRAIx/Oqo4zplucby6EaJniwVy3YvkeFKCBaPt1b6J7Br4HdLBcQ1tMBXzgqjDwF7ouJq2S0gDEPgIwelj6znwYPaw+7gage5xvLoRosQuAbRzknhsG/hvFfx6ntOkOHEbUDOzooJ61mQHcBdwp2/lKIykNQOwjAP17WL91r936d4/9sCIZARDCMaXNt4AzHUQ/A/xl1f8QBv4i4CrgKqXNRsBexdceRKMENuWAt4DxwH+Bl+UAn9JKSgMQ6whAxoM+XVPYAMTftFQrbTqGgZ+u+REhykTxau6bsL8eayFwzNoeqGHgTycaZveLFxKNBPYkOkZ8BDCM0p5SOA94G3gReAF4JQz8ZSV8f7GapDQAsS537901R1U2fY2jpVGL7oA0AEK4cRWwgYPcE8PA/7ylP7nYKEwsvgBQ2lQRjd6OKL76EX0/6bbKqyvROoPlq70WAdOIruOdAkwJA39xu39XolWS0gAsivPN+3ZP36d/gL7drNxX0B2YZSNICPE/SptjiI5At+3GMPDvbu+bhIHfBHxYfN3f7qqEdUnZBhhr57c0TPDZv2uxtN7K/x5ZByCEZUqbIUTb12ybCvzcQa5IoKQ0ALGOAMxakJSBjtaZvdBK3WnY8iNE2VDaZIFbgC6Wo3PAj8LAT8eRqCJ2FdEArGjymL80G2dELGYvtFLzZzZChBBf+S2gHeReGAZ+4CBXJFRSGoDYF3/MsvMwLanZi2KvuQlpAISwRmkzmqgBsO0V4EIHuSLBktIAxDoCAPDxF7EeqBOLT+Kv+dPiQh4hRMyUNp2Jhv5tz0kuIxr6l7/r4msqpgEY91bHuCNKavkKjxcmx34q6NS4A4QQX/kHFg49W4NTw8Cf4iBXJFzFNACPTuxEUy49uwGeeqcj9Y2x1yvfFISwQGlzMNHxurbdEwb+9Q5yRQokpQGI/UG0cFmGlz6M/Xrdknn4TSsjFjICIETMlDbrA/9xED0TONFBrkiJRDQAYeB/RnQiVKweeKNT3BEl0dDk8ehEK7XKCIAQMSoeoXsT0NNydIHoqN8FlnNFiiSiASh6Ju6AG5/vwiw7e+vb5T9PdWXhMiv/a2QEQIh4nUF0kY5tfw0D/2kHuSJFktQAxP6HNWzwuPDeHnHHtMuSugyXPGDllt48MgIgRGyUNlsDFzmIngSc4yBXpEySGoBniIatYnXzC12YPLOUF1iV1mUPd2fBMitnFjwnJ4IJEQ+ljQJupbS35bVEPXBEGPgNlnNFCiWmAQgDf+VVkLHK5eHs23pSSODlgNPmVvOvx60dzX+7rSAhKtClwGYOcs8KA/99B7kihRLTABRZmbN68u2O/PH+ZE0FLKvPcMjf+xI2WNmq2ADcayNIiEqjtNkfONlB9Lgw8P/pIFekVEU2AAB/vK8H972WjF0BhQIcf2Vv3pthbbTw8TDwF9oKE6JSKG36ANc5iP4SOM5BrkixpDUA44FGG0GFAvz4P32Y9Kn7y/DOv7snD0+w2ozI8L8Q8bgW6Osg94Qw8Oc4yBUplqgGIAz8ZVgcmq5r8Djgkn68+IGbA4LyBfjtHT259CErq/5XqgMetBkoRCVQ2pwEHOAg+j9h4D/kIFekXKIagKI/2QybvzTLAZf058bn7V7NvbQ+w9i/9eOvj1h9+AM8GAb+ctuhQpQzpc1w4C8Ooj8EfukgV5SBxDUAYeC/DTxiM7OhyeMkvzdn39aLRgv3BXzyRTW7nz/A1QVFd7gIFaJcKW1qiLb8xX5712oagSPDwK+znCvKROIagKI/ugi9Ylw3tv7VBtwVdI5lm+C8pVnOvLkX2/1mA1dnEawAnnQRLEQZuwDY1kHu78LAf9NBrigTXiGJG+IBpc1zwG6u8kduuIILDl3AXluG7X6vpfUZ/jGuG5c/2o2l9c57rueAw2TBkBDtp7TZnWj3ku2/2M8De4SBn7ecK8pIkhuAbwOPu65j/Z5NHLBtHQeMWs6uI+qpzrbs6zV3cZZH3+rIg2924rn3lI2rfVtjFnBIGPgvuS5EiLRS2vQgOnZ3oOXoRcDI4iVqQrRZYhsAAKXNG8Ao13Ws1LVjnh2GrmD9nk30656jf/fox/pGj9kLs8xeVMXshVmmzq3mrWkdyCf3SwvR/OFZYeBf7roQIdJIaXMncIiD6CPCwJetvKLdkt4AHATc47qOMncHYGRngBAtp7Q5GrjRQfQtYeAf5SBXlCHnE9LrcB/R4UAiPocBryltNnVdiBBpoLQZDLg4cnc6bo4YFmUq0Q1AcYHLEcB817WUuc2A15U2B7suRIgkU9pkgVsAuweHQA44Kgz8JZZzRRlLdAMAEAb+TOAYLFwVXOG6AHcrbS5T2lS5LkaIhDoX2MlB7sVh4L/oIFeUscQ3AABh4D8C/M11HRXiDOBppU0/14UIkSRKmx2B8xxEvw6c7yBXlLlUNABFZxP9RRDx2xWYoLTZxXUhQiSB0qYz0Wl/tkfHlhOd9tdkOVdUgNQ0AGHgNxItWJM5MDv6A88obX7huhAhEuAKYKiD3NPDwP/YQa6oAIneBrgmSptDgDtd11Fh7gaOL97WKERFcbgd+f4w8H/gIFdUiNSMAKwUBv5dRN24sGcs0S6BEa4LEcImpc36wNUOomcDxkGuqCCpawAAwsA/DbjYdR0VZjjReQEuTj4TwjqljUd02E9Py9EF4Ngw8GX7s4hVKhsAgDDwfwOchmwPtKkzcKfS5m+yVVBUgF8CezrIvSIM/Ccc5IoKk7o1AKtT2hxG1KU7uV+3gr1IdKHQbNeFCFFqSpuRwGvY/77yLrBdGPgrLOeKCpT6BgBAabMX8F/sn85V6b4ADg0DX45rFmVDaVMLvEl0QqZNK4Dtw8B/x3KuqFCpnQJYVRj4TwHfAua6rqXC9CM6NOgM14UIUUKXYv/hD3C2PPyFTWUxArCS0mZj4DHc7NetdPcCx4WBv9R1IUK0ldJmP+BRB9FPAvuEgV8+35BF4pVVAwCgtOkEnEN0pG0Hx+WU2hfAHGCk60Ka8SFwUBj477kuRIjWUtr0Bt4B+lqOng9sKetphG1lMQWwqjDwl4eBfy6wBW46+TjkiM4+2BTYEfDdltOsTYFXiwszhUiba7H/8Af4sTz8hQtlNwKwOqXNAcDfSe+0QAD8LAz8iav+R6XNccC/gVonVa3bFcCZxSOchUg0pc1PgSsdRPth4P/YQa4Q5TcCsLow8B8GNie6xavOcTmt8SXRSWA7r/7wBwgD/3qia0mn2S6shU4FnlPaDHBdiBBro7QZDvzFQfTHwOkOcoUAKmAEYFVKm0HAn4GDgazjcprzPtGIxc1h4Nev6ycrbXoANwPfibuwNppLtFXwOdeFCLE6pU018AqwreXoJqLm/jXLuUJ8paIagJWK53sfCxxHcqYGngD+Bjze2pXAxSNLf0t0Z3gSR3VywDlh4P/ZdSFCrEppczHwawfR54WBf6GDXCG+UpENwErFB+duwAnAQYCyXMLbRAsVbynFynmlzbeB24Be7X2vmNxHdMa5XOksnFPa7A48jf2m+SVgtzDwc5Zzhfiaim4AVqW06QyMAXYtvran9MeALgOeInrojwsD//MSv//KaY57iOpPoo+BH4aB/67rQkTlUtp0J2rAB1qOXgKMDAN/uuVcIb5BGoBmFI8DHU3UFAwF1l/l1W0dv3wp8BHwAdHe+JWvyWHgN8RV80pKmw7A5cCJcWe1UR3wkzDwb3VdiKhMSps7gEMdRB8VBv4tDnKF+AZpANqgOFowAKgGGojO8P7qxzDwlzss7ytKm2OItjbZntpoqX8Bv5CtgsImpc1RwE0Oou8IA/9wB7lCrJE0AGWueKvZvSRnsePqXgHGxjEdIsTqlDaDgYlAV8vRM4CtwsBfZDlXiGYlccW4KKEw8CcB2wEPua6lGaOBCUqbPVwXIsqb0iYL3IL9h3+eaOhfHv4iUaQBqADFbzzfA84l+maUNL2BJ5Q2Zxd3ZggRh3OIDs+y7dIw8J93kCvEWskUQIVR2uwF3A6s57qWZjwAHBMG/mLXhYjyobTZEXgRqLIcPQEYLetcRBJJA1CBlDYDgbuJLhZKok+IbhV823UhIv2KFOlT8QAAIABJREFUi3YnYn8dTB0wKgz8DyznCtEiMgVQgcLAn0F01sG/XdfSjI2BoLhaW4j2uhw3i2DPkIe/SDIZAahwSpsfAf8BOrqupRlXAqfbOD9BlB+lzUFEB2PZ9lAY+N91kCtEi8kIQIUrHkoymmjYPYlOAl4oTlsI0WLFOz+udhA9h+h4cSESTRoAQRj47xBtFXzAdS3N2IFoq+BergsR6VDcTXIj0NNB/HFh4H/pIFeIVpEGQABQXHX/A+A3RLf3Jc16wONKm3Nlq6BogV8CezrI/WcY+OMc5ArRarIGQHxD8VCe24E+rmtpxkPA0XKwiliT4umXr1H6y7zW5X1guzDwQ8u5QrSJNABijYrzp3cD2nUtzZhCtFVwkutCRHIUL/F6A9jccnQDsGMY+BMt5wrRZtIAiGYpbaqBvwKnuK6lGSFwUhj4N7ouJO2KN0h2AmqJLo9a+aoF6oluuFz5WhYGfhJPlERpcwXwcwfRZ4WBf5mDXCHaTBoAsU5KmyOIVlN3cl1LM/4DnBYG/grXhSSV0qYK2Izok/Gg4mvgKv/co5VvWQfMAqYSjcZMXeWfPw4Dv640lbec0mY/4FHbucAzwF5h4Ms3U5Eq0gCIFlHabEF0q+AmrmtpxuvAwWHgf+a6ENeKl95sAYxa5TWS6NO8DU3Au0Q3Pb4CvAp8GOcDUmnTG3gH6BtXRjMWAluGgT/Tcq4Q7SYNgGgxpU1X4Hrgh65racZ84Igw8J9wXYhtSpu+wL7AfsC3af0n+rgtAl4iWsD5UBj4s0r55kqbB4EDS/meLTQ2DHwXBw0J0W7SAIhWU9qcBfwJyLquZQ3ywPnAheU+JKu02Ro4mOihvw2Qlu2RBeBNonMnHmzvnQ9Km58SnRhp2w1h4B/nIFeIkpAGQLSJ0mZ34A7sD7m21CNEd7AvdF1IKSlt+gBHAscCW7mtpmSmAD5wXRj4c1vzC5U2mxLduGf7KOupwNZh4C+1nCtEyUgDINpMaTMAuAvY2XUtzZhGtFXwLdeFtEdxAd/3iB76+2L/SltbGoD/AleFgf/8un5ycZfKK8C2cRe2mhywSxj4geVcIUpKGgDRLsVvwpcCp7mupRn1wMlh4F/nupDWKu5pPx44C9jIbTXWfQD8C/DDwK9f009Q2lwM/NpqVZHfh4F/voNcIUpKGgBREkqbQ4FrSe5WQR84JQ1bBZU2XYguQfolyZ1isWU2cDFw9aqNgNJmN6Ltd7aPM38FGBMGfhKPyxaiVaQBECWjtNmMaKvgcNe1NONNoq2C010XsiZKm85En/ZPBbo7LidpZlFsBIgOKHqb6BwDm5YSzftPtZwrRCykARAlVfz0eh3R6vQkWgAcGQb+Y64LWal4udHRRDsr+jsuJ+lmAtNxs+7kuDDwb3CQK0QspAEQsVDa/BK4hGQuWMsDfwAucH2krdJmJ+ByouuYRXLdEwb+WNdFCFFK0gCI2ChtdgXuBPq5rqUZ44AfhYG/wHaw0qY/0T0Lh9nOFq02E9jKxZ8TIeJkewGNqCBh4I8n2qL1gutamrEf8KbSZpTNUKXNQUTH1srDP/kKRFdPy8NflB0ZARCxK+5j/zPwC9e1NGMF0Q4BP86Q4vqIK4j284t0uCwM/LNcFyFEHKQBENYobcYSLRDs7LqWZlxHdGbAGvedt0dxrv8WYHCp31vEZhKwQxj4Da4LESIO0gAIq5Q2w4lOexvhupZmvEV0euC0Ur2h0ua3RPcTJPHuBLFm9cCoMPDfd12IEHGRBkBYV9zvfi1wiOtamrGQaHFgu+6WV9oo4AaS+/sUzft5GPj/dF2EEHGSBkA4o7Q5negY4SRuFSwAFwLnt2WroNJmfaLb7qwuMBQlMS4M/P1dFyFE3GQXgHAmDPy/A98iOu41aTzgPOBRpU2v1vxCpc32wOvIwz+NvgTkil9REaQBEE6Fgf8i0V3267z9zZF9gAlKmxYd1FPc4jceOdEvrU4IA3+O6yKEsEEaAOFc8RvuXsBlrmtpxiDgRaXNT9b2k5Q2hxMdfFRrpSpRaleFgf+Q6yKEsEXWAIhEKX6Cvh7o4rqWZtwA/CwM/HDV/6i0OYqoblnpn04fAtuGgV/nuhAhbJEGQCSO0mZTolsFN3ddSzMmEm0VnAqgtDkeuAYZUUurRmB0GPgTXBcihE3SAIhEUtp0InqoHu66lmYsAo4CBgBXES0aFOn0mzDwL3ZdhBC2SQMgEk1p83PgL0C161rWYOVfnnQ+/KurKXTpTqFrDwpduxV/7B69unSHfA6vPoSwDq++DupDvFX/ub4Owjoy8+dCY2oPy3ud6NO/01shhXBBGgCReMVjdO8C1nddS2plq8hvuDG5YZtT6DMgeuCrTqV570Ieb94cMrM+IzN7BplZn+Et+LI07x2/ENg1DPw3XBcihG3SAIhUUNr0Ae4gOjdAtER1DbnBm5DfZAtyQ4ZDTQdr0d7CeWQ/epfMh++QmTvLWm4bzSI683+m60KEsEkaAJEaSpsscBHwa9e1JFaHWnJDR0QP/Y2GQZX7mRNv0XyyH75DdtKreEsWuS6nOROAXWQXgKgk0gCI1FHafB+4EejqupakyPcfSJPeg/xGwyCT0J2IhTzZj94l+8ZLZGZ/5rqaNbkXGBsGvnxTFBVBGgCRSkqbYUTfsLd0XYtLhW49aNplX3LDtyRNaxEzsz6j6rXnyXySuMv2LgoD/7euixDCBmkARGopbToCVwNHuq7FtkJtR3Kjv0XTNhqyCf3E3wKZz6dR9ezDZOYkap3A/mHgj3NdhBBxkwZApJ7S5mTgr0CN61pil62iaRtNbvS3KNQq19WUSIHsuxOoeuFxvOVLXRcD0eVUW4aBP991IULESRoAURaUNqOBu4ENXNcSD4/c8K1o2mUfCt16uC4mHo0NVL/wONkJL7uuBOCeMPDHui5CiDhJAyDKhtKmN3A7sKfrWkqp0LU7jQccRn7Ahq5LsSIz9QOqH7sHr26561KOCgP/FtdFCBEXaQBEWSluFbwAOJs0rYprRn7wpjTufwgF1dF1KVZ5y5dSPe5uMtM/dlnGYqKpgBkuixAiLtIAiLKktPkucBPQzXUtbeJlaBqzF0077k4Z9DFtVKDq1eepeuEJ/nfqsnVPh4G/l6twIeIkDYAoW0qbocB/ga1c19IqNR1o+N6PyG+4setKEiH7wdtUj7sbck2uShgbBv49rsKFiIs0AKKsKW0U0W19R7uupSUKqiONBx1Hvl+ZrmVso8zM6VTfd3N0AZF904ARYeCvcBEuRFzk/nJR1sLAD8PAPwY4CUj0lXWFzl1pOOxEefivQX79jWg44qeudkAMBk53ESxEnGQEQFQMpc0ORFsFB7muZXWFbj1pOMSU7xa/EvGWLKLmtivxli2xHb0UGBYG/hzbwULERUYARMUIA/81YBTwpOtaVlXo2JmGscfLw78FCl270zD2BBe7IroQ7S4RomxIAyAqShj484B9gQtxuLT8K9XVNP7gaArde7muJDUKvfrQ+MNjodr6wY8nKG02tx0qRFykARAVJwz8fBj45wHfBdzdT+tlaDjgcPL9BzorIa3y/QfS8P2jIGP1W1gGONNmoBBxkgZAVKww8B8mmhKY6CK/cc8DyQ8d4SK6LOQ33JimXfaxHXuE0maA7VAh4iANgKhoYeBPBTTwrs3c3PCR5LYebTOyLDVtv4vtJqoGONVmoBBxkQZAiOib+lBbYYWu3Wnc+/u24sqcFx2VbHcB5YlKm842A4WIgzQAQsBBgJ27dT2Pxv0PhQ61VuIqQaFDLY3fPdLmeoDugLEVJkRcpAEQAo6yFdS04+7kN9jIVlzFyPddn9zIHW1Gnq60ke+fItXkD7CoaEqbDYDdbGQVevamaaeyuqk4UZr0nlDTwVbchlj6cyNEXKQBEJXuSCz9PWjc/TuQydqIqkiFjp2Ktydac6TNMCFKTRoAUemsDP/nN9qE/JBNbURVtKZRO1PoYu0G6IOUNtaGHIQoNWkARMVS2mwNxH+yWyZD47e+E3uMAKqqaRrzbVtp3YH9bIUJUWrSAIhKZuXTf26rHSj06mMjSgC5zbch38faWT0yDSBSSxoAUZGUNlngiNiDMhmadpC1YnZ5NO2+v62wA5Q2XW2FCVFK0gCISrUX0C/ukNwmW1Do2j3uGLGa/KChttZc1AJ72wgSotSkARCV6kc2QnKjxtiIEWvQaO+egD1sBQlRStIAiEoV++Kt/IAN5aY/hwq9+9taeyENgEilKtcFCGGb0mYg0CvunNyoneKOEOuQG7YFVfOfiTtmuNKmfxj4s+MOqhRKm1qiw5aGAINXefUD6oG6dbw+BF4OA3+59eJTRBoAUYm2iT2huoacXPXrXH6TzeGV2BsAiEYBbrURVI6UNgrYlWg9xd7AloDXzrdtUtpMAMYDLwAvhoG/oJ3vWVakARCVaOu4A3KDN4Gq6rhjxDrk+wyg0K0H3uKFcUdJA9BKSpshwCFED/ydgVIfqlQF7FB8nQkUlDbvEjUE44FxYeAvLXFmqkgDICpR7CMA+U22jDtCtFBu2BZUvfFC3DGy17MFittvvwOcBOxD+z/lt4ZHNLKwJXAysEhp82/gijDw51isIzFkEaCoRPGOAFRVkRs6PNYI0XL5TeI/7BEYorTpZCMojZQ2/ZQ2vwWmAQ8A+2L34b8m3YFzgOlKmyuVNkMd12OdNACioihtugMbxZmRH7QxVNfEGSFaIT9gEIVOXeKO8QDp+lajtOmstPkTMB24AEjitpha4KfAR0qbu5Q2o1wXZIs0AKLSxD7/n19/w7gjRKt45IdZGQXYzEZIGihtPKXNMcBHwNmUfn4/DhlgLPCG0uYppU3Zb+ORBkBUmvjn/wdIA5A0uU22sBEj2z4Apc1o4BXgBqC/22rabE9gvNLm98V1C2VJGgBRaeIdAchkyPfbINYI0Xr5AYNsxFT0CIDSpkppcxnwMtHK+7TLAr8DnlfalGVXLw2AqDSxjgDke/eHatn+lzhV1RQ6do47pWIbAKXNAOA54AzcL+4rtZ2BiUqbsa4LKTVpAETFUNp0IOZh2kLf9eN8e9EOFi5lGqy0KbeH3zopbfYE3iJ6UJar7sBdSptrlDYdXRdTKtIAiErSm5jPvrDwKVO0UaFbj7gjqoBucYckRXGh33nAE4CVSxcSwABvKm1Gui6kFKQBEJWkNvYEpWKPEG1j6VrmnjZCXCuOdPwb+AOV9xwZDrxcDrsEKu1/nKhssTcAhdqyGR0sO4WusY8AgIVLplwrPvyvIto7X6k6Ao+kfSRAGgBRSaQBqGDSALRf8eF/NfAT17UkQHfgcaXNMNeFtJU0AKKSyBRABbOwBgDKuAEoPvyvIZoHF5G+wJNKm1Tu/ZUGQFQSGQGoYJbWAJRtAwBcCpzguogE2pCoCVjPdSGtJbcBikoS/wiANADJVdOBQm1HvPq6OFP+WNwv/iYwofjjB2Hg5+IMjZvS5mCiPf5izYYTTQd8Kwz8Ja6LaSlpAEQlsTACIFMAiZaJfZt+J2BM8bVSndJmIv9rCN4E3k9LU6C02QS4znUdKbAt8JDSZs8w8JtcF9MS0gCIShJvA1DTATIyq5ZkXn3oIrYjsFPxtVKotJnE15uC95L24CgeenMvEPt1imViV+BM4GLXhbSENACiksTaABTkCuBka1gB+bzrKlZSwOjia6UVSpu3+V9D8Cbwbhj4jQ7qW+lqwMpNSmXkd0qbu8PAn+K6kHWRBkBUklgbAK9uefSAkVGARPLCWOf+S6EDsH3xtVKD0uYdvt4UvBMGfkPcxShtDgWOjDunDCngSuDbrgtZF2kARCWJdwqgkMdbutjWdjPRSjEv/otLDTCq+FqpUWnzLv9rCCYAb4eBX1+q0OLQ/6Wler8KtLfS5kdh4N/iupC1kQZAVJJFcQd4SxZKA5BU6WwA1qSa6FbLbfjfnvwmpc17fH33waQw8Nu66OFsYGB7C61wf1XajAsDf77rQpojDYCoJNPjDvCWxN5jiDbyQicLAG2pAkYWX8cX/1tOafM+X28KJoaBv9ZOSGmzEXBWfKW2TcaD3l1z9O/RRL/uObrU5pmzOMvshVXMXpRlWX3ipt56A5cBx7kupDnSAIhKMj3uAG/JwrgjRFuVzwhAS2WBLYuvY4v/Lae0+YCv7z6YGAb+slV+3WXYODNjHbIZ0JvUc+Co5ey3dR2D+zSSXcszfml9hlc/7sCDb3Tikbc6MXth1l6xzTtWaXNTGPjPui5kTbxCoeC6BiGsUNrUACExnoCZ22IUjfseHNfbi3aoeuUZql580nUZSZQHPiJqBmYCv3JZzNC+jZxx4CIO3LaOXl3adlRCoQBvTu3AjeO7cOPzXWjKxX7+w9pMBjYPAz9xD1sZARAVIwz8BqXNbGD9uDJkCiDBynsKoD0yRCfZDXdZxHpdcpzzg4WcsMdSqrPte1Z6Hmw3dAXbDV3Bqfst5nd39uSBNzqVqNJWGwHsAox3VUBzEjdpIkTMpsf55t5imQJIqszCea5LEGvgeXDGAYt4768z+OneS9r98F/dsH6N3H7aHJ79v1lstkHsuyebk8h1ANIAiEozPc4395YujsYfRcIU8GZ95roIsZpOHQrcfuocLjh0AV1q4z2kaceN63nu/2ZxwLbLY81pxlilTWcXwWsjDYCoNNNjffd8Dm9RYnf9VCxvwby0ngNQtgat18Sz/zeT725n74HcuTbPnafP4awDrU/VdQLG2g5dF2kARKWZHndA9pPJcUeIVsrM/NR1CWIVmw5o5MU/zGSLgfaH5D0Pfn/IAv59wpe2oxM3DSANgKg00+MOyHz8btwRopUys6QBSIpuHfPc/YsvWK+NK/xL5djdl3Km3ZGAXZQ2G9sMXBdpAESlmR53QGbWDLxlqbkSvAIUyEz/2HURgmhv/82nzGHjfi7vN/qf88cusL0m4FibYesiDYCoNJ8BMV+5WiDz8XvxRogWy8z+PFqcKZy74ND57LVlcrZjZjy47qQvbe4OOFppk5jnbmIKEcKG4i1qQdw5WWkAEiPzkUzJJMEWAxs4db/kNWKda/P89WhrC3cHAtvaClsXaQBEJXo07oDMjGlpuH62ImSlAUiEiw5bQMbpgXzN23VEyLdHWvv7urmtoHWRBkBUonGxJxTyZD55P/YYsXaZubPwFi9wXUbF232zkL23SnZDfOGh1hqUzayktIA0AKLihIE/iejM81jJNIB72UmvuS5BABccmvwmbIuBDRyil637J7afNABCOPZY3AGZTz+BhhVxx4hmeGEd2fcnuC6j4m06oJFRQ9Lx9+CIMUttxEgDIIRjsa8DINdE1YSXYo8Ra5Z9+1VoTMZ2s0p24CgnR++2ya4j6umq4j2SGNhIaaPiDmkJaQBEpXoKiP3pUPXaeLw6K8OKYlW5HNkJsW/2WOm3wFXA60A6PupalKYGoKaqwD7xLwZcefuic9IAiIoUBv4SIP6P5w0rqHrpqdhjxNdlJ0/EW25lOPetMPAvCgP/pDDwdwC6ANsABrgSeA2ot1FIEvXrnmO7lAz/r3TgKCuLFRMxDVDlugAhHBoH7B53SPad12katTOFnr3jjhIATY1UvfSkrbTrV/2XMPAbgYnF17UASpsqoq1fo1Z5jQRqbRXpyjaDV+AldOtfc7a107BIAyCEY+OAS2JPyeepfn4cDT84OvYoUZx2sXPy3wrg1nX9pDDwm4BJxdd18FVTsBnfbAoSMTdcKv27x3zoZgws1ZyIKQBpAETFCgP/HaXN58AGcWdlpkwmM2Mq+YFD4o6qaN7SxVS9/rytuAfCwG/T/rZiU/B28XU9gNImC4zg603B1kDHklTrQP8ebi/8aQtVU6BbxzyL62KdIU/E9Ls0AKLS3QKcbSOo6rlHaTjqZCBlY6IpUjX+MZsr/68r5ZuFgZ8D3i2+boSvmoLhfLMp6FTK7LgMSOEIAMCAHk0srquJMyIRpyJJAyAq3d+B07EwH5uZM5Ps5EnkRmwdd1RFynw2hezkSbbiPgdiX2hQbAreK75uAiheJrOmpqBz3PW0Vp9u6RsBgKjuyfEeFSYNgBCuhYE/R2lzA/BTG3lVLzxObuPNobraRlzF8OqWU/3InUDBVuSNYeDHvmF8TYq57xdfN8NXTcGmfL0p2AbHTcGiuqzL+DZbtDz2EXppAIRIiMuAHwOxf7fyliyi+ukHaNz34LijKkiB6nF329r2FwWutvrftWJTMLn4ugW+ago24ZtNQRdbdc1emM4GYPai2B+N0gAIkQRh4E9R2twNHGYjL/vum+QHDiG3eWJuBU21qjdeIjPtQ5uR48PAn2IzsC2KTcEHxdetAEobDxhG1AyMAX4WZw2zF6WvAWjKecxbEnvd0gAIkSCXYKkBAKh+6n7yfdensF5fW5FlKTNnJlUvxH6tw+qutR1YKmHgF4CPgI+UNncBxxPj+pcv4v8kXXJzFmfJxz+TlIgGIBFbEYRwLQz8icDj1gIbG6l56DZobLAWWW68+pDqh26HnNWFZh8At9sMjEtxgWGsQycfzkrfWpcP7NQsDYAQCXOxzTBv/lxq7rsJcuncKuVUYwPV996At2i+7eSzinv4y8X7sb755zV8Ni9dowCPvmXl2AVpAIRIkjDwnwNetZmZ+WxK9Cm24GRBeTo1NVFz341kZn9mO/mpMPAfth0as1gbALD2QC2Zh9+0csTCHBsh6yINgBBfZ3UUACD7yftUP3YvFrewpVc+R81Dt5L5bKr1ZOAM26EWxN4APDIhFWcWATDp0w7MmB/7iEUesHZV5dpIAyDE1z1AtJXKqux7E6h++iGkCViLQoHqR+8iM+UDF+nXhoH/tovgmL0Xd8D4ybUsWJaO3QD3vWalWXk7DHwrl1WsizQAQqyiuEr6FBw8ibNvBdF0QFM5TTGXSK6J6kfvIvuBk2fwUuA8F8EWTAFiXYnamPO45IHucUaUxPylWa56squNqPE2QlpCGgAhVhMG/jNEd7lbl/3wHWru9vHCRKwRSgRv+VJq7riG7OSJrkr4Uxj4iZizLbXigsaP4s65+qmufJrwxYB/ur87S0Irj8QXbIS0hDQAQqzZrwDrE80AmZmfUnPblS5WuCdO5ovPqbn5ny4W/K30KfA3V+GWxL4OYEWTx+/v7hl3TJtNm1uN/4yVT/8gDYAQyRYG/nLgOBxNynsL51Fzy7/IfviOi/hEyE6eSM0dV+MtW+KyjLPDwK93WYAFz9oIuTPozCsfx37nVpv8+taeNDRZuaXzoySNJkkDIEQzwsAfD1zhKj866OY2qh+7p7IODGpqpOq5R6LLfZqsXe27Js+HgX+HywIsuQOIvckpFODwy/syc0GypgIufag7D9vbqZCY+X+QBkCIdfkN8LHLArLvvkmHG68gM3uGyzKsyHw2hQ43XE7VGy+6LmUOcITrImwIA38RcJ+NrDmLsxzy976EDVY+ba/TuLc62p6akAZAiLQIAz8EjiXau+uMt2g+NbdfRfVTD+DVLXNZSiy8sI7qcXdTc5efhLUPOeDwMPBnuS7EImu3G741rQM/uboPBcc7Xj+YVc1xV/axce7/So3A09bSWsAruP6/IEQKKG0uBc50XQcANR1o2n5XmrYbA9U1rqtpt+z7b1H13CN4dctdl7LSOWHg/8l1ETYVrw6eDgy0lfn97ZdzzYlz6dTB/jPopQ9rOfzyvsxbavV8gpvCwD/GZuC6SAMgRAsobWqBt4DhrmtZqdCpC00770Vuy+3AS9lgXiFP9sN3yL72PJm5s11Xs6qHgO8Vz4OoKEqbC4FzbWZutWEDd//iCwb2snf2xQ3PdeG0G9ajMWd1GqIAbBkGfuwHL7WGNABCtJDSZgfgZSBRx5oVevaOGoFhm0MmUaV9U1MT2ffepOq18XiLF7iuZnXTgG2Lc+IVR2mzMQ7Wu/TumuOmk+ey22ZhrDlhg8d5d/bk3090izWnGQ+HgX+gi+C1kQZAiFZQ2hwP+EAyVjGtoqA6kR8xktwWo8j3GeC6nK/xli0h+94Esm++lNQ1DPXAzmHgT3BdiEtKm/HALi6yDxy1nD8csoBNB5R250e+ALe80IUL7u3hcgfCmDDwX3IV3hxpAIRoJaXNL4C/uq5jbQq9+5HbYhS5EVtT6NjZSQ3e4oVkP36XzEfvkpk1g4Tfc/CTMPCvcV2Ea0qbY7G4IHB12Qwcs9sSzv7eIjZo57RAvgCPT+zIeXf15P3Pna6VeSkM/DEuC2iONABCtIHS5vfA71zXsU6ZDPlBQ8kP2JB8/4EU+m9AoTam61kbG8nM+4LMZ1Oih/6cmfHklN6NYeAf67qIJFDaVAETgC1d1uF5MGrICg7YdjkHjqpjxPotOwcjbPB45l3FwxM68ciEjrYX+TXnu2HgP+S6iDWRBkCINlLaXA6c6rqO1vEo9OhFvv9A8gMGUei7PoVOXSjUKqipoUUzG7kcXn0d3rw5ZObOxps7i8zcWXgL5kHB6W7JthgP7Fvc7ikApc1o4CUStE18w/Wa2LhfI/17NNG/e47+PZroXFtgzuIssxdmmb2oitkLs7z9aQfqEnLGQNF7RIv/EvmglQZAiDZS2njAdUTnBKSfl6FQWwsdFAXVETqoqB+or8dbEcKKerwV9a5P5yulp4hW/MvNS6tR2vwL+JnrOsrAj8LAv9V1Ec2RBkCIdlDaZIG7gB+6rkW0yqPAQRVwzn+bKG26AZOB/q5rSbEHwsD/vusi1iYxQzxCpFEY+DngcOBJ17WIFrsf+IE8/JsXBv5i4DTXdaTYTOAE10WsizQAQrRTGPgNwA+AwHUtYp3uBMYW/5+JtQgD/27gEdd1pFCeaOjf+ZnW6yINgBAlULw+eH+gcu/vTb6bgSPDwLd37Fz6nQwk5ozmlPhTGPjPuS6iJaQBEKJ0coC1e0VFq/jAscUpG9FCYeB/Cpzjuo4UCYDzXRfRUtIACFEjJjOHAAAgAElEQVQ6/wCGuC5CfMM/iQ76Sd0exSQIA/8KEn7wVUIsBo5I0wiTNABClIDSZiyQqJu+xFfuTeo+7LQIA/8M4FrXdSTcT8PAn+66iNaQBkCIdlLabAD8x3UdolnXKW3cnIdcXn4C3O26iIT6TRj4d7guorWkARCiHYqHAd0I9HBdi2jWYOAy10WkXXEK5UhgnOtaEqQA/CwM/ItdF9IW0gAI0T5nAHu4LkKs04lKm31cF5F2YeA3AgcBL7iuJQGagKPCwL/SdSFtJScBCtFGSpuRwGuA06vGRIt9DmxRPORGtIPSpivwLLCt61ocWQEcEgb+g64LaQ8ZARCiDZQ2tcBtyMM/TTYALnddRDkIA38J8G0q8wTMZcD+aX/4gzQAQrTVpcBmrosQrXaM0ua7rosoB8WT7vYBfgWUzQ1R67AQ2CsM/GdcF1IKMgUgRCspbfYjukxGpNMXRFMBiT+qNS2UNtsBtwMbu64lRq8THSb1vutCSkVGAIRoBaVNb6IrgEV69QP+5bqIchIG/hvANsBNrmuJwVLgVGB0OT38QUYAhGgVpc0DgAwhl4dDihfeiBJS2hwJXAl0cV1LCdwH/DwM/JmuC4mDNABCtJDS5kTgKtd1iJKZRzQVMMd1IeVGaTOE6HCsvVzX0kYzgFPKYaHf2sgUgBAtoLTZBDfnoU8Gfg184CC73K2HnOAYizDwp4aBvzewA3Av0RW5aZAD/g5sVu4Pf5ARACHWSWlTDbwMbGc5uoFo3vGtYh0aOA44FOhquZa41QNPAfsBWcvZR4eBf7PlzIpSbKDPAo4COjguZ03mAbcC14SB/57rYmyRBkCIdVDaXISbK1F/HQb+n9dQT0fgYKJmYDfAs11YiawAHgfuBB4MA3+Zo6/1IqKpgLKc500SpU1/4HTgp7hvYpuAx4DrgYfDwG9wXI910gAIsRZKm12A57A/XfYcsOe6rrAtfkPdm+hQlr2BPvGX1i4NRIfH3Ak8UDxQ5itKmxqi7VZbWa7rsTDw97OcWbGUNt0AQ/TndifA5mVNk4ke+jeHgf+FxdzEkQZAiGYUv0lNAja0HL0I2CoM/Bmt+UXFi4m2Jvqmug+wM+5PKpwPBMXXy8DrYeAvX9svUNpsTXTEcnX85X3NT8LAv8ZyZsVT2mSJthDuWnyNAXqV6O0LwHTgfeBd4L4w8F8t0XunnjQAQjRDaXML0e1nth0WBv6d7X0TpU0HYDiwxSqvLYFBlH7aIEd01v50ogWLrwAvh4H/UVveTGlzHvCHklXXMkuJGq/plnPFKoqN7GbALkRNbG+gYzMvRTQ6lwemEj3oV77eAz4IA7/O8m8hNaQBEGINlDaHE531b9vNYeAfHWeA0qYLsDmwPtEnrZ6rvXoRDck2EC3OW7Haj/VEp+lNX+U1Iwz8phLWWEU0amB74eWzRFMv8o0xJYr3cuQrcQ6/vaQBEGI1SptBwNtAN8vR04CtV58Xr1RKm82ACdhfNX5qGPj/sJwphHVyDoAQq1DaZICbsf/wzxHdLS4P/6LisavnOYi+WGkzzEGuEFZJAyDE1/2KaCGSbX8KA/8lB7lJ9xeixYM2dQRuKDaDQpQt+QMuRJHSZhT2F55BtOL99w5yE6+4DfJYwPZCrp2AMyxnCmGVrAEQgq8O15kAbGo5ejnRvP8nlnNTRWnzc+AKy7ErgG3L7QY4IVaSEQAhIn/B/sMf4DR5+LfIP4kOR7KpA3BjcUeCEGVHGgBR8ZQ2BxIdTWrbfWHgX+sgN3WK2/KOI9qrb9N2wG8sZwphhTQAoqIpbfoCLh7Cs4EfO8hNreIBPWc6iD6veDqhEGVFGgBR6a4jOmnMpgJwbBj48y3npl4Y+FcTXSBkUzXRVIDrY5WFKClpAETFUtqcDOzvIPry/2/vvuPkKus9jn+m7CZPFkLIQqQGSCiJ1IT6ULwgVapIAiIgxQdUUAFB4YII2KUjKigHkeKVohiqlEiHYyhC6ARIKAEMkJBANofsTrl/nAmkZyeZ83vOzPm9X6957fWld7+/JLtzfvPUKAzu9pDbKr5BfF+CpE2AM4UzlUqUNgAqk4x1w4FzPUQ/C5zqIbdl1K7tPd5D9CnGuq085CqVCN0GqDKnNpQ7jvjmPEmzgS2jMHhWOLclGevGAPsJx74EjIjC4BPhXKUaTkcAVBb9DPmHP8Cp+vBvqG8SXzcsaRjxz49STU8bAJUpxrqd8HPC2z3AxR5yW1YUBlOAYz1En2is295DrlINpVMAKjOMdSsS3/K3hnD0VOJ75t8Rzs0EY911wEHCsa8Bm0Zh0CWcq1TD6AiAypLLkH/4AxytD/9EHQdMEc4cCvxaOFOphtIGQGWCse7rwIEeoq+IwuAfHnIzo3aewjEeoo811u3sIVephtAGQLU8Y906wCUeol/Fz3a1zInC4BbgauHYHPAnY11/4VylGkIbANXSjHUF4BpA+k26BByic8SivgdMFs4cDFwgnKlUQ2gDoFrdacB2HnJ/EoXBYx5yMysKgxmA8xD9DWOdjxMllVom2gCollU7te3HHqIfAX7hITfzojC4C/ijh+jLa7tMlGoa2gColmSs6wD+Akjf5f4RcFgUBmXhXPWZk4DXhTNXw886E6WWmjYAqlVdBKzrIfe7URhM8pCraqIwmAkcSXzroqRDjHX7C2cqtdT0ICDVcmpvwjd5iL4hCgPpA2nUIhjrLiZeGCjpPWCjKAzeF85Vqm46AqBairFuVeByD9GTgW95yFWLdirwinDmIOBS4Uylloo2AKplGOtywJ+BTuHoCvD1KAw+FM5VixGFQQQcTvzvI+kAY93BwplK1U0bANVKvgfs5iH3/CgM7vOQq5YgCoMQOM9D9G9ro1FKpZY2AKolGOs2ws/Z7E8BP/KQq3rvx8DzwpkD8bMdUale0wZANT1jXR/g/4A+wtER8Wl/3cK5qg5RGMwmngooCUfvbaw7UjhTqV7TBkC1gl8CG3vIPTkKgxc95Ko6RWHwJH4OZ7rIWLemh1yllkgbANXUjHW7Aid4iL4jCoPfe8hVS+9nxFM2kvoTXxiUE85Vaom0AVBNy1jXSbzqX/rN9T3gKOFMtYyiMOghngqQnrLZBd0iqlJIGwDVzP5IfASrtG9EYTDFQ65aRlEYPAuc5SH6XGPdEA+5Si2SNgCqKRnrjgK+4iH60igMbvOQqxrnHGCccGYHcKWxTt9zVWroD6NqOsa6ocDFHqJfAk72kKsaqHZR0+HAJ8LRXwCOF85UapG0AVBNxVhXJL7lbznh6B7iLX+zhHNVAqIweBk4zUP0z411G3jIVWoB2gCoZnMGsLWP3CgM/uMhVyXnYuAh4UwDXGWsKwjnKrUAbQBU0zDWWeB0D9EPAOd6yFUJisKgAhwBdAlHbw38UDhTqQXodcCqKRjrlgeeBqRXUk8HNonC4C3hXCXEWPdtQPpMh25gi9quBKW80BEA1SwuQf7hD/Btffi3vMuAscKZ7cRTAW3CuUp9ShsAlXrGutHEq7alXRuFwXUecpWgKAyqwDeAj4SjR+BnSkspQBsAlXLGujWAP3iIfh04zkOu8iAKgzeBEz1En26sG+khVyltAFR61c5PvwpYUTi6DBwWhYH0J0LlURQGfwJuF44tAlfXbrRUSpQ2ACrNTgK+6CH3V1EYPOwhV/l3NDBNOHND4GzhTKV0F4CC2p5kA3Sn5W57Y92mwGPEi6UkPQ5sG4WB9N3xKiWMdV8jPmxKUhnYIQqDUDhXZZg2AC2q9lBfi3jl/ND5vg4A+hE/9A0w90rk2cAM4gVRH9X+78nAi7XXS8CrST4gjXV9gSeBzyeVsQhdwIgoDF4RzlUpY6z7G3CAcOwEYLMoDCLhXJVRRd8FqMao7ZO3wHbA9sSHjXQsxbfqAwyqvRalx1j3KvAE8C/gX1EYTF6KrEU5F/mHP8CJ+vBXNd8mPrt/ZcHM9YFfAicIZqoM0xGAJmas2wI4ENgV2Bjwebzoy9SaAeCeKAw+XppvYqzbA/hnIwvrpTFRGOzvIVellLHuK8DfhWOrwE5RGDwgnKsySBuAJmOsG0H80D8QPwfj9EYE3AT8Gbi3duTqEhnrVgaeAVZJrrSFepf4tL8PhHNVyhnrrgUOEY6dRPzzOFM4V2WMTgE0AWPdCsSrk48B1vNcTm8Y4jfNQ4C3jHXXAFdFYTBhCf9/AfIP/ypwpD781SJ8F9gJWE0wcx3gPOBbgpkqg3QEIMWMdUOI7w8/Cvnrb5NwF/CTKAwenf+/MNYdg58Dfy6OwkDnXNUiGev2RP58AIDdozC420OuyghtAFLIWLcN8W1h+9GaZzWMBc6es9feWLc+8BTxzgRJzwFbRmHwiXCuajLGuiuIG3FJk4GNojCYIZyrMkIbgBQx1g0GzgEO8l2LkPuAnwO/ArYQzp4NbBWFwTPCuaoJGev6A88Cg4Wjr4rC4AjhTJUR2gCkgLGuAzgFOJl4/lwl7/tRGFzouwjVPIx1OwP3ADnh6H2jMLhVOFNlQCsOLzcVY90hxFvozkAf/lLGAhf5LkI1lygM/gVc6iH6j8a6Tg+5qsXpLgBPjHWDiFe97+O7loyZBhxeuwJWqXr9ENid+FRNKasAvwO+KpipMkBHADww1u1LPJ+oD395R0dh8I7vIlRzisKgCzgC6NXZFg10kLFutHCmanG6BkCQsW454qHnb/iuJaP+FIWB/t2rZWasOx/4vnDsB8S7AqYI56oWpSMAQox1w4Gn0Ye/L68Rn6mgVCOcTnwxlqSVgMuEM1UL0wZAgLFuR+BRZOcN1WdKwCF6tKpqlNrZEYcTX+Mr6cvGusOEM1WL0gYgYbVf1ruIr+BVfvw0CoNxvotQrSUKg8eAX3uI/o2xbnUPuarFaAOQIGPdj4GrgXbftWTYo8SHDSmVhLOJL7CSNIB4B5FSy0QXASbAWJcjnqs7xnctGfcxsFkUBhN9F6Jal7FuM+AxoE04+pgoDC4XzlQtREcAknEB+vBPg+/qw18lLQqDp4Gfeog+31i3lodc1SK0AWgwY93ZgN4u59+NURhc5bsIlRm/BJ4QzlweuLI24qhU3bQBaCBj3UnAj33XoZgMfNN3ESo7ojAoEe8KmC0cvRPwHeFM1SK0AWgQY93RwHm+61BUiY/6/dB3ISpbojB4gfhOD2m/Mtat6yFXNTltABqgts/fxyUhakHnR2Fwr+8iVGadT7zzRFI/4Cpjnb6fq7roD8wyqu3HvR4o+K5F8TzxCW1KeRGFQYX4roBZwtHbIn80sWpyug1wGRjr2oH7Aeu5lPr0a6fa2UF1YO3V2QF92sh92EVuahdMi7/mps+CSlP9fEwnPiv9bd+FqGwz1n0X+I1w7GxgZG0qQqkl0uuAl82FpPzhX119AGU7hMrma1EdtDzVgR3Qt5fblStVctNnxc3AK+9RCF8j//RkKEmfftprA4ArgD18F6Iy77fA/sSL9KT0IZ4KsLVFicvEWFcknl6Y8zK1r32ILyZ6NwqDGcuao/zREYClZKw7FLjGdx0LyEFl/c9R2WYI5W2HUh08sLHff1Y3hSdeJ//oRApPvA5d3Y39/o3xrSgM/uC7CJVtxrq1iU8JXF44+owoDH7W2/9xbRpz0/leQ+ndwUazgHfne40HHorC4JU661bCtAFYCsa61YAXgf6+a5mjusoKlA4YQcUOodq5nExoqUL+mckU7nqBwkMT4vX36TAT2CQKg0m+C1HZVtsd9Efh2B5gyygMxi/svzTWbQiMAr5A/LDvTKiO94CHgYdqX59uxMiEahxtAJaCse5vwAG+6wCo9jeUvrYV5b02gqK/dYj5V96jeMXD5MdP9lbDfB4EdqotylLKG2PdP5GflnqGuAnortWwMTC69homXMscM4E7iO8xGBuFgT58PNMGoE7Gur2BW33XQZ8ipf1HUBq9OfRLz11D+SfeoO3KR8hN/MB3KQAnRWFwge8iVLbVhtifQ/5G0MuAqcQP/fWFs5fkdeL1Olfqol1/tAGog7Gug3irmb/zt/M5yrttSOnQrePV+2lUrVK492WKV4fk3vvYZyWfEK+KftFnEUoZ674O6NHUCyoDdxKPCtyiI3aytAGog7HuPOAkX/nVFfvRc8ZeVIav6quE+nSXaLtgLIUHJvis4nFgax1uVL4Z68YA+/muI8XGAydHYTDWdyFZoQcB9ZKxbjhwvK/8ypCV6b74oOZ5+AO0F+k5dQ9Kh1vwd13JlsTbsZTy7ZvEQ/Jq4TYF7jHW3W6s+7zvYrJAG4De+xGezk0ob78u3ReMprqy9G6ixih9dUt6ztgLjPR16Z86zVewUnNEYTAFONZ3HU1gT+AZY91lxrpBvotpZToF0AvGuvWJt/2JN0ylr21F6dBtfH6Cbpjc61NpP+tWclM+8hG/exQGd/sIVmpuxrrrgIN819EkPgbOBC7SabzG0xGA3jkd6b+rYiEePj+sNR7+ANW1O+NpjM97mcbQUQCVFscBU3wX0SSWBy4AxhjrpHdRtDwdAVgCY91Q4GWEL/vpOWlXyrsMl4yU09VNnxOuJzdZ/Mbe7aIwkL6pTakFGOv2BW72XUeTmQSMjsLgSd+FtAodAViy0xB++JdGjWzdhz9ARzvdZ+1DtaOPdLKOAqhUiMLgFnRbYL3WAR4x1n3bdyGtQkcAFsNYtzLwNr07E7shKlutTfdZ+0CuRcb9FyP/nzdpP+Nm6RsHN43C4BnJQKUWxli3AvEBQWv4rqUJ/RU4JgqDmb4LaWY6ArB4hyD48K+u1Un3qXtk4uEPUBk5mJ6jd5CO/V/pQKUWpnaTnvNdR5M6GHjIWLeS70KamTYAi3eEVFC1v4k/+Zv0HOsrofzlzSjvvqFk5GhjXVKXnyhVlygM7kL+sqBWsRlwv7Huc74LaVbaACyCsW7OtZgiek7dg+oqqblcUFTPd3aksq7Ydt8CsLdUmFK9cBLx2fiqfhsCD9TuW1B10gZg0Y6QCqrYIVRGrCkVlz7FAqWjt5dM/LJkmFKLU5vHPpI0XajdXDYAHjTW+bujpUlpA7AQxro24vn/5OVz9By5rUhUmlU2WYPKlmtLxe1mrDNSYUotSRQG9wOX+K6jiQ0B/llbWKl6SRuAhfsCsLJEUHm3DamuOVAiKvV6jtpOagFkP2BXiSCl6rCa7wKa3HDgBmOd6LbtZqYNwMLtLJLSp0jp0K1FoppBde1OyrsMk4rTaQCVGsa6U4FRvutoAbsBv/FdRLPQBmDhRBqA0v4jqHZ2SEQ1jdJh20C7SAO/t7FOf/6Vd8a63YGf+66jhRxrrPuO7yKagb4Bzqd23vTmSedU+xtKoxOPaTrVlZentN9mElErA9tJBCm1KMa6IcSH2uh7cWNdaKwb6buItNMfugXtiMDRv+XdhkO/bO35763yfptKXYCk0wDKG2NdEbgRWNF3LS2oCFxlrNM32cXQBmBBIsP/FTtUIqYpVTuXo7KeyNkeViJEqUU4EdBPqcnZCDjbdxFpVvRdQAolvievOsBQGb5K0jFNrWKHkJ+Q+I2pYisOlZpbbeg/nQ+n9gKVoYPi9UkDO6gO7KDaGX8llyM3bSa5abPITZ0JU7vITesi/9r7MLvku/KF+YGxbkwUBuN8F5JGehnQXIx1OWAm8TaxxJR335CeE2Q2GjSr3BtT6fOtv0hEDYrC4H2JIKXmMNbdTYq2olaX60Nlq3WobDuU8uaDoW+dV6B0l8g/+SaF8DXy4yaR++iTZApdOi8Cm0RhkMoOxScdAZjXYBJ++AOU7ZCkI5peda1OqqsNIPfO9KSjhgHaACgxxrpDScPDP5+jvNMwyjsPo7LJ6lBYhhnh9mJ8oqkdApUq+effoXDfyxTufgHKlcbVvHSGA8cAv/ddSNroGoB5DU88oW8blRGDE49pBUKNkk4DKDG1RWm/8F1HZet1mP37r9Fz8q7xMeTL8vCfXz5HZePV6fneF5n9h0Mpb79u47730jvTWLe87yLSRhuAeSX+MCiPHCy1z73pVbYVWSi5gUSIUjUO8HbxR2X4qnSfO4rus/ahulbyl2JWVx9Az+l70n3RgVQ28nrQ4SDgFJ8FpJE2APNKfASgsukaSUe0jMrwVaAt8WZJRwCUCGNdH+A0L+FtBXpO3IXuC0Z7eRBXNliF7nNH0fOD3aDd28zz9/XWwHlpAzCv5MecV14u8YiWkcvFK4+TpQ2AkvJNQPwBVF2xH93nHEB5t89LRy+g/MVhdJ83imqnl/dBQ3z1sqrRBmBeA5IOqA7UBqAeAg3A2rVPZkolpjb3f6p0bmW9QXRf8lUqw9Kz7dhzTUca6/T89RptAOaVfAOgZ//XReDvq4CexKaStx+wqmRg+Qvr+/y0vVifjkrsLD4ANwA4VDo0rbQBmFeyd0nn4h98VYfkRwBAfw9U8pxkWGXEmvT80Ot8+5K1Feg5aVcqW6wlnfxd6cC00je+eSU6AlBdwTR2u00GCEwBgP4eqAQZ69ZGcN9/dfUB9Jy2Z3O81+RydJ/6Japrig7CbWis21EyMK2a4CdEhrGuH1Dn8Vf10fn/+glNmejvgUrSUUhdb9XRTveZ+1BdromWtcypuUO05oMlw9JK3/g+k/zYvM7/101oBEDmzVll1eEiKXkvn6YbIh61+BLkxX4V96kd/Z5p2gB8JvnDqzP/47YUciJ/afp7oBJhrNuI+IjxxJX33dTHfHrDVEYOprT/CKm4VYGtpMLSSt/4PjMr8YRpyUe0mty0LokY/T1QSdldJKVfO6WDtxSJSlL5oC0kpwK+LBWUVvrGVxOFQYWERwFyU2cm+e1bkjYAqsntIRFSGr051f5GIipR1eX7Uj5oC6m4faWC0krf+OaV6NMmNz2Cil6/XA+hpkknZ1TD1RYW75B0TrWzQ3LoPHGl/TajupLIgunhtX+jzNIGYF7JjtFXq+Q+1GmAushMm+g/ikrC9kDi49mlQ7eGPine71+v9gKlw7aRSMqR8aPAtQGY10dJBwgNabcMgRGA2cDbSYeoTNo08YSOdsq7+D/jv9HKuwyXmtJovb+8OmgDMK/XE0/QdQB1EWiYJkVhoPMyKgkbJR1Q3mJtKLbg23g+R2WbdSSSEr8BNs1a8CdnmbyWdEBuqo4A9FpVpAFI/N9cZVbiDUDFJn+BqS9lmT+bjgCoT01MOiD/nI4291Z+whToLicdow2AajhjXZ6kP10W8/EIQIuqjBwMfRM9nBW0AVBzSfxhUHj8dShVko5pCflQ5NmsDYBKwlrE988nprLx6tDRnmSEX+1FypsnfobS0NpVzZmkDcC8Eh8BoKub/DOTE49pBYVHk//nQBsAlYxkbxYFKluunXSEd5WtEl8HUADWTzokrbQBmNdEIPEx58K/RR5sTS339nRyb02TiNIGQCWhb9IBlVUT7zG8q8r8GTM7DaANwFyiMPgEeDrpnHyoDcCSFB4VeS5XgEkSQSpzkt/D1tn6t4sKXQaW2Z0A2gAs6OGkA3IfzCT/yntJxzS1vMwoyatRGMyWCFKZk/gIgNBpeV4JNQCt/xe5CNoALOgRiRChBW5NKffhLPIv/lci6k6JEJVJyY4AFPNUB2TgFFvTBibxNXrJ3wSbUtoALCjxEQCAwj0vQndJIqrpFG57BqoiZ/PcJhGiMinREYDqwI7M3GBR7Ux8FEAbABWLwuBdBOaFcx/MpDgm8eUGTSf34SyKNz0lETUTeEAiSGVSoiMA1eUTn2FIDYE/qzYAah73SYQUb3iC3EeZ/dlbqOJfxsEnPRJRY6Mw6JYIUpmU6FMrNyNK8tunSu6jxP+smV0HpA3Awt0kktLVTeGvj4lENYPc29Mp3Pm8VNztUkEqkxIdAch9OAsycoOFwPHpmf0Upg3Awt0DTJcIKt72LLn/zpCISr3ilY9AWeSUxCpwh0SQyqxkx63LlWyMAszqlhgR1AZAfaY2NHyLSFipTPHPoUhUmuVf+i+FR8R2RjwVhcE7UmEqkxLfxpKb1vo3iwpdnqYNgFrAjVJBhQcnkH/hXam49KlUKV7+kGSiDv+rpL2QeEIGbhYVuA0UdA2AWoi7AZmx+Sq0/eKOzF4V3Hb5Q9IN0A2SYSqTXkw6IPe2yCylV0J/Rh0BUPOqTQP8VSovN7WLtp/cJnH9baoU7nyegux2yH9GYfCcZKDKnigMPiThaYAs3ClSeEzkpO4PJELSSBuAxbsQwbW2+QlTaLtorFScd/nn3qbtdyI7Luf2a+lAlVmJTgPkn3uH3MwWHr2eXSL/1FtJp5SRmK5JKW0AFiMKgwlILQasKdz3MsXrn5CM9CL3349o++kdUBJZ9T/HuCgM9PAfJSXZB0u5Qn5c695llf/PmxKnpU7I8n0g2gAs2fnSgcWrQqnLcPyIumk/61aJAz7mp5/+laTE1wHkZW7N9EJoiuNZiZC00gZgCaIweAiQPa2nWqX9nLvIP5348Je4XNds2s++jdwbU6WjXwbGSIeqTEt8aLnw5BswuwXvFKlUpUY3npEISSttAHrnXPHEqIf2H90cX4zTInJvT6f9+OvJj5/sI/6cKAwycnaaSonk55ZnlyjeMj7xGGmFe16QOuio9edbF0MbgN75O9KjAADlCm2/u5+2394ndUJeYvL/eZP246/3tXXpHeBaH8Equ6IweA9IfKircP0T5D5uoZ1ss0sUr/m3RNInwIMSQWmlDUAv1D45nugrv3D7s7SfPqZpf8kLt4yn/YybyXV5W2tzoV78ozxJ/ISrXNdsCi20cLh401NSZ6I8EIVBBs5TXjRtAHopCoNH8XiATH78ZNpPuIHcWx/6KqF+pQptl9xL26UPQMXb6PtrwG99havM+4dESPGW8eTe+1giKlG5GRHFG5+UirtTKiittAGozyl4PDYy9850+nzvOopXh/ElGSmWHzeJPsf9H4U7vJ+5c2wUBs05dKJawa1A8qv0esrx+0KTK147DiKx97bMNwC5alXXRdXDWDLO5/cAAAgESURBVPcr4kbAq2p/Q/ngLSntvTEUC77L+VT+pf9SvOJh8s+l4q6d66IwONh3ESrbjHVjgZ0lsnpO2pXyLsMlohqu8MhrtP38dqmj1yZEYbCBSFKK6QhA/X4KvOK7iNxHEcU/PEgfdw2Fe18Cz41c7u3ptP3sdtpPvCEtD/8ZeFy3odRcRKYBANp+cy/5lxK/iLDh8hPfp+28uwXPXeVKsaQU0xGApWCs2xJ4FCj6rmWO6pCVKI3anPJW60BHu1BofHxx4e7nKdz1Qtp2KhwXhcHvfRehlLGuE5gM9JXIq67Yj+5Lvkq1czmJuGWWmx7Rfvx1kmsYysBgvRJcG4ClZqz7EfFoQLoU81Q2WYPyNkOo2CFUV2rwm0CpTH78ZArhRPL/npjWGwwfBHaKwiBVHYnKLmPdn4AjpfIq6w2i+7xR0J6azygLVyrTfspN0reB3hGFwV6SgWmlDcBSMtYVgAeA7XzXsjiV9QZRsUOpbD6Y6uf6U+1vIFfHN+gukZvaRf6VKeQfnUjh8dfTvgDxXWBkFAbNNw6qWpaxbgTwH8nMymZr0nP6nlSX6yMZ23uzumn/5T/JP/GGdPKoKAz+Lh2aRtoALANj3drAeKC/51J6r5inOrDj0xedta9922BaF7lpXeSmxi+mdfncu780eoAvRmHwsO9ClJqfse5hhD8wVFcbQPdZe1Ndc6Bk7BLl3p1B+5m3kntrmnT0G8B6URj0SAenkTYAy8hYtzdwM7qgMg1OiMLgYt9FKLUwxroDgevFg/u1033KHlS2Wls8emHy4yfT9vM7fB1sdnQUBoGP4DTSh9YyisLgNuAE33Uo/qoPf5Vyf8PH5TOz4ts3i9c97nehbrVKYczTPk81nQj82UdwWukIQIMY6y4Gvue7jox6AtgxCoNUrkhUag5j3ZeAO3zlV1cfQOlwS3mH9URz8+Mm0fbnR8m9Ln4L6NyOiMLgKp8FpI02AA1irMsTXze7j+9aMuY54H+iMBCfTFRqaRjr7gN29FlDZYPPUTpqOyqbrJFoTnww2CPkn3s70ZxemAB8PgqDsu9C0kQbgAYy1nUA9wNbeC4lK14BdojCYIrvQpTqrdo5IvK3iy5EZeRgyjsPo7L1OlQ7GrRbYFY3hSdep3DfBPL/ntiY77nsdo/C4G7fRaSNNgANZqxbgXiIb1vftbS4N4gf/m/5LkSpehnrrgYO813Hp4p5KhuvTnnbofH5IXUeIpSb1kX+35MohK+Rf3oylFL1QfuaKAy+7ruINNIGIAG1kYCbETr/O4PeBb4QhcGrvgtRamkY6wYQT1+t7ruWBeSIzwwZ2BE3AgP7Ue1cLt4unOOzLcJzbRnOTZkheYxvPd4Hhkdh4HXxQVppA5AQY11f4EZgb9+1tJiXgD2jMJjkuxClloWxbjfgLt91tLivRWHwV99FpJVuA0xI7QrarwA3+K6lhdwPbKsPf9UKanPSel9Fcsbow3/xtAFIUO20qYOBn5DWAbLmcQ3xQp4PfReiVAP9kHiFumqsV4AjfBeRdjoFIMRYtwdwLdDpu5Ym9JMoDM70XYRSSTDWDQNCYIDvWlrETGCbKAye911I2ukIgJAoDO4ERgKP+66liUwB9tKHv2plURi8BIwGSr5raRFH6cO/d7QBEBSFwZvA9ui8X2/cDGwchYG3U9OUkhKFwVj0JNFGOCcKgxt9F9EsdArAE2PdrsClwFDftaRMF/GlPnphh8ocPVJ8mVxBfNmPPtR6SUcAPInC4B5gY+CXxNfYKhgLbKYPf5VhJwB/8F1EE7oWOEYf/vXREYAUMNZtBPwRsL5r8eRl4OTazYpKZZ6OBNTlRuBgPee/fjoCkAJRGDwHbAccBbzmuRxJU4nf5DbSh79Sn4nC4HjgHN91NIF/AIfow3/p6AhAyhjrCsAhwGnABp7LScoM4DLg17qvX6lFM9b9GDjbdx0pdQHwgygMKr4LaVbaAKRU7XrhA4EfARt6LqdR3gQuAoIoDD72XYxSzcBYNwq4Eqjvhp7W1QMcF4XB5b4LaXbaAKScsS4H7E58qtV+QF+vBS2dJ4HzgL9FYaB7nZWqk7FuQ2AMsK7vWjz7EDggCoP7fBfSCrQBaCK1G8QOIm4GtvFbzRK9QnwPwvVRGDzruxilml3t9/9aYC/ftXjyMHB4FAYTfRfSKrQBaFLGug2AUcRXDm8L9PFbEQCvEq/IvSEKg6d9F6NUq6mNCB5LvH14ec/lSJlNPBV6gc73N5Y2AC3AWGeITxjcufYaSfI7PMrAM8AjxJ35I1EYTE44UykFGOvWAH4H7Ou7loQ9CXw9CoMXfBfSirQBaEHGur7A+sDw2mtY7esQ6l9INBOYSLw9cc7XCcBjupBPKb9qCwQvAVbxXUuDvQ/8FLhU1w0lRxuAjDHWFYEVaq8BtVcH8AkQzfWaBcyMwuADT6UqpXrBWLcc8XkaJwMrei5nWc0CLiQ+0/8j38W0Om0AlFKqBRjr+gMn1l4reC6nXp8AVxFf/f2O72KyQhsApZRqIca6FYkXCh5FPO2XZm8QX4oWRGEw1XcxWaMNgFJKtaDajoGdAAfsT3rOEOkB7iU+DfRWPcbXH20AlFKqxdVGBfYHdgN2ATqFS+gC7iI+u/+2KAymC+erhdAGQCmlMqR2zPjmxM3ADsAmwKoNjHgfeAl4sfZ6Hng4CoOogRmqAbQBUEqpjDPWrQRsTNwMDCGeLpj/1We+/5wj3hr84twvnctvHv8Pn+OWJhEBarYAAAAASUVORK5CYII=;" vertex="1" parent="1">
          <mxGeometry x="425" y="78.75" width="41.25" height="41.25" as="geometry" />
        </mxCell>
      </root>
    </mxGraphModel>
  </diagram>
  <diagram id="7aEikOSLs_aQIk4r9Zsj" name="tool">
    <mxGraphModel dx="1018" dy="550" grid="1" gridSize="10" guides="1" tooltips="1" connect="1" arrows="1" fold="1" page="1" pageScale="1" pageWidth="850" pageHeight="1100" math="0" shadow="0">
      <root>
        <mxCell id="0" />
        <mxCell id="1" parent="0" />
        <mxCell id="J3KQMFhL8NenG9qHJy6Z-1" value="input" style="text;html=1;strokeColor=#d6b656;fillColor=#fff2cc;align=center;verticalAlign=middle;whiteSpace=wrap;overflow=hidden;" parent="1" vertex="1">
          <mxGeometry x="20" y="330" width="140" height="20" as="geometry" />
        </mxCell>
        <mxCell id="J3KQMFhL8NenG9qHJy6Z-4" value="" style="group" parent="1" vertex="1" connectable="0">
          <mxGeometry x="60" y="30" width="55" height="50" as="geometry" />
        </mxCell>
        <mxCell id="J3KQMFhL8NenG9qHJy6Z-2" value="" style="shape=image;html=1;verticalAlign=top;verticalLabelPosition=bottom;labelBackgroundColor=#ffffff;imageAspect=0;aspect=fixed;image=https://cdn2.iconfinder.com/data/icons/simple-files/128/csv1.png" parent="J3KQMFhL8NenG9qHJy6Z-4" vertex="1">
          <mxGeometry width="50" height="50" as="geometry" />
        </mxCell>
        <mxCell id="J3KQMFhL8NenG9qHJy6Z-3" value="" style="shape=image;verticalLabelPosition=bottom;labelBackgroundColor=default;verticalAlign=top;aspect=fixed;imageAspect=0;image=data:image/png,iVBORw0KGgoAAAANSUhEUgAAAgAAAAIACAYAAAD0eNT6AAAABHNCSVQICAgIfAhkiAAAAAlwSFlzAAAQ9AAAEPQBb05WrAAAABl0RVh0U29mdHdhcmUAd3d3Lmlua3NjYXBlLm9yZ5vuPBoAACAASURBVHic7N13mFTV/cfx953ZXfbQi1QFBUTBhoqFo1hiiSWaplhjP4kxGjVRE6MxPxM10WiKpmj02nuLXewFy7Ui2LBRFAFBetm77O7M/P64g0FkYcvcc+6d+b6eZx7UB+bzZYW93znVKxQKCCGEEC2ltOkADAaGFl8bF3/sC3QsvtQqP64AFgGLV3ktBD4GJhdfH4aBH1r9jVQ4TxoAIYQQa6O06QeMKb52AUYC2RLH5IHpwNvAs8AzYeC/W+IMsQppAIQQQnyN0iZD9KA/FNib6BO+C3OAZ4CngUfDwJ/tqI6yJA2AEEIIAJQ2o4ke+ocAAxyXs7oc8ARwPfBgGPgrHNeTetIACCFEBVPadAZOAE4Fhjgup6UWALcD14eB/6brYtJKGgAhhKhASpsNgJ8DJwLdHJfTHs8DfwgD/xnXhaSNNABCCFFBlDZDgN8TDfVXOy6nlF4kagSedF1IWkgDIIQQFaA41H8u8Augg+Ny4hQA54SB/5zrQpJOGgAhhChjShsPOAb4I9DfcTk23QicEQb+fNeFJJU0AEIIUaaUNiOIHoTbu67FkXlETcBNrgtJImkAhBCiDCltTgYuJTqJr9I9DZwYBv4U14UkiTQAQghRRpQ2fYHrgP1d15IwS4Bjw8C/z3UhSSENgBBClAmlzX5EQ/69XdeSYH8mWiSYc12Ia9IACCFEGVDanAL8ndKf0V+OngUOCwN/rutCXJIGQAghUqx4bv9fgNNd15IyM4HvhIE/yXUhrkgDIIQQKaW06QjcCnzfdS0ptQjYLwz8V1wX4oI0AEIIkUJKm+7A48AOrmtJuWXAd8PAf9Z1IbZlXBcghBCidYqn+o1DHv6l0Bl4VGnzHdeF2CYNgBBCpIjSRgEPAaNd11JGaoH7lDbfdV2ITTIFIIQQKaG0qQHuB/ZzXUuZqgN2CwP/DdeF2CAjAEIIkQLFM/1vQx7+ceoIPKS02dB1ITZIAyCEEOlwLnCQ6yIqQD/gEaVNN9eFxE2mAIQQIuGUNnsDjyEf2mx6Gtg3DPwm14XERf4wCSFEgiltNiAa+pfv13btCfzOdRFxkhEAIYRIKKVNNTCeNK7471hDoVdnyHowfzne0nrXFbVFDtg1DPyXXRcSB2kAhBAioZQ2lwC/cl1Hs2qryW23IYXh/Sj07ERhvc7Rj706QW31139uQw5vwTK8+cuLr2V4U74k8+o0vGUr3NTfMtOAkWHgL3VdSKlJAyCEEAmktNkaeB2ocl3Lqgo9OpLfcTC50UPIbzMIatp591AuT+bdWWSDKWSCqXhzE/mcvTEM/GNdF1Fq0gAIIUTCFC/4eQXY3nUtAFRnye23BbndNiE/oh94XmxRmalfknnhE6oenAR1DbHltMEPwsC/33URpSQNgBBCJIzS5lTgctd14EHuW8NpOkZT6NPFbvSSerK3v0bVw+9AU85qdjOmASPCwE/0fEVrSAMghBAJUlz1P5nojHpn8tsOoumEnckP6e2yDLw5S6i66RWyz34A7h9XvwkD/2LXRZSKNABCCJEgSps7gUNc5Rc27EXjT3Yhv+0gVyWskTd1HtVXjycz6XOXZSwFhoWBP8dlEaUi+0qFECIhlDZbAGNd5efGbMyKyw9N3MMfoDBkPRr+9AOaDtrWZRldgAtdFlBK0gAIIURy/BaIb4Vdczxo+tGONJ6zP3RI1KaDr/M8mswYGn+5N1S1c/dB2x2vtNnMVXgpSQMghBAJoLQZgYtP/7XVNJ6zP01H7uii9WiT3N4jaLjkhxS6KxfxGeAMF8GlJg2AEEIkw2+x/D250KcLDX85mNyYjW3GlkR+s/40XH4YhcHruYg/UmnT10VwKUkDIIQQjiltNgEOs5lZ6FpLwyU/dL7Kvz0KfbpEIwH9rV/c1wE4xXZoqUkDIIQQ7h2Pze/H2QyN5+xPoV/6b7wtdKml4fwDQdXYjj5JadPRdmgpSQMghBAOKW084HCbmY0n7UZ+5AY2I2NVGNSThl/vE+sJhWvQCzjKZmCpSQMghBBujQGs7bvLfWdLct/Z0lacNfkdB9N03E62Y6UBEEII0WZH2ArKj9yAxpN2sxVnXdPYUeT2GG4zcielzUCbgaUkDYAQQjiitKnG1tY/VU3jr/eFbHl/2288bQ8Kva3dW+ABh9oKK7Xy/pMghBDJ9m2iueTYNf1wWwo9Ur1mrWVqqmg6erTNRKu7N0pJGgAhhHDHyvB/oUdH10foWpXbcziFIdbOBxiltEnfQQpIAyCEEE4obToB37OR1XTkjqCqbUQlg+fReMIYm4n72wwrFWkAhBDCjZ2BTnGHFNbvTm7fzeOOSZz8toNsXmpktdsoFWkAhBDCjW1shDQdt3PZL/xrTtMJO9s6G0AaACGEEC22ddwBhT5dyO08NO6YxMoP6U1+iwE2ovorbVL3hZYGQAgh3Ii9AciPHhJ3ROJZ/BqkbhRAGgAhhLCseIb8JnHn5HZK3YfSksuNHmwryvoxhO0lDYAQQti3FTF//y107mBr+DvRCgO6UxjU00bUpjZCSkkaACGEsC/+4f8dB1fs4r/V5exMA6TuLAD50yGEEPbFvgMgr2X4f6W8ttIADFDa1NoIKhVpAIQQwr54N+Z7HrlR1vbAJ15+034UOneIO8YDUrXqUhoAIYSwr3ucb17o0RFqK+jkv3XxoNC3q42kVA27SAMghBD2dY7zzQu9Yj9gMH3sfE1SdTWwNABCCGFfvPfV9oq1v0ilgp2vSao6L2kAhBDCPhkBsMzS1yRVnZc0AEIIYZHSphqoiTOj0FMagNVZagBS9YWXBkAIIeyK/VOijAB8U6GnTAGsThoAIYSwK975f6DQTcUdkT52vibSAAghhGhW7B9FvSX1cUekz1IrX5O8jZBSkQZACCHsiv1J5C1YHndE6njzl9mIWWwjpFSkARBCCLu+iDvAmy8NwOosfU2kARBCCLFmYeDXAUtiDZEG4BssjYpIAyCEEGKtZsf55paGu1PFm2fla7LIRkipSAMghBD2xdwAyAjAN8gIwDdIAyCEEPbFug7AW1QHjbk4I1LHm7vURsw0GyGlIg2AEELYF+sIALk8mbdmxBqRJpkpX+ItDuOOKQAfxB1SStIACCGEffE2AEA2mBJ3RGpkgqk2YmaEgZ+quRdpAIQQwr7pcQdkXp0GhULcMalgqQF430ZIKUkDIIQQ9r0Yd4C3sI7M5NiPHEg8b+5SMlO/tBE12UZIKUkDIIQQloWBPxv4OO6czMsyDZB5xcqnf4D3bAWVSpXrApJOaTMA2AHoCXQvvrqt8s8r/10BnwFTgE+KP04BpqRtXkgIYcXzwLA4A7KvTKXJjIkzIvGy9hqA520FlYo0AKtR2nQHdgf2LL5GtOKXbwLstYb3/IKoGfgYeBR4OAz82JekCiES7XnAxBngzVxE5q0Z5LcZGGdMYnkzFpKZ9LmNqE/DwP/ERlApVXwDoLRRwBhgD6IH/ihKPzXSr/jaGTgWWKa0uR+4HXgyDPzGEucJIZLPyifGquteouGKw8CzkZYs1de/BHkrCyGfshFSal6hQleJKm36Ab8EfoqF+7nXYj5wL1EzMD4M/FRdJymEaDulzRRgSNw5jWfvS263TeKOSZTMe7OoOfMeW3GHhYF/p62wUqm4RYBKm8FKm38Tndh0Fm4f/gC9gJ8AzwIzlDZ/Udr0d1yTEMIOO6MANwTQVFmfLaqufclWVAF4xlZYKVVMA6C02VxpczPwEXASUOu4pDUZQDQq8aHS5kylTbXrgoQQsXrWRoj3xWKyj75jIyoRsi9+QmZy7GctrfRGGPhW9hmWWtk3AEqb7Yvz7e8APyId6x66AJcCbytt9nZdjBAiNv8FrBxSX3XbaxA22IhyK5en6oaXbSbeZDOslMq2AVDaVCltLgFeBb5HOpfADAeeUNrcq7TZ0HUxQojSKm4RvtVGlrc4pPryVI5Ut0q1/yLeTGu38jYSrd9KpbJsAJQ2g4DxwK9I54N/dT8EJittfqe0SeLUhRCi7a62FZR9/iOq7njdVpx12cffI3v/RJuRD4eBP99mYCmVXQOgtPkeMBHQrmspMQX8HnhfaVNuvzchKlYY+G8B1p7KVTcFts7Gtyrz3iyq//mc7dgbbQeWUtk0AEqbGqXN34H7gR6u64nRYOBppc0BrgsRQpTMf6wlFaDm0sfxpqf2g+s3eHOXUn3hI9CUsxk7j+hgt9QqiwZAaTMUeBk4zXUtlijgPqXNsa4LEUKUxB3AEmtpYSM15z+Et6QMDiStb6Tm9w/hLbL+e/lP2g9xS30DoLTZE5hAdIJfJakCrlfa/Mp1IUKI9rG5GHAlb84Sqn9zP96XVjYhxMJbUk/N7x7EmzrPdvQy4K+2Q0st1Q2A0mYU0ZB/V9e1OHRJ8fCgcljsKEQl+zdg9bSezNQvqTntTjLvW9szXzLeZwui2t+Z6SL+n2HgL3ARXEqpbQCUNsOAcUBn17UkwC+Bm5Q2aTjjQAixBmHgvwtcazvXW1hHza//S/bJ9Fxnn3ltOh1+cRfeF4tdxC8H/uIiuNRS2QAUj8p9HOjtupYE+RHwoGwTFCLVzgWsbWL/SlOO6r8+SdU1L9i6PKfNqu6dQM35D0Gds0ON/h0GvvU5hzikrgFQ2nQDHiNaDS++bj/KpDMVohIVj5Q931V+1X/foubc+/E+S97otvflUqr/NI4q/0Vwd4ndEuAyV+GllqrbAIufbh8HdnVdS8IdHAb+va6LEEK0XnEqbxKwmbMiMh65vTej6agdKfRyO8vqLa0ne+cbVD00CRqsbvNbk1PCwP+X6yJKJTUNgNImC9wDfN91LSmwCNgmDPzprgsRQrSe0mYv4EnXdVBTRdP3RpI7dDsKnTrYzW5oouqBSWTvfANv+Qq72Wv2KrBTOV3ZnqYG4GLg167rSJFXgF3CwG9yXYgQovWUNv8FfuC6DoBCl1pyP9yG3O6bUOjXLdYsb/5yMi99QtVdb+LNXxZrVis0AaPCwH/bdSGllIoGQGkzgmhITK7HbZ0/h4EvTZMQKaS0GQy8T8KuLi9s1IvcTkPJ6yHkN+5Tkvf0PltANphKJphC5qM5kLzH0iVh4J/tuohSS0sD8CSwl+s6UqgA7B8G/mOuCxFCtJ7S5sdYvCyotQp9upAfPYT88H4Uenai0Ct6oWrW/AtWNOHNX4a3YDnevOV4U+aSDabavL2vLT4GRoaBXwbHJn5d4hsApc1BRHP/om2+JPrDm76TPoQQKG2uBn7suo5WUdUUenWOmoGMhzd/eTScv9zZ1r22qgNGh4H/jutC4pDog2OUNooyOG7Rsd7A34FDXRcihGiTU4CtgB1dF9JiYSPe5wvxPl/oupL2OrFcH/6Q/HMAfgMMcl3EmnSuzTOsXyO7DK9nu6ErWL9nE1XZxI6mHKy02dR1EUKI1gsDvwE4CJjjupYK8+8w8G9xXUScEjsFoLQZArxHAhbA1FYX2H3zkO+OWs5Om9bTv0eOLrXf3AmSL8C8JVmmzq3m8UkdefCNjkye2cxcmH03hIF/nOsihBBto7TZBXgaWQxtw6vArsXmq2wluQF4EDjQZQ17bRly/LeWsNeWIZ3X8MBviSlzqnnwjU788/FuzF6YLXGFrdIIDAsD/1OXRQgh2k5pcwrwD9d1lLlpRFuondwyZFMiGwDXh2BsM3gFFx66gG9tXrpFn3UNHv8Y142/PdKdJaGzmZd/hYF/iqtwIUT7KW3uAsa6rqNMzSR6+E9zXYgNSW0A7gQOsZ3bt1uOS46cz9jRy/Biulx33tIsF9zbg2uednKDcT2wURj4MpcoRAopbboAE4EhrmspQ3OB3cLA/8B1IbYkbhGg0qYzDob+t95oBS/+YSaH6Pge/gDrdclx+bHzuP6kudRWW2++aoEzbIcKIUrmCuThH4eFwLcr6eEPCWwAiM76VzYDf7jDcp46bxbr97R3au6hOy3jiXNn0a+79cstfqq06WE7VAjRPkqbscCxrusoQ/OAfcLAn+S6ENuS2AAcYTPs9P0Xc/Mpc+hYY38qZLuhK3jpD58zrF+jzdguwAk2A4UQ7aO02QD4j+s6ytAngA4D/3XXhbiQqAZAabMesLetvO9vv5yLDpsf65D/uvTvkeOeM76gW0erF0x922aYEKLtlDYecCMgI3el9TLRw/8T14W4kqgGgGhlq5XTCbfasIFrTpzr9OG/0rB+jdx8yhyy9v5v7Ky0ScwBBUKItToD2MN1EWXmbmDPMPDnuS7EpaQ1AFaG/3t3zXH3L76gU4fk7IDYa8uQi4+YbyuuIzDaVpgQom2UNlsDF7muo4w0Ab8FDg0Dv951Ma4lpgFQ2gwCdraRdeFhCxjYy96Cv5Y6eZ/FbD90ha04+UQhRIIV70K5DZDRutL4GNgpDPyLwsBPzqc/hxLTABDt+499QH6zDRo4cszSuGPa7I+HWxsFkAZAiGS7FBjhuogycQ2wTaUu9mtOkhqArW2EXHTYAjIJmPdvzs6b1rP/NnU2onZU2nS0ESSEaB2lzf7Aya7rKAMzgO+Hgf+TMPCXuy4maZLUAMR+uMUuw+vZZ6SVh2u7XHDoAhuLE2uAMbGnCCFaRWnTB7jedR0ptww4D9g0DPwHXBeTVFZW3LdQ7A3A0bsld+h/VSPWb2CHofW8+knsFyHuATwRd4gQolWuA/q4LiKl8kRbJs8NA3+262KSLhENgNKmE9A3zoxsBvbfOj0jQAduV2ejARgVd4AQouWUNj8DvuO6jhTKAfcBF4WBP9F1MWmRlCmA2D/977xpSI/OVg/baZcDtrXSrMjBIkIkhNJmBHCZg+g0r4hfTnQ98rAw8MfKw791EjECAAyNO+DAUcmf+1/VJv0b2XRAIx/Oqo4zplucby6EaJniwVy3YvkeFKCBaPt1b6J7Br4HdLBcQ1tMBXzgqjDwF7ouJq2S0gDEPgIwelj6znwYPaw+7gage5xvLoRosQuAbRzknhsG/hvFfx6ntOkOHEbUDOzooJ61mQHcBdwp2/lKIykNQOwjAP17WL91r936d4/9sCIZARDCMaXNt4AzHUQ/A/xl1f8QBv4i4CrgKqXNRsBexdceRKMENuWAt4DxwH+Bl+UAn9JKSgMQ6whAxoM+XVPYAMTftFQrbTqGgZ+u+REhykTxau6bsL8eayFwzNoeqGHgTycaZveLFxKNBPYkOkZ8BDCM0p5SOA94G3gReAF4JQz8ZSV8f7GapDQAsS537901R1U2fY2jpVGL7oA0AEK4cRWwgYPcE8PA/7ylP7nYKEwsvgBQ2lQRjd6OKL76EX0/6bbKqyvROoPlq70WAdOIruOdAkwJA39xu39XolWS0gAsivPN+3ZP36d/gL7drNxX0B2YZSNICPE/SptjiI5At+3GMPDvbu+bhIHfBHxYfN3f7qqEdUnZBhhr57c0TPDZv2uxtN7K/x5ZByCEZUqbIUTb12ybCvzcQa5IoKQ0ALGOAMxakJSBjtaZvdBK3WnY8iNE2VDaZIFbgC6Wo3PAj8LAT8eRqCJ2FdEArGjymL80G2dELGYvtFLzZzZChBBf+S2gHeReGAZ+4CBXJFRSGoDYF3/MsvMwLanZi2KvuQlpAISwRmkzmqgBsO0V4EIHuSLBktIAxDoCAPDxF7EeqBOLT+Kv+dPiQh4hRMyUNp2Jhv5tz0kuIxr6l7/r4msqpgEY91bHuCNKavkKjxcmx34q6NS4A4QQX/kHFg49W4NTw8Cf4iBXJFzFNACPTuxEUy49uwGeeqcj9Y2x1yvfFISwQGlzMNHxurbdEwb+9Q5yRQokpQGI/UG0cFmGlz6M/Xrdknn4TSsjFjICIETMlDbrA/9xED0TONFBrkiJRDQAYeB/RnQiVKweeKNT3BEl0dDk8ehEK7XKCIAQMSoeoXsT0NNydIHoqN8FlnNFiiSiASh6Ju6AG5/vwiw7e+vb5T9PdWXhMiv/a2QEQIh4nUF0kY5tfw0D/2kHuSJFktQAxP6HNWzwuPDeHnHHtMuSugyXPGDllt48MgIgRGyUNlsDFzmIngSc4yBXpEySGoBniIatYnXzC12YPLOUF1iV1mUPd2fBMitnFjwnJ4IJEQ+ljQJupbS35bVEPXBEGPgNlnNFCiWmAQgDf+VVkLHK5eHs23pSSODlgNPmVvOvx60dzX+7rSAhKtClwGYOcs8KA/99B7kihRLTABRZmbN68u2O/PH+ZE0FLKvPcMjf+xI2WNmq2ADcayNIiEqjtNkfONlB9Lgw8P/pIFekVEU2AAB/vK8H972WjF0BhQIcf2Vv3pthbbTw8TDwF9oKE6JSKG36ANc5iP4SOM5BrkixpDUA44FGG0GFAvz4P32Y9Kn7y/DOv7snD0+w2ozI8L8Q8bgW6Osg94Qw8Oc4yBUplqgGIAz8ZVgcmq5r8Djgkn68+IGbA4LyBfjtHT259CErq/5XqgMetBkoRCVQ2pwEHOAg+j9h4D/kIFekXKIagKI/2QybvzTLAZf058bn7V7NvbQ+w9i/9eOvj1h9+AM8GAb+ctuhQpQzpc1w4C8Ooj8EfukgV5SBxDUAYeC/DTxiM7OhyeMkvzdn39aLRgv3BXzyRTW7nz/A1QVFd7gIFaJcKW1qiLb8xX5712oagSPDwK+znCvKROIagKI/ugi9Ylw3tv7VBtwVdI5lm+C8pVnOvLkX2/1mA1dnEawAnnQRLEQZuwDY1kHu78LAf9NBrigTXiGJG+IBpc1zwG6u8kduuIILDl3AXluG7X6vpfUZ/jGuG5c/2o2l9c57rueAw2TBkBDtp7TZnWj3ku2/2M8De4SBn7ecK8pIkhuAbwOPu65j/Z5NHLBtHQeMWs6uI+qpzrbs6zV3cZZH3+rIg2924rn3lI2rfVtjFnBIGPgvuS5EiLRS2vQgOnZ3oOXoRcDI4iVqQrRZYhsAAKXNG8Ao13Ws1LVjnh2GrmD9nk30656jf/fox/pGj9kLs8xeVMXshVmmzq3mrWkdyCf3SwvR/OFZYeBf7roQIdJIaXMncIiD6CPCwJetvKLdkt4AHATc47qOMncHYGRngBAtp7Q5GrjRQfQtYeAf5SBXlCHnE9LrcB/R4UAiPocBryltNnVdiBBpoLQZDLg4cnc6bo4YFmUq0Q1AcYHLEcB817WUuc2A15U2B7suRIgkU9pkgVsAuweHQA44Kgz8JZZzRRlLdAMAEAb+TOAYLFwVXOG6AHcrbS5T2lS5LkaIhDoX2MlB7sVh4L/oIFeUscQ3AABh4D8C/M11HRXiDOBppU0/14UIkSRKmx2B8xxEvw6c7yBXlLlUNABFZxP9RRDx2xWYoLTZxXUhQiSB0qYz0Wl/tkfHlhOd9tdkOVdUgNQ0AGHgNxItWJM5MDv6A88obX7huhAhEuAKYKiD3NPDwP/YQa6oAIneBrgmSptDgDtd11Fh7gaOL97WKERFcbgd+f4w8H/gIFdUiNSMAKwUBv5dRN24sGcs0S6BEa4LEcImpc36wNUOomcDxkGuqCCpawAAwsA/DbjYdR0VZjjReQEuTj4TwjqljUd02E9Py9EF4Ngw8GX7s4hVKhsAgDDwfwOchmwPtKkzcKfS5m+yVVBUgF8CezrIvSIM/Ccc5IoKk7o1AKtT2hxG1KU7uV+3gr1IdKHQbNeFCFFqSpuRwGvY/77yLrBdGPgrLOeKCpT6BgBAabMX8F/sn85V6b4ADg0DX45rFmVDaVMLvEl0QqZNK4Dtw8B/x3KuqFCpnQJYVRj4TwHfAua6rqXC9CM6NOgM14UIUUKXYv/hD3C2PPyFTWUxArCS0mZj4DHc7NetdPcCx4WBv9R1IUK0ldJmP+BRB9FPAvuEgV8+35BF4pVVAwCgtOkEnEN0pG0Hx+WU2hfAHGCk60Ka8SFwUBj477kuRIjWUtr0Bt4B+lqOng9sKetphG1lMQWwqjDwl4eBfy6wBW46+TjkiM4+2BTYEfDdltOsTYFXiwszhUiba7H/8Af4sTz8hQtlNwKwOqXNAcDfSe+0QAD8LAz8iav+R6XNccC/gVonVa3bFcCZxSOchUg0pc1PgSsdRPth4P/YQa4Q5TcCsLow8B8GNie6xavOcTmt8SXRSWA7r/7wBwgD/3qia0mn2S6shU4FnlPaDHBdiBBro7QZDvzFQfTHwOkOcoUAKmAEYFVKm0HAn4GDgazjcprzPtGIxc1h4Nev6ycrbXoANwPfibuwNppLtFXwOdeFCLE6pU018AqwreXoJqLm/jXLuUJ8paIagJWK53sfCxxHcqYGngD+Bjze2pXAxSNLf0t0Z3gSR3VywDlh4P/ZdSFCrEppczHwawfR54WBf6GDXCG+UpENwErFB+duwAnAQYCyXMLbRAsVbynFynmlzbeB24Be7X2vmNxHdMa5XOksnFPa7A48jf2m+SVgtzDwc5Zzhfiaim4AVqW06QyMAXYtvran9MeALgOeInrojwsD//MSv//KaY57iOpPoo+BH4aB/67rQkTlUtp0J2rAB1qOXgKMDAN/uuVcIb5BGoBmFI8DHU3UFAwF1l/l1W0dv3wp8BHwAdHe+JWvyWHgN8RV80pKmw7A5cCJcWe1UR3wkzDwb3VdiKhMSps7gEMdRB8VBv4tDnKF+AZpANqgOFowAKgGGojO8P7qxzDwlzss7ytKm2OItjbZntpoqX8Bv5CtgsImpc1RwE0Oou8IA/9wB7lCrJE0AGWueKvZvSRnsePqXgHGxjEdIsTqlDaDgYlAV8vRM4CtwsBfZDlXiGYlccW4KKEw8CcB2wEPua6lGaOBCUqbPVwXIsqb0iYL3IL9h3+eaOhfHv4iUaQBqADFbzzfA84l+maUNL2BJ5Q2Zxd3ZggRh3OIDs+y7dIw8J93kCvEWskUQIVR2uwF3A6s57qWZjwAHBMG/mLXhYjyobTZEXgRqLIcPQEYLetcRBJJA1CBlDYDgbuJLhZKok+IbhV823UhIv2KFOlT8QAAIABJREFUi3YnYn8dTB0wKgz8DyznCtEiMgVQgcLAn0F01sG/XdfSjI2BoLhaW4j2uhw3i2DPkIe/SDIZAahwSpsfAf8BOrqupRlXAqfbOD9BlB+lzUFEB2PZ9lAY+N91kCtEi8kIQIUrHkoymmjYPYlOAl4oTlsI0WLFOz+udhA9h+h4cSESTRoAQRj47xBtFXzAdS3N2IFoq+BergsR6VDcTXIj0NNB/HFh4H/pIFeIVpEGQABQXHX/A+A3RLf3Jc16wONKm3Nlq6BogV8CezrI/WcY+OMc5ArRarIGQHxD8VCe24E+rmtpxkPA0XKwiliT4umXr1H6y7zW5X1guzDwQ8u5QrSJNABijYrzp3cD2nUtzZhCtFVwkutCRHIUL/F6A9jccnQDsGMY+BMt5wrRZtIAiGYpbaqBvwKnuK6lGSFwUhj4N7ouJO2KN0h2AmqJLo9a+aoF6oluuFz5WhYGfhJPlERpcwXwcwfRZ4WBf5mDXCHaTBoAsU5KmyOIVlN3cl1LM/4DnBYG/grXhSSV0qYK2Izok/Gg4mvgKv/co5VvWQfMAqYSjcZMXeWfPw4Dv640lbec0mY/4FHbucAzwF5h4Ms3U5Eq0gCIFlHabEF0q+AmrmtpxuvAwWHgf+a6ENeKl95sAYxa5TWS6NO8DU3Au0Q3Pb4CvAp8GOcDUmnTG3gH6BtXRjMWAluGgT/Tcq4Q7SYNgGgxpU1X4Hrgh65racZ84Igw8J9wXYhtSpu+wL7AfsC3af0n+rgtAl4iWsD5UBj4s0r55kqbB4EDS/meLTQ2DHwXBw0J0W7SAIhWU9qcBfwJyLquZQ3ywPnAheU+JKu02Ro4mOihvw2Qlu2RBeBNonMnHmzvnQ9Km58SnRhp2w1h4B/nIFeIkpAGQLSJ0mZ34A7sD7m21CNEd7AvdF1IKSlt+gBHAscCW7mtpmSmAD5wXRj4c1vzC5U2mxLduGf7KOupwNZh4C+1nCtEyUgDINpMaTMAuAvY2XUtzZhGtFXwLdeFtEdxAd/3iB76+2L/SltbGoD/AleFgf/8un5ycZfKK8C2cRe2mhywSxj4geVcIUpKGgDRLsVvwpcCp7mupRn1wMlh4F/nupDWKu5pPx44C9jIbTXWfQD8C/DDwK9f009Q2lwM/NpqVZHfh4F/voNcIUpKGgBREkqbQ4FrSe5WQR84JQ1bBZU2XYguQfolyZ1isWU2cDFw9aqNgNJmN6Ltd7aPM38FGBMGfhKPyxaiVaQBECWjtNmMaKvgcNe1NONNoq2C010XsiZKm85En/ZPBbo7LidpZlFsBIgOKHqb6BwDm5YSzftPtZwrRCykARAlVfz0eh3R6vQkWgAcGQb+Y64LWal4udHRRDsr+jsuJ+lmAtNxs+7kuDDwb3CQK0QspAEQsVDa/BK4hGQuWMsDfwAucH2krdJmJ+ByouuYRXLdEwb+WNdFCFFK0gCI2ChtdgXuBPq5rqUZ44AfhYG/wHaw0qY/0T0Lh9nOFq02E9jKxZ8TIeJkewGNqCBh4I8n2qL1gutamrEf8KbSZpTNUKXNQUTH1srDP/kKRFdPy8NflB0ZARCxK+5j/zPwC9e1NGMF0Q4BP86Q4vqIK4j284t0uCwM/LNcFyFEHKQBENYobcYSLRDs7LqWZlxHdGbAGvedt0dxrv8WYHCp31vEZhKwQxj4Da4LESIO0gAIq5Q2w4lOexvhupZmvEV0euC0Ur2h0ua3RPcTJPHuBLFm9cCoMPDfd12IEHGRBkBYV9zvfi1wiOtamrGQaHFgu+6WV9oo4AaS+/sUzft5GPj/dF2EEHGSBkA4o7Q5negY4SRuFSwAFwLnt2WroNJmfaLb7qwuMBQlMS4M/P1dFyFE3GQXgHAmDPy/A98iOu41aTzgPOBRpU2v1vxCpc32wOvIwz+NvgTkil9REaQBEE6Fgf8i0V3267z9zZF9gAlKmxYd1FPc4jceOdEvrU4IA3+O6yKEsEEaAOFc8RvuXsBlrmtpxiDgRaXNT9b2k5Q2hxMdfFRrpSpRaleFgf+Q6yKEsEXWAIhEKX6Cvh7o4rqWZtwA/CwM/HDV/6i0OYqoblnpn04fAtuGgV/nuhAhbJEGQCSO0mZTolsFN3ddSzMmEm0VnAqgtDkeuAYZUUurRmB0GPgTXBcihE3SAIhEUtp0InqoHu66lmYsAo4CBgBXES0aFOn0mzDwL3ZdhBC2SQMgEk1p83PgL0C161rWYOVfnnQ+/KurKXTpTqFrDwpduxV/7B69unSHfA6vPoSwDq++DupDvFX/ub4Owjoy8+dCY2oPy3ud6NO/01shhXBBGgCReMVjdO8C1nddS2plq8hvuDG5YZtT6DMgeuCrTqV570Ieb94cMrM+IzN7BplZn+Et+LI07x2/ENg1DPw3XBcihG3SAIhUUNr0Ae4gOjdAtER1DbnBm5DfZAtyQ4ZDTQdr0d7CeWQ/epfMh++QmTvLWm4bzSI683+m60KEsEkaAJEaSpsscBHwa9e1JFaHWnJDR0QP/Y2GQZX7mRNv0XyyH75DdtKreEsWuS6nOROAXWQXgKgk0gCI1FHafB+4EejqupakyPcfSJPeg/xGwyCT0J2IhTzZj94l+8ZLZGZ/5rqaNbkXGBsGvnxTFBVBGgCRSkqbYUTfsLd0XYtLhW49aNplX3LDtyRNaxEzsz6j6rXnyXySuMv2LgoD/7euixDCBmkARGopbToCVwNHuq7FtkJtR3Kjv0XTNhqyCf3E3wKZz6dR9ezDZOYkap3A/mHgj3NdhBBxkwZApJ7S5mTgr0CN61pil62iaRtNbvS3KNQq19WUSIHsuxOoeuFxvOVLXRcD0eVUW4aBP991IULESRoAURaUNqOBu4ENXNcSD4/c8K1o2mUfCt16uC4mHo0NVL/wONkJL7uuBOCeMPDHui5CiDhJAyDKhtKmN3A7sKfrWkqp0LU7jQccRn7Ahq5LsSIz9QOqH7sHr26561KOCgP/FtdFCBEXaQBEWSluFbwAOJs0rYprRn7wpjTufwgF1dF1KVZ5y5dSPe5uMtM/dlnGYqKpgBkuixAiLtIAiLKktPkucBPQzXUtbeJlaBqzF0077k4Z9DFtVKDq1eepeuEJ/nfqsnVPh4G/l6twIeIkDYAoW0qbocB/ga1c19IqNR1o+N6PyG+4setKEiH7wdtUj7sbck2uShgbBv49rsKFiIs0AKKsKW0U0W19R7uupSUKqiONBx1Hvl+ZrmVso8zM6VTfd3N0AZF904ARYeCvcBEuRFzk/nJR1sLAD8PAPwY4CUj0lXWFzl1pOOxEefivQX79jWg44qeudkAMBk53ESxEnGQEQFQMpc0ORFsFB7muZXWFbj1pOMSU7xa/EvGWLKLmtivxli2xHb0UGBYG/hzbwULERUYARMUIA/81YBTwpOtaVlXo2JmGscfLw78FCl270zD2BBe7IroQ7S4RomxIAyAqShj484B9gQtxuLT8K9XVNP7gaArde7muJDUKvfrQ+MNjodr6wY8nKG02tx0qRFykARAVJwz8fBj45wHfBdzdT+tlaDjgcPL9BzorIa3y/QfS8P2jIGP1W1gGONNmoBBxkgZAVKww8B8mmhKY6CK/cc8DyQ8d4SK6LOQ33JimXfaxHXuE0maA7VAh4iANgKhoYeBPBTTwrs3c3PCR5LYebTOyLDVtv4vtJqoGONVmoBBxkQZAiOib+lBbYYWu3Wnc+/u24sqcFx2VbHcB5YlKm842A4WIgzQAQsBBgJ27dT2Pxv0PhQ61VuIqQaFDLY3fPdLmeoDugLEVJkRcpAEQAo6yFdS04+7kN9jIVlzFyPddn9zIHW1Gnq60ke+fItXkD7CoaEqbDYDdbGQVevamaaeyuqk4UZr0nlDTwVbchlj6cyNEXKQBEJXuSCz9PWjc/TuQydqIqkiFjp2Ktydac6TNMCFKTRoAUemsDP/nN9qE/JBNbURVtKZRO1PoYu0G6IOUNtaGHIQoNWkARMVS2mwNxH+yWyZD47e+E3uMAKqqaRrzbVtp3YH9bIUJUWrSAIhKZuXTf26rHSj06mMjSgC5zbch38faWT0yDSBSSxoAUZGUNlngiNiDMhmadpC1YnZ5NO2+v62wA5Q2XW2FCVFK0gCISrUX0C/ukNwmW1Do2j3uGLGa/KChttZc1AJ72wgSotSkARCV6kc2QnKjxtiIEWvQaO+egD1sBQlRStIAiEoV++Kt/IAN5aY/hwq9+9taeyENgEilKtcFCGGb0mYg0CvunNyoneKOEOuQG7YFVfOfiTtmuNKmfxj4s+MOqhRKm1qiw5aGAINXefUD6oG6dbw+BF4OA3+59eJTRBoAUYm2iT2huoacXPXrXH6TzeGV2BsAiEYBbrURVI6UNgrYlWg9xd7AloDXzrdtUtpMAMYDLwAvhoG/oJ3vWVakARCVaOu4A3KDN4Gq6rhjxDrk+wyg0K0H3uKFcUdJA9BKSpshwCFED/ydgVIfqlQF7FB8nQkUlDbvEjUE44FxYeAvLXFmqkgDICpR7CMA+U22jDtCtFBu2BZUvfFC3DGy17MFittvvwOcBOxD+z/lt4ZHNLKwJXAysEhp82/gijDw51isIzFkEaCoRPGOAFRVkRs6PNYI0XL5TeI/7BEYorTpZCMojZQ2/ZQ2vwWmAQ8A+2L34b8m3YFzgOlKmyuVNkMd12OdNACioihtugMbxZmRH7QxVNfEGSFaIT9gEIVOXeKO8QDp+lajtOmstPkTMB24AEjitpha4KfAR0qbu5Q2o1wXZIs0AKLSxD7/n19/w7gjRKt45IdZGQXYzEZIGihtPKXNMcBHwNmUfn4/DhlgLPCG0uYppU3Zb+ORBkBUmvjn/wdIA5A0uU22sBEj2z4Apc1o4BXgBqC/22rabE9gvNLm98V1C2VJGgBRaeIdAchkyPfbINYI0Xr5AYNsxFT0CIDSpkppcxnwMtHK+7TLAr8DnlfalGVXLw2AqDSxjgDke/eHatn+lzhV1RQ6do47pWIbAKXNAOA54AzcL+4rtZ2BiUqbsa4LKTVpAETFUNp0IOZh2kLf9eN8e9EOFi5lGqy0KbeH3zopbfYE3iJ6UJar7sBdSptrlDYdXRdTKtIAiErSm5jPvrDwKVO0UaFbj7gjqoBucYckRXGh33nAE4CVSxcSwABvKm1Gui6kFKQBEJWkNvYEpWKPEG1j6VrmnjZCXCuOdPwb+AOV9xwZDrxcDrsEKu1/nKhssTcAhdqyGR0sO4WusY8AgIVLplwrPvyvIto7X6k6Ao+kfSRAGgBRSaQBqGDSALRf8eF/NfAT17UkQHfgcaXNMNeFtJU0AKKSyBRABbOwBgDKuAEoPvyvIZoHF5G+wJNKm1Tu/ZUGQFQSGQGoYJbWAJRtAwBcCpzguogE2pCoCVjPdSGtJbcBikoS/wiANADJVdOBQm1HvPq6OFP+WNwv/iYwofjjB2Hg5+IMjZvS5mCiPf5izYYTTQd8Kwz8Ja6LaSlpAEQlsTACIFMAiZaJfZt+J2BM8bVSndJmIv9rCN4E3k9LU6C02QS4znUdKbAt8JDSZs8w8JtcF9MS0gCIShJvA1DTATIyq5ZkXn3oIrYjsFPxtVKotJnE15uC95L24CgeenMvEPt1imViV+BM4GLXhbSENACiksTaABTkCuBka1gB+bzrKlZSwOjia6UVSpu3+V9D8Cbwbhj4jQ7qW+lqwMpNSmXkd0qbu8PAn+K6kHWRBkBUklgbAK9uefSAkVGARPLCWOf+S6EDsH3xtVKD0uYdvt4UvBMGfkPcxShtDgWOjDunDCngSuDbrgtZF2kARCWJdwqgkMdbutjWdjPRSjEv/otLDTCq+FqpUWnzLv9rCCYAb4eBX1+q0OLQ/6Wler8KtLfS5kdh4N/iupC1kQZAVJJFcQd4SxZKA5BU6WwA1qSa6FbLbfjfnvwmpc17fH33waQw8Nu66OFsYGB7C61wf1XajAsDf77rQpojDYCoJNPjDvCWxN5jiDbyQicLAG2pAkYWX8cX/1tOafM+X28KJoaBv9ZOSGmzEXBWfKW2TcaD3l1z9O/RRL/uObrU5pmzOMvshVXMXpRlWX3ipt56A5cBx7kupDnSAIhKMj3uAG/JwrgjRFuVzwhAS2WBLYuvY4v/Lae0+YCv7z6YGAb+slV+3WXYODNjHbIZ0JvUc+Co5ey3dR2D+zSSXcszfml9hlc/7sCDb3Tikbc6MXth1l6xzTtWaXNTGPjPui5kTbxCoeC6BiGsUNrUACExnoCZ22IUjfseHNfbi3aoeuUZql580nUZSZQHPiJqBmYCv3JZzNC+jZxx4CIO3LaOXl3adlRCoQBvTu3AjeO7cOPzXWjKxX7+w9pMBjYPAz9xD1sZARAVIwz8BqXNbGD9uDJkCiDBynsKoD0yRCfZDXdZxHpdcpzzg4WcsMdSqrPte1Z6Hmw3dAXbDV3Bqfst5nd39uSBNzqVqNJWGwHsAox3VUBzEjdpIkTMpsf55t5imQJIqszCea5LEGvgeXDGAYt4768z+OneS9r98F/dsH6N3H7aHJ79v1lstkHsuyebk8h1ANIAiEozPc4395YujsYfRcIU8GZ95roIsZpOHQrcfuocLjh0AV1q4z2kaceN63nu/2ZxwLbLY81pxlilTWcXwWsjDYCoNNNjffd8Dm9RYnf9VCxvwby0ngNQtgat18Sz/zeT725n74HcuTbPnafP4awDrU/VdQLG2g5dF2kARKWZHndA9pPJcUeIVsrM/NR1CWIVmw5o5MU/zGSLgfaH5D0Pfn/IAv59wpe2oxM3DSANgKg00+MOyHz8btwRopUys6QBSIpuHfPc/YsvWK+NK/xL5djdl3Km3ZGAXZQ2G9sMXBdpAESlmR53QGbWDLxlqbkSvAIUyEz/2HURgmhv/82nzGHjfi7vN/qf88cusL0m4FibYesiDYCoNJ8BMV+5WiDz8XvxRogWy8z+PFqcKZy74ND57LVlcrZjZjy47qQvbe4OOFppk5jnbmIKEcKG4i1qQdw5WWkAEiPzkUzJJMEWAxs4db/kNWKda/P89WhrC3cHAtvaClsXaQBEJXo07oDMjGlpuH62ImSlAUiEiw5bQMbpgXzN23VEyLdHWvv7urmtoHWRBkBUonGxJxTyZD55P/YYsXaZubPwFi9wXUbF232zkL23SnZDfOGh1hqUzayktIA0AKLihIE/iejM81jJNIB72UmvuS5BABccmvwmbIuBDRyil637J7afNABCOPZY3AGZTz+BhhVxx4hmeGEd2fcnuC6j4m06oJFRQ9Lx9+CIMUttxEgDIIRjsa8DINdE1YSXYo8Ra5Z9+1VoTMZ2s0p24CgnR++2ya4j6umq4j2SGNhIaaPiDmkJaQBEpXoKiP3pUPXaeLw6K8OKYlW5HNkJsW/2WOm3wFXA60A6PupalKYGoKaqwD7xLwZcefuic9IAiIoUBv4SIP6P5w0rqHrpqdhjxNdlJ0/EW25lOPetMPAvCgP/pDDwdwC6ANsABrgSeA2ot1FIEvXrnmO7lAz/r3TgKCuLFRMxDVDlugAhHBoH7B53SPad12katTOFnr3jjhIATY1UvfSkrbTrV/2XMPAbgYnF17UASpsqoq1fo1Z5jQRqbRXpyjaDV+AldOtfc7a107BIAyCEY+OAS2JPyeepfn4cDT84OvYoUZx2sXPy3wrg1nX9pDDwm4BJxdd18FVTsBnfbAoSMTdcKv27x3zoZgws1ZyIKQBpAETFCgP/HaXN58AGcWdlpkwmM2Mq+YFD4o6qaN7SxVS9/rytuAfCwG/T/rZiU/B28XU9gNImC4zg603B1kDHklTrQP8ebi/8aQtVU6BbxzyL62KdIU/E9Ls0AKLS3QKcbSOo6rlHaTjqZCBlY6IpUjX+MZsr/68r5ZuFgZ8D3i2+boSvmoLhfLMp6FTK7LgMSOEIAMCAHk0srquJMyIRpyJJAyAq3d+B07EwH5uZM5Ps5EnkRmwdd1RFynw2hezkSbbiPgdiX2hQbAreK75uAiheJrOmpqBz3PW0Vp9u6RsBgKjuyfEeFSYNgBCuhYE/R2lzA/BTG3lVLzxObuPNobraRlzF8OqWU/3InUDBVuSNYeDHvmF8TYq57xdfN8NXTcGmfL0p2AbHTcGiuqzL+DZbtDz2EXppAIRIiMuAHwOxf7fyliyi+ukHaNz34LijKkiB6nF329r2FwWutvrftWJTMLn4ugW+ago24ZtNQRdbdc1emM4GYPai2B+N0gAIkQRh4E9R2twNHGYjL/vum+QHDiG3eWJuBU21qjdeIjPtQ5uR48PAn2IzsC2KTcEHxdetAEobDxhG1AyMAX4WZw2zF6WvAWjKecxbEnvd0gAIkSCXYKkBAKh+6n7yfdensF5fW5FlKTNnJlUvxH6tw+qutR1YKmHgF4CPgI+UNncBxxPj+pcv4v8kXXJzFmfJxz+TlIgGIBFbEYRwLQz8icDj1gIbG6l56DZobLAWWW68+pDqh26HnNWFZh8At9sMjEtxgWGsQycfzkrfWpcP7NQsDYAQCXOxzTBv/lxq7rsJcuncKuVUYwPV996At2i+7eSzinv4y8X7sb755zV8Ni9dowCPvmXl2AVpAIRIkjDwnwNetZmZ+WxK9Cm24GRBeTo1NVFz341kZn9mO/mpMPAfth0as1gbALD2QC2Zh9+0csTCHBsh6yINgBBfZ3UUACD7yftUP3YvFrewpVc+R81Dt5L5bKr1ZOAM26EWxN4APDIhFWcWATDp0w7MmB/7iEUesHZV5dpIAyDE1z1AtJXKqux7E6h++iGkCViLQoHqR+8iM+UDF+nXhoH/tovgmL0Xd8D4ybUsWJaO3QD3vWalWXk7DHwrl1WsizQAQqyiuEr6FBw8ibNvBdF0QFM5TTGXSK6J6kfvIvuBk2fwUuA8F8EWTAFiXYnamPO45IHucUaUxPylWa56squNqPE2QlpCGgAhVhMG/jNEd7lbl/3wHWru9vHCRKwRSgRv+VJq7riG7OSJrkr4Uxj4iZizLbXigsaP4s65+qmufJrwxYB/ur87S0Irj8QXbIS0hDQAQqzZrwDrE80AmZmfUnPblS5WuCdO5ovPqbn5ny4W/K30KfA3V+GWxL4OYEWTx+/v7hl3TJtNm1uN/4yVT/8gDYAQyRYG/nLgOBxNynsL51Fzy7/IfviOi/hEyE6eSM0dV+MtW+KyjLPDwK93WYAFz9oIuTPozCsfx37nVpv8+taeNDRZuaXzoySNJkkDIEQzwsAfD1zhKj866OY2qh+7p7IODGpqpOq5R6LLfZqsXe27Js+HgX+HywIsuQOIvckpFODwy/syc0GypgIufag7D9vbqZCY+X+QBkCIdfkN8LHLArLvvkmHG68gM3uGyzKsyHw2hQ43XE7VGy+6LmUOcITrImwIA38RcJ+NrDmLsxzy976EDVY+ba/TuLc62p6akAZAiLQIAz8EjiXau+uMt2g+NbdfRfVTD+DVLXNZSiy8sI7qcXdTc5efhLUPOeDwMPBnuS7EImu3G741rQM/uboPBcc7Xj+YVc1xV/axce7/So3A09bSWsAruP6/IEQKKG0uBc50XQcANR1o2n5XmrYbA9U1rqtpt+z7b1H13CN4dctdl7LSOWHg/8l1ETYVrw6eDgy0lfn97ZdzzYlz6dTB/jPopQ9rOfzyvsxbavV8gpvCwD/GZuC6SAMgRAsobWqBt4DhrmtZqdCpC00770Vuy+3AS9lgXiFP9sN3yL72PJm5s11Xs6qHgO8Vz4OoKEqbC4FzbWZutWEDd//iCwb2snf2xQ3PdeG0G9ajMWd1GqIAbBkGfuwHL7WGNABCtJDSZgfgZSBRx5oVevaOGoFhm0MmUaV9U1MT2ffepOq18XiLF7iuZnXTgG2Lc+IVR2mzMQ7Wu/TumuOmk+ey22ZhrDlhg8d5d/bk3090izWnGQ+HgX+gi+C1kQZAiFZQ2hwP+EAyVjGtoqA6kR8xktwWo8j3GeC6nK/xli0h+94Esm++lNQ1DPXAzmHgT3BdiEtKm/HALi6yDxy1nD8csoBNB5R250e+ALe80IUL7u3hcgfCmDDwX3IV3hxpAIRoJaXNL4C/uq5jbQq9+5HbYhS5EVtT6NjZSQ3e4oVkP36XzEfvkpk1g4Tfc/CTMPCvcV2Ea0qbY7G4IHB12Qwcs9sSzv7eIjZo57RAvgCPT+zIeXf15P3Pna6VeSkM/DEuC2iONABCtIHS5vfA71zXsU6ZDPlBQ8kP2JB8/4EU+m9AoTam61kbG8nM+4LMZ1Oih/6cmfHklN6NYeAf67qIJFDaVAETgC1d1uF5MGrICg7YdjkHjqpjxPotOwcjbPB45l3FwxM68ciEjrYX+TXnu2HgP+S6iDWRBkCINlLaXA6c6rqO1vEo9OhFvv9A8gMGUei7PoVOXSjUKqipoUUzG7kcXn0d3rw5ZObOxps7i8zcWXgL5kHB6W7JthgP7Fvc7ikApc1o4CUStE18w/Wa2LhfI/17NNG/e47+PZroXFtgzuIssxdmmb2oitkLs7z9aQfqEnLGQNF7RIv/EvmglQZAiDZS2njAdUTnBKSfl6FQWwsdFAXVETqoqB+or8dbEcKKerwV9a5P5yulp4hW/MvNS6tR2vwL+JnrOsrAj8LAv9V1Ec2RBkCIdlDaZIG7gB+6rkW0yqPAQRVwzn+bKG26AZOB/q5rSbEHwsD/vusi1iYxQzxCpFEY+DngcOBJ17WIFrsf+IE8/JsXBv5i4DTXdaTYTOAE10WsizQAQrRTGPgNwA+AwHUtYp3uBMYW/5+JtQgD/27gEdd1pFCeaOjf+ZnW6yINgBAlULw+eH+gcu/vTb6bgSPDwLd37Fz6nQwk5ozmlPhTGPjPuS6iJaQBEKJ0coC1e0VFq/jAscUpG9FCYeB/Cpzjuo4UCYDzXRfRUtIACFEjJjOHAAAgAElEQVQ6/wCGuC5CfMM/iQ76Sd0exSQIA/8KEn7wVUIsBo5I0wiTNABClIDSZiyQqJu+xFfuTeo+7LQIA/8M4FrXdSTcT8PAn+66iNaQBkCIdlLabAD8x3UdolnXKW3cnIdcXn4C3O26iIT6TRj4d7guorWkARCiHYqHAd0I9HBdi2jWYOAy10WkXXEK5UhgnOtaEqQA/CwM/ItdF9IW0gAI0T5nAHu4LkKs04lKm31cF5F2YeA3AgcBL7iuJQGagKPCwL/SdSFtJScBCtFGSpuRwGuA06vGRIt9DmxRPORGtIPSpivwLLCt61ocWQEcEgb+g64LaQ8ZARCiDZQ2tcBtyMM/TTYALnddRDkIA38J8G0q8wTMZcD+aX/4gzQAQrTVpcBmrosQrXaM0ua7rosoB8WT7vYBfgWUzQ1R67AQ2CsM/GdcF1IKMgUgRCspbfYjukxGpNMXRFMBiT+qNS2UNtsBtwMbu64lRq8THSb1vutCSkVGAIRoBaVNb6IrgEV69QP+5bqIchIG/hvANsBNrmuJwVLgVGB0OT38QUYAhGgVpc0DgAwhl4dDihfeiBJS2hwJXAl0cV1LCdwH/DwM/JmuC4mDNABCtJDS5kTgKtd1iJKZRzQVMMd1IeVGaTOE6HCsvVzX0kYzgFPKYaHf2sgUgBAtoLTZBDfnoU8Gfg184CC73K2HnOAYizDwp4aBvzewA3Av0RW5aZAD/g5sVu4Pf5ARACHWSWlTDbwMbGc5uoFo3vGtYh0aOA44FOhquZa41QNPAfsBWcvZR4eBf7PlzIpSbKDPAo4COjguZ03mAbcC14SB/57rYmyRBkCIdVDaXISbK1F/HQb+n9dQT0fgYKJmYDfAs11YiawAHgfuBB4MA3+Zo6/1IqKpgLKc500SpU1/4HTgp7hvYpuAx4DrgYfDwG9wXI910gAIsRZKm12A57A/XfYcsOe6rrAtfkPdm+hQlr2BPvGX1i4NRIfH3Ak8UDxQ5itKmxqi7VZbWa7rsTDw97OcWbGUNt0AQ/TndifA5mVNk4ke+jeHgf+FxdzEkQZAiGYUv0lNAja0HL0I2CoM/Bmt+UXFi4m2Jvqmug+wM+5PKpwPBMXXy8DrYeAvX9svUNpsTXTEcnX85X3NT8LAv8ZyZsVT2mSJthDuWnyNAXqV6O0LwHTgfeBd4L4w8F8t0XunnjQAQjRDaXML0e1nth0WBv6d7X0TpU0HYDiwxSqvLYFBlH7aIEd01v50ogWLrwAvh4H/UVveTGlzHvCHklXXMkuJGq/plnPFKoqN7GbALkRNbG+gYzMvRTQ6lwemEj3oV77eAz4IA7/O8m8hNaQBEGINlDaHE531b9vNYeAfHWeA0qYLsDmwPtEnrZ6rvXoRDck2EC3OW7Haj/VEp+lNX+U1Iwz8phLWWEU0amB74eWzRFMv8o0xJYr3cuQrcQ6/vaQBEGI1SptBwNtAN8vR04CtV58Xr1RKm82ACdhfNX5qGPj/sJwphHVyDoAQq1DaZICbsf/wzxHdLS4P/6LisavnOYi+WGkzzEGuEFZJAyDE1/2KaCGSbX8KA/8lB7lJ9xeixYM2dQRuKDaDQpQt+QMuRJHSZhT2F55BtOL99w5yE6+4DfJYwPZCrp2AMyxnCmGVrAEQgq8O15kAbGo5ejnRvP8nlnNTRWnzc+AKy7ErgG3L7QY4IVaSEQAhIn/B/sMf4DR5+LfIP4kOR7KpA3BjcUeCEGVHGgBR8ZQ2BxIdTWrbfWHgX+sgN3WK2/KOI9qrb9N2wG8sZwphhTQAoqIpbfoCLh7Cs4EfO8hNreIBPWc6iD6veDqhEGVFGgBR6a4jOmnMpgJwbBj48y3npl4Y+FcTXSBkUzXRVIDrY5WFKClpAETFUtqcDOzvIPry/2/vvuPkKus9jn+m7CZPFkLIQqQGSCiJ1IT6ULwgVapIAiIgxQdUUAFB4YII2KUjKigHkeKVohiqlEiHYyhC6ARIKAEMkJBANofsTrl/nAmkZyeZ83vOzPm9X6957fWld7+/JLtzfvPUKAzu9pDbKr5BfF+CpE2AM4UzlUqUNgAqk4x1w4FzPUQ/C5zqIbdl1K7tPd5D9CnGuq085CqVCN0GqDKnNpQ7jvjmPEmzgS2jMHhWOLclGevGAPsJx74EjIjC4BPhXKUaTkcAVBb9DPmHP8Cp+vBvqG8SXzcsaRjxz49STU8bAJUpxrqd8HPC2z3AxR5yW1YUBlOAYz1En2is295DrlINpVMAKjOMdSsS3/K3hnD0VOJ75t8Rzs0EY911wEHCsa8Bm0Zh0CWcq1TD6AiAypLLkH/4AxytD/9EHQdMEc4cCvxaOFOphtIGQGWCse7rwIEeoq+IwuAfHnIzo3aewjEeoo811u3sIVephtAGQLU8Y906wCUeol/Fz3a1zInC4BbgauHYHPAnY11/4VylGkIbANXSjHUF4BpA+k26BByic8SivgdMFs4cDFwgnKlUQ2gDoFrdacB2HnJ/EoXBYx5yMysKgxmA8xD9DWOdjxMllVom2gCollU7te3HHqIfAX7hITfzojC4C/ijh+jLa7tMlGoa2gColmSs6wD+Akjf5f4RcFgUBmXhXPWZk4DXhTNXw886E6WWmjYAqlVdBKzrIfe7URhM8pCraqIwmAkcSXzroqRDjHX7C2cqtdT0ICDVcmpvwjd5iL4hCgPpA2nUIhjrLiZeGCjpPWCjKAzeF85Vqm46AqBairFuVeByD9GTgW95yFWLdirwinDmIOBS4Uylloo2AKplGOtywJ+BTuHoCvD1KAw+FM5VixGFQQQcTvzvI+kAY93BwplK1U0bANVKvgfs5iH3/CgM7vOQq5YgCoMQOM9D9G9ro1FKpZY2AKolGOs2ws/Z7E8BP/KQq3rvx8DzwpkD8bMdUale0wZANT1jXR/g/4A+wtER8Wl/3cK5qg5RGMwmngooCUfvbaw7UjhTqV7TBkC1gl8CG3vIPTkKgxc95Ko6RWHwJH4OZ7rIWLemh1yllkgbANXUjHW7Aid4iL4jCoPfe8hVS+9nxFM2kvoTXxiUE85Vaom0AVBNy1jXSbzqX/rN9T3gKOFMtYyiMOghngqQnrLZBd0iqlJIGwDVzP5IfASrtG9EYTDFQ65aRlEYPAuc5SH6XGPdEA+5Si2SNgCqKRnrjgK+4iH60igMbvOQqxrnHGCccGYHcKWxTt9zVWroD6NqOsa6ocDFHqJfAk72kKsaqHZR0+HAJ8LRXwCOF85UapG0AVBNxVhXJL7lbznh6B7iLX+zhHNVAqIweBk4zUP0z411G3jIVWoB2gCoZnMGsLWP3CgM/uMhVyXnYuAh4UwDXGWsKwjnKrUAbQBU0zDWWeB0D9EPAOd6yFUJisKgAhwBdAlHbw38UDhTqQXodcCqKRjrlgeeBqRXUk8HNonC4C3hXCXEWPdtQPpMh25gi9quBKW80BEA1SwuQf7hD/Btffi3vMuAscKZ7cRTAW3CuUp9ShsAlXrGutHEq7alXRuFwXUecpWgKAyqwDeAj4SjR+BnSkspQBsAlXLGujWAP3iIfh04zkOu8iAKgzeBEz1En26sG+khVyltAFR61c5PvwpYUTi6DBwWhYH0J0LlURQGfwJuF44tAlfXbrRUSpQ2ACrNTgK+6CH3V1EYPOwhV/l3NDBNOHND4GzhTKV0F4CC2p5kA3Sn5W57Y92mwGPEi6UkPQ5sG4WB9N3xKiWMdV8jPmxKUhnYIQqDUDhXZZg2AC2q9lBfi3jl/ND5vg4A+hE/9A0w90rk2cAM4gVRH9X+78nAi7XXS8CrST4gjXV9gSeBzyeVsQhdwIgoDF4RzlUpY6z7G3CAcOwEYLMoDCLhXJVRRd8FqMao7ZO3wHbA9sSHjXQsxbfqAwyqvRalx1j3KvAE8C/gX1EYTF6KrEU5F/mHP8CJ+vBXNd8mPrt/ZcHM9YFfAicIZqoM0xGAJmas2wI4ENgV2Bjwebzoy9SaAeCeKAw+XppvYqzbA/hnIwvrpTFRGOzvIVellLHuK8DfhWOrwE5RGDwgnKsySBuAJmOsG0H80D8QPwfj9EYE3AT8Gbi3duTqEhnrVgaeAVZJrrSFepf4tL8PhHNVyhnrrgUOEY6dRPzzOFM4V2WMTgE0AWPdCsSrk48B1vNcTm8Y4jfNQ4C3jHXXAFdFYTBhCf9/AfIP/ypwpD781SJ8F9gJWE0wcx3gPOBbgpkqg3QEIMWMdUOI7w8/Cvnrb5NwF/CTKAwenf+/MNYdg58Dfy6OwkDnXNUiGev2RP58AIDdozC420OuyghtAFLIWLcN8W1h+9GaZzWMBc6es9feWLc+8BTxzgRJzwFbRmHwiXCuajLGuiuIG3FJk4GNojCYIZyrMkIbgBQx1g0GzgEO8l2LkPuAnwO/ArYQzp4NbBWFwTPCuaoJGev6A88Cg4Wjr4rC4AjhTJUR2gCkgLGuAzgFOJl4/lwl7/tRGFzouwjVPIx1OwP3ADnh6H2jMLhVOFNlQCsOLzcVY90hxFvozkAf/lLGAhf5LkI1lygM/gVc6iH6j8a6Tg+5qsXpLgBPjHWDiFe97+O7loyZBhxeuwJWqXr9ENid+FRNKasAvwO+KpipMkBHADww1u1LPJ+oD395R0dh8I7vIlRzisKgCzgC6NXZFg10kLFutHCmanG6BkCQsW454qHnb/iuJaP+FIWB/t2rZWasOx/4vnDsB8S7AqYI56oWpSMAQox1w4Gn0Ye/L68Rn6mgVCOcTnwxlqSVgMuEM1UL0wZAgLFuR+BRZOcN1WdKwCF6tKpqlNrZEYcTX+Mr6cvGusOEM1WL0gYgYbVf1ruIr+BVfvw0CoNxvotQrSUKg8eAX3uI/o2xbnUPuarFaAOQIGPdj4GrgXbftWTYo8SHDSmVhLOJL7CSNIB4B5FSy0QXASbAWJcjnqs7xnctGfcxsFkUBhN9F6Jal7FuM+AxoE04+pgoDC4XzlQtREcAknEB+vBPg+/qw18lLQqDp4Gfeog+31i3lodc1SK0AWgwY93ZgN4u59+NURhc5bsIlRm/BJ4QzlweuLI24qhU3bQBaCBj3UnAj33XoZgMfNN3ESo7ojAoEe8KmC0cvRPwHeFM1SK0AWgQY93RwHm+61BUiY/6/dB3ISpbojB4gfhOD2m/Mtat6yFXNTltABqgts/fxyUhakHnR2Fwr+8iVGadT7zzRFI/4Cpjnb6fq7roD8wyqu3HvR4o+K5F8TzxCW1KeRGFQYX4roBZwtHbIn80sWpyug1wGRjr2oH7Aeu5lPr0a6fa2UF1YO3V2QF92sh92EVuahdMi7/mps+CSlP9fEwnPiv9bd+FqGwz1n0X+I1w7GxgZG0qQqkl0uuAl82FpPzhX119AGU7hMrma1EdtDzVgR3Qt5fblStVctNnxc3AK+9RCF8j//RkKEmfftprA4ArgD18F6Iy77fA/sSL9KT0IZ4KsLVFicvEWFcknl6Y8zK1r32ILyZ6NwqDGcuao/zREYClZKw7FLjGdx0LyEFl/c9R2WYI5W2HUh08sLHff1Y3hSdeJ//oRApPvA5d3Y39/o3xrSgM/uC7CJVtxrq1iU8JXF44+owoDH7W2/9xbRpz0/leQ+ndwUazgHfne40HHorC4JU661bCtAFYCsa61YAXgf6+a5mjusoKlA4YQcUOodq5nExoqUL+mckU7nqBwkMT4vX36TAT2CQKg0m+C1HZVtsd9Efh2B5gyygMxi/svzTWbQiMAr5A/LDvTKiO94CHgYdqX59uxMiEahxtAJaCse5vwAG+6wCo9jeUvrYV5b02gqK/dYj5V96jeMXD5MdP9lbDfB4EdqotylLKG2PdP5GflnqGuAnortWwMTC69homXMscM4E7iO8xGBuFgT58PNMGoE7Gur2BW33XQZ8ipf1HUBq9OfRLz11D+SfeoO3KR8hN/MB3KQAnRWFwge8iVLbVhtifQ/5G0MuAqcQP/fWFs5fkdeL1Olfqol1/tAGog7Gug3irmb/zt/M5yrttSOnQrePV+2lUrVK492WKV4fk3vvYZyWfEK+KftFnEUoZ674O6NHUCyoDdxKPCtyiI3aytAGog7HuPOAkX/nVFfvRc8ZeVIav6quE+nSXaLtgLIUHJvis4nFgax1uVL4Z68YA+/muI8XGAydHYTDWdyFZoQcB9ZKxbjhwvK/8ypCV6b74oOZ5+AO0F+k5dQ9Kh1vwd13JlsTbsZTy7ZvEQ/Jq4TYF7jHW3W6s+7zvYrJAG4De+xGezk0ob78u3ReMprqy9G6ixih9dUt6ztgLjPR16Z86zVewUnNEYTAFONZ3HU1gT+AZY91lxrpBvotpZToF0AvGuvWJt/2JN0ylr21F6dBtfH6Cbpjc61NpP+tWclM+8hG/exQGd/sIVmpuxrrrgIN819EkPgbOBC7SabzG0xGA3jkd6b+rYiEePj+sNR7+ANW1O+NpjM97mcbQUQCVFscBU3wX0SSWBy4AxhjrpHdRtDwdAVgCY91Q4GWEL/vpOWlXyrsMl4yU09VNnxOuJzdZ/Mbe7aIwkL6pTakFGOv2BW72XUeTmQSMjsLgSd+FtAodAViy0xB++JdGjWzdhz9ARzvdZ+1DtaOPdLKOAqhUiMLgFnRbYL3WAR4x1n3bdyGtQkcAFsNYtzLwNr07E7shKlutTfdZ+0CuRcb9FyP/nzdpP+Nm6RsHN43C4BnJQKUWxli3AvEBQWv4rqUJ/RU4JgqDmb4LaWY6ArB4hyD48K+u1Un3qXtk4uEPUBk5mJ6jd5CO/V/pQKUWpnaTnvNdR5M6GHjIWLeS70KamTYAi3eEVFC1v4k/+Zv0HOsrofzlzSjvvqFk5GhjXVKXnyhVlygM7kL+sqBWsRlwv7Huc74LaVbaACyCsW7OtZgiek7dg+oqqblcUFTPd3aksq7Ydt8CsLdUmFK9cBLx2fiqfhsCD9TuW1B10gZg0Y6QCqrYIVRGrCkVlz7FAqWjt5dM/LJkmFKLU5vHPpI0XajdXDYAHjTW+bujpUlpA7AQxro24vn/5OVz9By5rUhUmlU2WYPKlmtLxe1mrDNSYUotSRQG9wOX+K6jiQ0B/llbWKl6SRuAhfsCsLJEUHm3DamuOVAiKvV6jtpOagFkP2BXiSCl6rCa7wKa3HDgBmOd6LbtZqYNwMLtLJLSp0jp0K1FoppBde1OyrsMk4rTaQCVGsa6U4FRvutoAbsBv/FdRLPQBmDhRBqA0v4jqHZ2SEQ1jdJh20C7SAO/t7FOf/6Vd8a63YGf+66jhRxrrPuO7yKagb4Bzqd23vTmSedU+xtKoxOPaTrVlZentN9mElErA9tJBCm1KMa6IcSH2uh7cWNdaKwb6buItNMfugXtiMDRv+XdhkO/bO35763yfptKXYCk0wDKG2NdEbgRWNF3LS2oCFxlrNM32cXQBmBBIsP/FTtUIqYpVTuXo7KeyNkeViJEqUU4EdBPqcnZCDjbdxFpVvRdQAolvievOsBQGb5K0jFNrWKHkJ+Q+I2pYisOlZpbbeg/nQ+n9gKVoYPi9UkDO6gO7KDaGX8llyM3bSa5abPITZ0JU7vITesi/9r7MLvku/KF+YGxbkwUBuN8F5JGehnQXIx1OWAm8TaxxJR335CeE2Q2GjSr3BtT6fOtv0hEDYrC4H2JIKXmMNbdTYq2olaX60Nlq3WobDuU8uaDoW+dV6B0l8g/+SaF8DXy4yaR++iTZApdOi8Cm0RhkMoOxScdAZjXYBJ++AOU7ZCkI5peda1OqqsNIPfO9KSjhgHaACgxxrpDScPDP5+jvNMwyjsPo7LJ6lBYhhnh9mJ8oqkdApUq+effoXDfyxTufgHKlcbVvHSGA8cAv/ddSNroGoB5DU88oW8blRGDE49pBUKNkk4DKDG1RWm/8F1HZet1mP37r9Fz8q7xMeTL8vCfXz5HZePV6fneF5n9h0Mpb79u47730jvTWLe87yLSRhuAeSX+MCiPHCy1z73pVbYVWSi5gUSIUjUO8HbxR2X4qnSfO4rus/ahulbyl2JWVx9Az+l70n3RgVQ28nrQ4SDgFJ8FpJE2APNKfASgsukaSUe0jMrwVaAt8WZJRwCUCGNdH+A0L+FtBXpO3IXuC0Z7eRBXNliF7nNH0fOD3aDd28zz9/XWwHlpAzCv5MecV14u8YiWkcvFK4+TpQ2AkvJNQPwBVF2xH93nHEB5t89LRy+g/MVhdJ83imqnl/dBQ3z1sqrRBmBeA5IOqA7UBqAeAg3A2rVPZkolpjb3f6p0bmW9QXRf8lUqw9Kz7dhzTUca6/T89RptAOaVfAOgZ//XReDvq4CexKaStx+wqmRg+Qvr+/y0vVifjkrsLD4ANwA4VDo0rbQBmFeyd0nn4h98VYfkRwBAfw9U8pxkWGXEmvT80Ot8+5K1Feg5aVcqW6wlnfxd6cC00je+eSU6AlBdwTR2u00GCEwBgP4eqAQZ69ZGcN9/dfUB9Jy2Z3O81+RydJ/6Japrig7CbWis21EyMK2a4CdEhrGuH1Dn8Vf10fn/+glNmejvgUrSUUhdb9XRTveZ+1BdromWtcypuUO05oMlw9JK3/g+k/zYvM7/101oBEDmzVll1eEiKXkvn6YbIh61+BLkxX4V96kd/Z5p2gB8JvnDqzP/47YUciJ/afp7oBJhrNuI+IjxxJX33dTHfHrDVEYOprT/CKm4VYGtpMLSSt/4PjMr8YRpyUe0mty0LokY/T1QSdldJKVfO6WDtxSJSlL5oC0kpwK+LBWUVvrGVxOFQYWERwFyU2cm+e1bkjYAqsntIRFSGr051f5GIipR1eX7Uj5oC6m4faWC0krf+OaV6NMmNz2Cil6/XA+hpkknZ1TD1RYW75B0TrWzQ3LoPHGl/TajupLIgunhtX+jzNIGYF7JjtFXq+Q+1GmAushMm+g/ikrC9kDi49mlQ7eGPine71+v9gKlw7aRSMqR8aPAtQGY10dJBwgNabcMgRGA2cDbSYeoTNo08YSOdsq7+D/jv9HKuwyXmtJovb+8OmgDMK/XE0/QdQB1EWiYJkVhoPMyKgkbJR1Q3mJtKLbg23g+R2WbdSSSEr8BNs1a8CdnmbyWdEBuqo4A9FpVpAFI/N9cZVbiDUDFJn+BqS9lmT+bjgCoT01MOiD/nI4291Z+whToLicdow2AajhjXZ6kP10W8/EIQIuqjBwMfRM9nBW0AVBzSfxhUHj8dShVko5pCflQ5NmsDYBKwlrE988nprLx6tDRnmSEX+1FypsnfobS0NpVzZmkDcC8Eh8BoKub/DOTE49pBYVHk//nQBsAlYxkbxYFKluunXSEd5WtEl8HUADWTzokrbQBmNdEIPEx58K/RR5sTS339nRyb02TiNIGQCWhb9IBlVUT7zG8q8r8GTM7DaANwFyiMPgEeDrpnHyoDcCSFB4VeS5XgEkSQSpzkt/D1tn6t4sKXQaW2Z0A2gAs6OGkA3IfzCT/yntJxzS1vMwoyatRGMyWCFKZk/gIgNBpeV4JNQCt/xe5CNoALOgRiRChBW5NKffhLPIv/lci6k6JEJVJyY4AFPNUB2TgFFvTBibxNXrJ3wSbUtoALCjxEQCAwj0vQndJIqrpFG57BqoiZ/PcJhGiMinREYDqwI7M3GBR7Ux8FEAbABWLwuBdBOaFcx/MpDgm8eUGTSf34SyKNz0lETUTeEAiSGVSoiMA1eUTn2FIDYE/qzYAah73SYQUb3iC3EeZ/dlbqOJfxsEnPRJRY6Mw6JYIUpmU6FMrNyNK8tunSu6jxP+smV0HpA3Awt0kktLVTeGvj4lENYPc29Mp3Pm8VNztUkEqkxIdAch9OAsycoOFwPHpmf0Upg3Awt0DTJcIKt72LLn/zpCISr3ilY9AWeSUxCpwh0SQyqxkx63LlWyMAszqlhgR1AZAfaY2NHyLSFipTPHPoUhUmuVf+i+FR8R2RjwVhcE7UmEqkxLfxpKb1vo3iwpdnqYNgFrAjVJBhQcnkH/hXam49KlUKV7+kGSiDv+rpL2QeEIGbhYVuA0UdA2AWoi7AZmx+Sq0/eKOzF4V3Hb5Q9IN0A2SYSqTXkw6IPe2yCylV0J/Rh0BUPOqTQP8VSovN7WLtp/cJnH9baoU7nyegux2yH9GYfCcZKDKnigMPiThaYAs3ClSeEzkpO4PJELSSBuAxbsQwbW2+QlTaLtorFScd/nn3qbtdyI7Luf2a+lAlVmJTgPkn3uH3MwWHr2eXSL/1FtJp5SRmK5JKW0AFiMKgwlILQasKdz3MsXrn5CM9CL3349o++kdUBJZ9T/HuCgM9PAfJSXZB0u5Qn5c695llf/PmxKnpU7I8n0g2gAs2fnSgcWrQqnLcPyIumk/61aJAz7mp5/+laTE1wHkZW7N9EJoiuNZiZC00gZgCaIweAiQPa2nWqX9nLvIP5348Je4XNds2s++jdwbU6WjXwbGSIeqTEt8aLnw5BswuwXvFKlUpUY3npEISSttAHrnXPHEqIf2H90cX4zTInJvT6f9+OvJj5/sI/6cKAwycnaaSonk55ZnlyjeMj7xGGmFe16QOuio9edbF0MbgN75O9KjAADlCm2/u5+2394ndUJeYvL/eZP246/3tXXpHeBaH8Equ6IweA9IfKircP0T5D5uoZ1ss0sUr/m3RNInwIMSQWmlDUAv1D45nugrv3D7s7SfPqZpf8kLt4yn/YybyXV5W2tzoV78ozxJ/ISrXNdsCi20cLh401NSZ6I8EIVBBs5TXjRtAHopCoNH8XiATH78ZNpPuIHcWx/6KqF+pQptl9xL26UPQMXb6PtrwG99havM+4dESPGW8eTe+1giKlG5GRHFG5+UirtTKiittAGozyl4PDYy9850+nzvOopXh/ElGSmWHzeJPsf9H4U7vJ+5c2wUBs05dKJawa1A8qv0esrx+0KTK147DiKx97bMNwC5alXXRdXDWDLO5/cAAAgESURBVPcr4kbAq2p/Q/ngLSntvTEUC77L+VT+pf9SvOJh8s+l4q6d66IwONh3ESrbjHVjgZ0lsnpO2pXyLsMlohqu8MhrtP38dqmj1yZEYbCBSFKK6QhA/X4KvOK7iNxHEcU/PEgfdw2Fe18Cz41c7u3ptP3sdtpPvCEtD/8ZeFy3odRcRKYBANp+cy/5lxK/iLDh8hPfp+28uwXPXeVKsaQU0xGApWCs2xJ4FCj6rmWO6pCVKI3anPJW60BHu1BofHxx4e7nKdz1Qtp2KhwXhcHvfRehlLGuE5gM9JXIq67Yj+5Lvkq1czmJuGWWmx7Rfvx1kmsYysBgvRJcG4ClZqz7EfFoQLoU81Q2WYPyNkOo2CFUV2rwm0CpTH78ZArhRPL/npjWGwwfBHaKwiBVHYnKLmPdn4AjpfIq6w2i+7xR0J6azygLVyrTfspN0reB3hGFwV6SgWmlDcBSMtYVgAeA7XzXsjiV9QZRsUOpbD6Y6uf6U+1vIFfHN+gukZvaRf6VKeQfnUjh8dfTvgDxXWBkFAbNNw6qWpaxbgTwH8nMymZr0nP6nlSX6yMZ23uzumn/5T/JP/GGdPKoKAz+Lh2aRtoALANj3drAeKC/51J6r5inOrDj0xedta9922BaF7lpXeSmxi+mdfncu780eoAvRmHwsO9ClJqfse5hhD8wVFcbQPdZe1Ndc6Bk7BLl3p1B+5m3kntrmnT0G8B6URj0SAenkTYAy8hYtzdwM7qgMg1OiMLgYt9FKLUwxroDgevFg/u1033KHlS2Wls8emHy4yfT9vM7fB1sdnQUBoGP4DTSh9YyisLgNuAE33Uo/qoPf5Vyf8PH5TOz4ts3i9c97nehbrVKYczTPk81nQj82UdwWukIQIMY6y4Gvue7jox6AtgxCoNUrkhUag5j3ZeAO3zlV1cfQOlwS3mH9URz8+Mm0fbnR8m9Ln4L6NyOiMLgKp8FpI02AA1irMsTXze7j+9aMuY54H+iMBCfTFRqaRjr7gN29FlDZYPPUTpqOyqbrJFoTnww2CPkn3s70ZxemAB8PgqDsu9C0kQbgAYy1nUA9wNbeC4lK14BdojCYIrvQpTqrdo5IvK3iy5EZeRgyjsPo7L1OlQ7GrRbYFY3hSdep3DfBPL/ntiY77nsdo/C4G7fRaSNNgANZqxbgXiIb1vftbS4N4gf/m/5LkSpehnrrgYO813Hp4p5KhuvTnnbofH5IXUeIpSb1kX+35MohK+Rf3oylFL1QfuaKAy+7ruINNIGIAG1kYCbETr/O4PeBb4QhcGrvgtRamkY6wYQT1+t7ruWBeSIzwwZ2BE3AgP7Ue1cLt4unOOzLcJzbRnOTZkheYxvPd4Hhkdh4HXxQVppA5AQY11f4EZgb9+1tJiXgD2jMJjkuxClloWxbjfgLt91tLivRWHwV99FpJVuA0xI7QrarwA3+K6lhdwPbKsPf9UKanPSel9Fcsbow3/xtAFIUO20qYOBn5DWAbLmcQ3xQp4PfReiVAP9kHiFumqsV4AjfBeRdjoFIMRYtwdwLdDpu5Ym9JMoDM70XYRSSTDWDQNCYIDvWlrETGCbKAye911I2ukIgJAoDO4ERgKP+66liUwB9tKHv2plURi8BIwGSr5raRFH6cO/d7QBEBSFwZvA9ui8X2/cDGwchYG3U9OUkhKFwVj0JNFGOCcKgxt9F9EsdArAE2PdrsClwFDftaRMF/GlPnphh8ocPVJ8mVxBfNmPPtR6SUcAPInC4B5gY+CXxNfYKhgLbKYPf5VhJwB/8F1EE7oWOEYf/vXREYAUMNZtBPwRsL5r8eRl4OTazYpKZZ6OBNTlRuBgPee/fjoCkAJRGDwHbAccBbzmuRxJU4nf5DbSh79Sn4nC4HjgHN91NIF/AIfow3/p6AhAyhjrCsAhwGnABp7LScoM4DLg17qvX6lFM9b9GDjbdx0pdQHwgygMKr4LaVbaAKRU7XrhA4EfARt6LqdR3gQuAoIoDD72XYxSzcBYNwq4Eqjvhp7W1QMcF4XB5b4LaXbaAKScsS4H7E58qtV+QF+vBS2dJ4HzgL9FYaB7nZWqk7FuQ2AMsK7vWjz7EDggCoP7fBfSCrQBaCK1G8QOIm4GtvFbzRK9QnwPwvVRGDzruxilml3t9/9aYC/ftXjyMHB4FAYTfRfSKrQBaFLGug2AUcRXDm8L9PFbEQCvEq/IvSEKg6d9F6NUq6mNCB5LvH14ec/lSJlNPBV6gc73N5Y2AC3AWGeITxjcufYaSfI7PMrAM8AjxJ35I1EYTE44UykFGOvWAH4H7Ou7loQ9CXw9CoMXfBfSirQBaEHGur7A+sDw2mtY7esQ6l9INBOYSLw9cc7XCcBjupBPKb9qCwQvAVbxXUuDvQ/8FLhU1w0lRxuAjDHWFYEVaq8BtVcH8AkQzfWaBcyMwuADT6UqpXrBWLcc8XkaJwMrei5nWc0CLiQ+0/8j38W0Om0AlFKqBRjr+gMn1l4reC6nXp8AVxFf/f2O72KyQhsApZRqIca6FYkXCh5FPO2XZm8QX4oWRGEw1XcxWaMNgFJKtaDajoGdAAfsT3rOEOkB7iU+DfRWPcbXH20AlFKqxdVGBfYHdgN2ATqFS+gC7iI+u/+2KAymC+erhdAGQCmlMqR2zPjmxM3ADsAmwKoNjHgfeAl4sfZ6Hng4CoOogRmqAbQBUEqpjDPWrQRsTNwMDCGeLpj/1We+/5wj3hr84twvnctvHv8Pn+OWJhEBarYAAAAASUVORK5CYII=;" parent="J3KQMFhL8NenG9qHJy6Z-4" vertex="1">
          <mxGeometry x="13.32" y="6.25" width="23.75" height="23.75" as="geometry" />
        </mxCell>
        <mxCell id="J3KQMFhL8NenG9qHJy6Z-5" value="&lt;b&gt;dependencies file/files&lt;/b&gt;" style="text;html=1;align=center;verticalAlign=middle;whiteSpace=wrap;rounded=0;" parent="1" vertex="1">
          <mxGeometry x="60" y="90" width="60" height="30" as="geometry" />
        </mxCell>
        <mxCell id="mQt1Y_fce692hMoaLj4W-10" value="" style="shape=image;verticalLabelPosition=bottom;labelBackgroundColor=default;verticalAlign=top;aspect=fixed;imageAspect=0;image=https://cdn-icons-png.flaticon.com/512/8635/8635550.png;" parent="1" vertex="1">
          <mxGeometry x="67.5" y="210" width="40" height="40" as="geometry" />
        </mxCell>
        <mxCell id="mQt1Y_fce692hMoaLj4W-11" value="&lt;b&gt;reference clustering solution&lt;/b&gt;" style="text;html=1;align=center;verticalAlign=middle;whiteSpace=wrap;rounded=0;" parent="1" vertex="1">
          <mxGeometry x="35" y="260" width="110" height="30" as="geometry" />
        </mxCell>
        <UserObject label="" id="mQt1Y_fce692hMoaLj4W-12">
          <mxCell style="rounded=1;whiteSpace=wrap;html=1;fillColor=none;" parent="1" vertex="1">
            <mxGeometry x="195" y="10" width="450" height="300" as="geometry" />
          </mxCell>
        </UserObject>
        <mxCell id="mQt1Y_fce692hMoaLj4W-13" value="processing" style="text;html=1;strokeColor=#d6b656;fillColor=#fff2cc;align=center;verticalAlign=middle;whiteSpace=wrap;overflow=hidden;" parent="1" vertex="1">
          <mxGeometry x="210" y="330" width="460" height="20" as="geometry" />
        </mxCell>
        <mxCell id="-ERKZ0T2O4d6mvIAI1Hh-4" value="" style="endArrow=classic;html=1;rounded=0;strokeColor=#808080;entryX=-0.046;entryY=0.675;entryDx=0;entryDy=0;entryPerimeter=0;" parent="1" target="-ERKZ0T2O4d6mvIAI1Hh-7" edge="1">
          <mxGeometry width="50" height="50" relative="1" as="geometry">
            <mxPoint x="130" y="80" as="sourcePoint" />
            <mxPoint x="250" y="60" as="targetPoint" />
            <Array as="points">
              <mxPoint x="210" y="80" />
            </Array>
          </mxGeometry>
        </mxCell>
        <mxCell id="-ERKZ0T2O4d6mvIAI1Hh-6" value="output" style="text;html=1;strokeColor=#d6b656;fillColor=#fff2cc;align=center;verticalAlign=middle;whiteSpace=wrap;overflow=hidden;" parent="1" vertex="1">
          <mxGeometry x="695" y="330" width="140" height="20" as="geometry" />
        </mxCell>
        <mxCell id="-ERKZ0T2O4d6mvIAI1Hh-7" value="" style="shape=image;verticalLabelPosition=bottom;labelBackgroundColor=default;verticalAlign=top;aspect=fixed;imageAspect=0;image=https://cdn-icons-png.flaticon.com/512/1953/1953351.png;" parent="1" vertex="1">
          <mxGeometry x="250" y="35" width="65" height="65" as="geometry" />
        </mxCell>
        <mxCell id="-ERKZ0T2O4d6mvIAI1Hh-8" value="&lt;i&gt;build directed graph&lt;/i&gt;" style="text;html=1;align=center;verticalAlign=middle;whiteSpace=wrap;rounded=0;" parent="1" vertex="1">
          <mxGeometry x="195" y="95" width="65" height="20" as="geometry" />
        </mxCell>
        <mxCell id="-ERKZ0T2O4d6mvIAI1Hh-9" value="" style="shape=image;verticalLabelPosition=bottom;labelBackgroundColor=default;verticalAlign=top;aspect=fixed;imageAspect=0;image=https://cdn-icons-png.flaticon.com/512/8635/8635550.png;" parent="1" vertex="1">
          <mxGeometry x="447.63" y="33" width="58" height="58" as="geometry" />
        </mxCell>
        <mxCell id="-ERKZ0T2O4d6mvIAI1Hh-10" value="" style="endArrow=classic;html=1;rounded=0;exitX=1.014;exitY=0.658;exitDx=0;exitDy=0;exitPerimeter=0;entryX=0;entryY=0.75;entryDx=0;entryDy=0;strokeColor=#808080;align=center;verticalAlign=middle;fontFamily=Helvetica;fontSize=11;fontColor=default;labelBackgroundColor=default;" parent="1" source="-ERKZ0T2O4d6mvIAI1Hh-7" edge="1" target="-ERKZ0T2O4d6mvIAI1Hh-9">
          <mxGeometry width="50" height="50" relative="1" as="geometry">
            <mxPoint x="455" y="110" as="sourcePoint" />
            <mxPoint x="440" y="60" as="targetPoint" />
          </mxGeometry>
        </mxCell>
        <mxCell id="-ERKZ0T2O4d6mvIAI1Hh-11" value="&lt;i&gt;generate&amp;nbsp;&lt;/i&gt;&lt;div&gt;&lt;i&gt;clustering solution&lt;/i&gt;&lt;/div&gt;" style="text;html=1;align=center;verticalAlign=middle;whiteSpace=wrap;rounded=0;" parent="1" vertex="1">
          <mxGeometry x="321.25" y="95" width="85" height="20" as="geometry" />
        </mxCell>
        <mxCell id="-ERKZ0T2O4d6mvIAI1Hh-14" value="&lt;i&gt;Louvain&lt;/i&gt;&lt;div&gt;&lt;i&gt;Leiden&lt;/i&gt;&lt;/div&gt;&lt;div&gt;&lt;i&gt;DBSCAN&lt;/i&gt;&lt;/div&gt;" style="text;html=1;align=center;verticalAlign=middle;whiteSpace=wrap;rounded=0;fillColor=#dae8fc;strokeColor=#6c8ebf;" parent="1" vertex="1">
          <mxGeometry x="336.25" y="20" width="70" height="45" as="geometry" />
        </mxCell>
        <mxCell id="-ERKZ0T2O4d6mvIAI1Hh-16" value="" style="sketch=0;outlineConnect=0;fontColor=#232F3E;gradientColor=none;fillColor=#545454;strokeColor=none;dashed=0;verticalLabelPosition=bottom;verticalAlign=top;align=center;html=1;fontSize=12;fontStyle=0;aspect=fixed;pointerEvents=1;shape=mxgraph.aws4.cloudwatch_metrics_insights;" parent="1" vertex="1">
          <mxGeometry x="514.9999999999999" y="221.87" width="47.51" height="48.13" as="geometry" />
        </mxCell>
        <mxCell id="-ERKZ0T2O4d6mvIAI1Hh-18" value="&lt;i&gt;MoJoFM&lt;/i&gt;" style="text;html=1;align=center;verticalAlign=middle;whiteSpace=wrap;rounded=0;fillColor=#dae8fc;strokeColor=#6c8ebf;" parent="1" vertex="1">
          <mxGeometry x="508.38" y="280" width="66.25" height="20" as="geometry" />
        </mxCell>
        <mxCell id="-ERKZ0T2O4d6mvIAI1Hh-19" value="" style="sketch=0;outlineConnect=0;fontColor=#232F3E;gradientColor=none;fillColor=#545454;strokeColor=none;dashed=0;verticalLabelPosition=bottom;verticalAlign=top;align=center;html=1;fontSize=12;fontStyle=0;aspect=fixed;pointerEvents=1;shape=mxgraph.aws4.cloudwatch_metrics_insights;" parent="1" vertex="1">
          <mxGeometry x="515" y="130" width="49.36" height="50" as="geometry" />
        </mxCell>
        <mxCell id="-ERKZ0T2O4d6mvIAI1Hh-20" value="&lt;i&gt;MQ&lt;/i&gt;" style="text;html=1;align=center;verticalAlign=middle;whiteSpace=wrap;rounded=0;fillColor=#dae8fc;strokeColor=#6c8ebf;" parent="1" vertex="1">
          <mxGeometry x="505.63" y="190" width="66.25" height="20" as="geometry" />
        </mxCell>
        <mxCell id="-ERKZ0T2O4d6mvIAI1Hh-23" value="" style="endArrow=classic;html=1;rounded=0;strokeColor=#808080;align=center;verticalAlign=middle;fontFamily=Helvetica;fontSize=11;fontColor=default;labelBackgroundColor=default;" parent="1" edge="1">
          <mxGeometry width="50" height="50" relative="1" as="geometry">
            <mxPoint x="139" y="265" as="sourcePoint" />
            <mxPoint x="505" y="265" as="targetPoint" />
            <Array as="points">
              <mxPoint x="170" y="265" />
              <mxPoint x="215" y="265" />
            </Array>
          </mxGeometry>
        </mxCell>
        <mxCell id="-ERKZ0T2O4d6mvIAI1Hh-26" value="&lt;i&gt;compute MoJoFM&lt;/i&gt;" style="text;html=1;align=center;verticalAlign=middle;whiteSpace=wrap;rounded=0;rotation=0;" parent="1" vertex="1">
          <mxGeometry x="428.75" y="205.13" width="61.25" height="74.87" as="geometry" />
        </mxCell>
        <mxCell id="-ERKZ0T2O4d6mvIAI1Hh-27" value="&lt;i&gt;compute&amp;nbsp;&lt;/i&gt;&lt;div&gt;&lt;i&gt;MQ&lt;/i&gt;&lt;/div&gt;" style="text;html=1;align=center;verticalAlign=middle;whiteSpace=wrap;rounded=0;rotation=0;" parent="1" vertex="1">
          <mxGeometry x="424.38" y="140" width="70" height="20" as="geometry" />
        </mxCell>
        <mxCell id="-ERKZ0T2O4d6mvIAI1Hh-38" value="" style="endArrow=none;html=1;rounded=0;strokeColor=#004C99;" parent="1" edge="1">
          <mxGeometry width="50" height="50" relative="1" as="geometry">
            <mxPoint x="490" y="241" as="sourcePoint" />
            <mxPoint x="490" y="121" as="targetPoint" />
            <Array as="points">
              <mxPoint x="490" y="241" />
              <mxPoint x="490" y="181" />
              <mxPoint x="490" y="121" />
              <mxPoint x="490" y="91" />
            </Array>
          </mxGeometry>
        </mxCell>
        <mxCell id="-ERKZ0T2O4d6mvIAI1Hh-39" value="" style="endArrow=classic;html=1;rounded=0;strokeColor=#004C99;" parent="1" edge="1">
          <mxGeometry width="50" height="50" relative="1" as="geometry">
            <mxPoint x="495" y="150" as="sourcePoint" />
            <mxPoint x="505" y="150" as="targetPoint" />
          </mxGeometry>
        </mxCell>
        <mxCell id="-ERKZ0T2O4d6mvIAI1Hh-40" value="" style="endArrow=classic;html=1;rounded=0;strokeColor=#004C99;" parent="1" edge="1">
          <mxGeometry width="50" height="50" relative="1" as="geometry">
            <mxPoint x="495" y="240" as="sourcePoint" />
            <mxPoint x="505" y="240" as="targetPoint" />
          </mxGeometry>
        </mxCell>
        <mxCell id="-ERKZ0T2O4d6mvIAI1Hh-44" value="" style="endArrow=classic;html=1;rounded=0;exitX=0.5;exitY=1;exitDx=0;exitDy=0;entryX=-0.038;entryY=0.824;entryDx=0;entryDy=0;entryPerimeter=0;strokeColor=#808080;align=center;verticalAlign=middle;fontFamily=Helvetica;fontSize=11;fontColor=default;labelBackgroundColor=default;" parent="1" source="-ERKZ0T2O4d6mvIAI1Hh-7" target="-ERKZ0T2O4d6mvIAI1Hh-19" edge="1">
          <mxGeometry width="50" height="50" relative="1" as="geometry">
            <mxPoint x="445" y="210" as="sourcePoint" />
            <mxPoint x="495" y="160" as="targetPoint" />
            <Array as="points">
              <mxPoint x="283" y="170" />
            </Array>
          </mxGeometry>
        </mxCell>
        <mxCell id="-ERKZ0T2O4d6mvIAI1Hh-48" value="" style="whiteSpace=wrap;html=1;shape=mxgraph.basic.document;fillColor=none;" parent="1" vertex="1">
          <mxGeometry x="725" y="33" width="50" height="57" as="geometry" />
        </mxCell>
        <mxCell id="-ERKZ0T2O4d6mvIAI1Hh-49" value="" style="shape=image;verticalLabelPosition=bottom;labelBackgroundColor=default;verticalAlign=top;aspect=fixed;imageAspect=0;image=https://cdn-icons-png.flaticon.com/512/8635/8635550.png;" parent="1" vertex="1">
          <mxGeometry x="734" y="50" width="32" height="32" as="geometry" />
        </mxCell>
        <mxCell id="-ERKZ0T2O4d6mvIAI1Hh-50" value="" style="endArrow=classic;html=1;rounded=0;exitX=1;exitY=0.75;exitDx=0;exitDy=0;strokeColor=#808080;align=center;verticalAlign=middle;fontFamily=Helvetica;fontSize=11;fontColor=default;labelBackgroundColor=default;" parent="1" source="-ERKZ0T2O4d6mvIAI1Hh-9" edge="1">
          <mxGeometry width="50" height="50" relative="1" as="geometry">
            <mxPoint x="345" y="200" as="sourcePoint" />
            <mxPoint x="720" y="77" as="targetPoint" />
          </mxGeometry>
        </mxCell>
        <mxCell id="-ERKZ0T2O4d6mvIAI1Hh-51" value="&lt;b&gt;clustering result&lt;/b&gt;" style="text;html=1;align=center;verticalAlign=middle;whiteSpace=wrap;rounded=0;" parent="1" vertex="1">
          <mxGeometry x="725" y="90" width="60" height="30" as="geometry" />
        </mxCell>
        <mxCell id="-ERKZ0T2O4d6mvIAI1Hh-52" value="" style="endArrow=classic;html=1;rounded=0;entryX=0;entryY=0.5;entryDx=0;entryDy=0;entryPerimeter=0;exitX=1;exitY=0.5;exitDx=0;exitDy=0;strokeColor=#808080;align=center;verticalAlign=middle;fontFamily=Helvetica;fontSize=11;fontColor=default;labelBackgroundColor=default;" parent="1" edge="1">
          <mxGeometry width="50" height="50" relative="1" as="geometry">
            <mxPoint x="574.63" y="167.40999999999997" as="sourcePoint" />
            <mxPoint x="721.63" y="167.40999999999997" as="targetPoint" />
          </mxGeometry>
        </mxCell>
        <mxCell id="-ERKZ0T2O4d6mvIAI1Hh-53" value="" style="endArrow=classic;html=1;rounded=0;strokeColor=#808080;align=center;verticalAlign=middle;fontFamily=Helvetica;fontSize=11;fontColor=default;labelBackgroundColor=default;" parent="1" edge="1">
          <mxGeometry width="50" height="50" relative="1" as="geometry">
            <mxPoint x="575" y="250" as="sourcePoint" />
            <mxPoint x="719" y="250" as="targetPoint" />
          </mxGeometry>
        </mxCell>
        <mxCell id="-ERKZ0T2O4d6mvIAI1Hh-54" value="" style="shape=image;html=1;verticalAlign=top;verticalLabelPosition=bottom;labelBackgroundColor=#ffffff;imageAspect=0;aspect=fixed;image=https://cdn1.iconfinder.com/data/icons/seo-and-web-development-6/32/development_computer_website_check_result-128.png" parent="1" vertex="1">
          <mxGeometry x="735" y="130" width="40" height="40" as="geometry" />
        </mxCell>
        <mxCell id="-ERKZ0T2O4d6mvIAI1Hh-55" value="&lt;b&gt;MQ metric result&lt;/b&gt;" style="text;html=1;align=center;verticalAlign=middle;whiteSpace=wrap;rounded=0;" parent="1" vertex="1">
          <mxGeometry x="725" y="170" width="70" height="30" as="geometry" />
        </mxCell>
        <mxCell id="-ERKZ0T2O4d6mvIAI1Hh-56" value="" style="shape=image;html=1;verticalAlign=top;verticalLabelPosition=bottom;labelBackgroundColor=#ffffff;imageAspect=0;aspect=fixed;image=https://cdn1.iconfinder.com/data/icons/seo-and-web-development-6/32/development_computer_website_check_result-128.png" parent="1" vertex="1">
          <mxGeometry x="740" y="220" width="40" height="40" as="geometry" />
        </mxCell>
        <mxCell id="-ERKZ0T2O4d6mvIAI1Hh-57" value="&lt;b&gt;MoJoFM metric result&lt;/b&gt;" style="text;html=1;align=center;verticalAlign=middle;whiteSpace=wrap;rounded=0;" parent="1" vertex="1">
          <mxGeometry x="727.5" y="260" width="75" height="30" as="geometry" />
        </mxCell>
      </root>
    </mxGraphModel>
  </diagram>
  <diagram id="XeuW-A3ZSPk6Nvi6jmlT" name="scenario">
    <mxGraphModel dx="794" dy="412" grid="1" gridSize="10" guides="1" tooltips="1" connect="1" arrows="1" fold="1" page="1" pageScale="1" pageWidth="850" pageHeight="1100" math="0" shadow="0">
      <root>
        <mxCell id="0" />
        <mxCell id="1" parent="0" />
        <mxCell id="focQwa_UzJH_bs_jNPBf-1" value="&lt;b&gt;Scenario I:&lt;/b&gt; Only structural dependencies" style="text;html=1;strokeColor=#d6b656;fillColor=#fff2cc;align=center;verticalAlign=middle;whiteSpace=wrap;overflow=hidden;" parent="1" vertex="1">
          <mxGeometry x="17.5" y="100" width="422.5" height="20" as="geometry" />
        </mxCell>
        <mxCell id="_ZM6RbawkYuP6BgQ1wdR-1" value="" style="group" parent="1" vertex="1" connectable="0">
          <mxGeometry x="30" y="10" width="125.71000000000001" height="65" as="geometry" />
        </mxCell>
        <mxCell id="_ZM6RbawkYuP6BgQ1wdR-4" value="&lt;b style=&quot;font-size: 13px;&quot;&gt;&lt;font color=&quot;#0066cc&quot; style=&quot;font-size: 13px;&quot;&gt;structural&lt;/font&gt;&lt;/b&gt;&lt;div style=&quot;font-size: 13px;&quot;&gt;&lt;b style=&quot;font-size: 13px;&quot;&gt;&lt;font color=&quot;#0066cc&quot; style=&quot;font-size: 13px;&quot;&gt;dependencies&amp;nbsp;&lt;/font&gt;&lt;/b&gt;&lt;/div&gt;" style="text;html=1;align=center;verticalAlign=middle;whiteSpace=wrap;rounded=0;fontSize=13;" parent="_ZM6RbawkYuP6BgQ1wdR-1" vertex="1">
          <mxGeometry x="40" y="-1.4299999999999997" width="60" height="30" as="geometry" />
        </mxCell>
        <mxCell id="NTAj5z_szv7dGT0ilOGb-2" value="&lt;b&gt;reference&lt;/b&gt;&lt;br&gt;&lt;div style=&quot;font-size: 13px;&quot;&gt;&lt;b style=&quot;font-size: 13px;&quot;&gt;clustering solution&lt;/b&gt;&lt;/div&gt;" style="text;html=1;align=center;verticalAlign=middle;whiteSpace=wrap;rounded=0;fontSize=13;" parent="_ZM6RbawkYuP6BgQ1wdR-1" vertex="1">
          <mxGeometry y="50" width="125.71" height="25" as="geometry" />
        </mxCell>
        <mxCell id="NTAj5z_szv7dGT0ilOGb-3" value="" style="rounded=1;whiteSpace=wrap;html=1;fillColor=#EAF1FC;strokeColor=#6c8ebf;" parent="1" vertex="1">
          <mxGeometry x="200" y="5" width="120" height="70" as="geometry" />
        </mxCell>
        <mxCell id="Fkgld6WzWmGYhF2XPbJi-1" value="&lt;b&gt;&lt;font color=&quot;#004c99&quot;&gt;Tool for Clustering and Evaluation&amp;nbsp;&lt;/font&gt;&lt;/b&gt;" style="text;html=1;align=center;verticalAlign=middle;whiteSpace=wrap;rounded=0;" parent="1" vertex="1">
          <mxGeometry x="216.25" y="25" width="87.5" height="30" as="geometry" />
        </mxCell>
        <mxCell id="Fkgld6WzWmGYhF2XPbJi-4" value="" style="endArrow=classic;html=1;rounded=0;entryX=-0.015;entryY=0.357;entryDx=0;entryDy=0;entryPerimeter=0;" parent="1" target="NTAj5z_szv7dGT0ilOGb-3" edge="1">
          <mxGeometry width="50" height="50" relative="1" as="geometry">
            <mxPoint x="160" y="30" as="sourcePoint" />
            <mxPoint x="180" y="30" as="targetPoint" />
          </mxGeometry>
        </mxCell>
        <mxCell id="Fkgld6WzWmGYhF2XPbJi-5" value="" style="endArrow=classic;html=1;rounded=0;entryX=-0.006;entryY=0.852;entryDx=0;entryDy=0;entryPerimeter=0;" parent="1" target="NTAj5z_szv7dGT0ilOGb-3" edge="1">
          <mxGeometry width="50" height="50" relative="1" as="geometry">
            <mxPoint x="160" y="65" as="sourcePoint" />
            <mxPoint x="190" y="80" as="targetPoint" />
          </mxGeometry>
        </mxCell>
        <mxCell id="Fkgld6WzWmGYhF2XPbJi-12" value="&lt;b&gt;Scenario II:&lt;/b&gt; Only logical dependencies" style="text;html=1;strokeColor=#d6b656;fillColor=#fff2cc;align=center;verticalAlign=middle;whiteSpace=wrap;overflow=hidden;" parent="1" vertex="1">
          <mxGeometry x="18.39" y="230" width="422.5" height="20" as="geometry" />
        </mxCell>
        <mxCell id="Fkgld6WzWmGYhF2XPbJi-29" value="&lt;b&gt;Scenario III:&lt;/b&gt; Structural and logical dependencies" style="text;html=1;strokeColor=#d6b656;fillColor=#fff2cc;align=center;verticalAlign=middle;whiteSpace=wrap;overflow=hidden;" parent="1" vertex="1">
          <mxGeometry x="18.39" y="380" width="422.5" height="20" as="geometry" />
        </mxCell>
        <mxCell id="Fkgld6WzWmGYhF2XPbJi-56" value="clustering&amp;nbsp;&lt;div&gt;solution, MQ and MoJoFM value&lt;/div&gt;" style="text;html=1;align=center;verticalAlign=middle;whiteSpace=wrap;rounded=0;" parent="1" vertex="1">
          <mxGeometry x="342.14" y="25" width="95" height="30" as="geometry" />
        </mxCell>
        <mxCell id="Fkgld6WzWmGYhF2XPbJi-57" value="" style="endArrow=classic;html=1;rounded=0;" parent="1" edge="1">
          <mxGeometry width="50" height="50" relative="1" as="geometry">
            <mxPoint x="320" y="40" as="sourcePoint" />
            <mxPoint x="340" y="40" as="targetPoint" />
          </mxGeometry>
        </mxCell>
        <mxCell id="Fkgld6WzWmGYhF2XPbJi-60" value="" style="group;fontSize=13;" parent="1" vertex="1" connectable="0">
          <mxGeometry x="30" y="142.5" width="125.71000000000001" height="65" as="geometry" />
        </mxCell>
        <mxCell id="Fkgld6WzWmGYhF2XPbJi-73" value="&lt;font color=&quot;#0066cc&quot; style=&quot;font-size: 13px;&quot;&gt;&lt;b style=&quot;font-size: 13px;&quot;&gt;logical&lt;/b&gt;&lt;br style=&quot;font-size: 13px;&quot;&gt;&lt;/font&gt;&lt;div style=&quot;font-size: 13px;&quot;&gt;&lt;b style=&quot;font-size: 13px;&quot;&gt;&lt;font color=&quot;#0066cc&quot; style=&quot;font-size: 13px;&quot;&gt;dependencies&amp;nbsp;&lt;/font&gt;&lt;/b&gt;&lt;/div&gt;" style="text;html=1;align=center;verticalAlign=middle;whiteSpace=wrap;rounded=0;fontSize=13;" parent="Fkgld6WzWmGYhF2XPbJi-60" vertex="1">
          <mxGeometry x="38.20999999999998" y="-1.4300000000000068" width="60" height="30" as="geometry" />
        </mxCell>
        <mxCell id="Fkgld6WzWmGYhF2XPbJi-66" value="" style="rounded=1;whiteSpace=wrap;html=1;fillColor=#EAF1FC;strokeColor=#6c8ebf;" parent="1" vertex="1">
          <mxGeometry x="200" y="140" width="120" height="70" as="geometry" />
        </mxCell>
        <mxCell id="Fkgld6WzWmGYhF2XPbJi-67" value="&lt;b&gt;&lt;font style=&quot;color: light-dark(rgb(0, 76, 153), rgb(237, 237, 237));&quot;&gt;Tool for Clustering and Evaluation&amp;nbsp;&lt;/font&gt;&lt;/b&gt;" style="text;html=1;align=center;verticalAlign=middle;whiteSpace=wrap;rounded=0;fontFamily=Helvetica;fontSize=12;fontColor=default;" parent="1" vertex="1">
          <mxGeometry x="216.25" y="160" width="87.5" height="30" as="geometry" />
        </mxCell>
        <mxCell id="Fkgld6WzWmGYhF2XPbJi-68" value="" style="endArrow=classic;html=1;rounded=0;entryX=-0.015;entryY=0.357;entryDx=0;entryDy=0;entryPerimeter=0;" parent="1" target="Fkgld6WzWmGYhF2XPbJi-66" edge="1">
          <mxGeometry width="50" height="50" relative="1" as="geometry">
            <mxPoint x="160" y="165" as="sourcePoint" />
            <mxPoint x="173.39" y="165" as="targetPoint" />
          </mxGeometry>
        </mxCell>
        <mxCell id="Fkgld6WzWmGYhF2XPbJi-69" value="" style="endArrow=classic;html=1;rounded=0;entryX=0;entryY=0.857;entryDx=0;entryDy=0;entryPerimeter=0;exitX=0.991;exitY=0.4;exitDx=0;exitDy=0;exitPerimeter=0;" parent="1" source="Fkgld6WzWmGYhF2XPbJi-65" target="Fkgld6WzWmGYhF2XPbJi-66" edge="1">
          <mxGeometry width="50" height="50" relative="1" as="geometry">
            <mxPoint x="143.39" y="200" as="sourcePoint" />
            <mxPoint x="180" y="200" as="targetPoint" />
          </mxGeometry>
        </mxCell>
        <mxCell id="Fkgld6WzWmGYhF2XPbJi-70" value="clustering&amp;nbsp;&lt;div&gt;solution, MQ and MoJoFM value&lt;/div&gt;" style="text;html=1;align=center;verticalAlign=middle;whiteSpace=wrap;rounded=0;" parent="1" vertex="1">
          <mxGeometry x="338.39" y="160" width="102.5" height="30" as="geometry" />
        </mxCell>
        <mxCell id="Fkgld6WzWmGYhF2XPbJi-71" value="" style="endArrow=classic;html=1;rounded=0;entryX=0;entryY=0.5;entryDx=0;entryDy=0;exitX=1;exitY=0.5;exitDx=0;exitDy=0;" parent="1" source="Fkgld6WzWmGYhF2XPbJi-66" target="Fkgld6WzWmGYhF2XPbJi-70" edge="1">
          <mxGeometry width="50" height="50" relative="1" as="geometry">
            <mxPoint x="303.39" y="175" as="sourcePoint" />
            <mxPoint x="333.39" y="110" as="targetPoint" />
          </mxGeometry>
        </mxCell>
        <mxCell id="Fkgld6WzWmGYhF2XPbJi-77" value="&lt;b style=&quot;font-size: 13px;&quot;&gt;reference&amp;nbsp;&lt;/b&gt;&lt;div style=&quot;font-size: 13px;&quot;&gt;&lt;b style=&quot;font-size: 13px;&quot;&gt;clustering solution&lt;/b&gt;&lt;/div&gt;" style="text;html=1;align=center;verticalAlign=middle;whiteSpace=wrap;rounded=0;fontSize=13;" parent="1" vertex="1">
          <mxGeometry x="40" y="340" width="122.67" height="30" as="geometry" />
        </mxCell>
        <mxCell id="Fkgld6WzWmGYhF2XPbJi-78" value="&lt;font color=&quot;#0066cc&quot; style=&quot;font-size: 13px;&quot;&gt;&lt;b style=&quot;font-size: 13px;&quot;&gt;logical&lt;/b&gt;&lt;br style=&quot;font-size: 13px;&quot;&gt;&lt;/font&gt;&lt;div style=&quot;font-size: 13px;&quot;&gt;&lt;b style=&quot;font-size: 13px;&quot;&gt;&lt;font color=&quot;#0066cc&quot; style=&quot;font-size: 13px;&quot;&gt;dependencies&amp;nbsp;&lt;/font&gt;&lt;/b&gt;&lt;/div&gt;" style="text;html=1;align=center;verticalAlign=middle;whiteSpace=wrap;rounded=0;fontSize=13;" parent="1" vertex="1">
          <mxGeometry x="78.38999999999999" y="260" width="60" height="30" as="geometry" />
        </mxCell>
        <mxCell id="Fkgld6WzWmGYhF2XPbJi-80" value="&lt;b&gt;&lt;font color=&quot;#004c99&quot;&gt;Tool Fig. 2&amp;nbsp;&lt;/font&gt;&lt;/b&gt;" style="text;html=1;align=center;verticalAlign=middle;whiteSpace=wrap;rounded=0;" parent="1" vertex="1">
          <mxGeometry x="203.39" y="305" width="75" height="30" as="geometry" />
        </mxCell>
        <mxCell id="Fkgld6WzWmGYhF2XPbJi-81" value="" style="endArrow=classic;html=1;rounded=0;entryX=-0.006;entryY=0.151;entryDx=0;entryDy=0;entryPerimeter=0;" parent="1" edge="1">
          <mxGeometry width="50" height="50" relative="1" as="geometry">
            <mxPoint x="160" y="285" as="sourcePoint" />
            <mxPoint x="199.99999999999983" y="284.90000000000003" as="targetPoint" />
          </mxGeometry>
        </mxCell>
        <mxCell id="Fkgld6WzWmGYhF2XPbJi-82" value="" style="endArrow=classic;html=1;rounded=0;entryX=0;entryY=0.5;entryDx=0;entryDy=0;exitX=1.071;exitY=0.5;exitDx=0;exitDy=0;exitPerimeter=0;" parent="1" edge="1">
          <mxGeometry width="50" height="50" relative="1" as="geometry">
            <mxPoint x="161.07" y="319.6" as="sourcePoint" />
            <mxPoint x="199.3099999999999" y="319.6" as="targetPoint" />
          </mxGeometry>
        </mxCell>
        <mxCell id="Fkgld6WzWmGYhF2XPbJi-83" value="clustering&amp;nbsp;&lt;div&gt;solution, MQ and MoJoFM value&lt;/div&gt;" style="text;html=1;align=center;verticalAlign=middle;whiteSpace=wrap;rounded=0;" parent="1" vertex="1">
          <mxGeometry x="338.39" y="290" width="102.5" height="30" as="geometry" />
        </mxCell>
        <mxCell id="Fkgld6WzWmGYhF2XPbJi-84" value="" style="endArrow=classic;html=1;rounded=0;entryX=0;entryY=0.5;entryDx=0;entryDy=0;" parent="1" target="Fkgld6WzWmGYhF2XPbJi-83" edge="1">
          <mxGeometry width="50" height="50" relative="1" as="geometry">
            <mxPoint x="303.39" y="305" as="sourcePoint" />
            <mxPoint x="333.39" y="240" as="targetPoint" />
          </mxGeometry>
        </mxCell>
        <mxCell id="Fkgld6WzWmGYhF2XPbJi-87" value="&lt;b style=&quot;font-size: 13px;&quot;&gt;&lt;font color=&quot;#0066cc&quot; style=&quot;font-size: 13px;&quot;&gt;structural&lt;/font&gt;&lt;/b&gt;&lt;div style=&quot;font-size: 13px;&quot;&gt;&lt;b style=&quot;font-size: 13px;&quot;&gt;&lt;font color=&quot;#0066cc&quot; style=&quot;font-size: 13px;&quot;&gt;dependencies&amp;nbsp;&lt;/font&gt;&lt;/b&gt;&lt;/div&gt;" style="text;html=1;align=center;verticalAlign=middle;whiteSpace=wrap;rounded=0;fontSize=13;" parent="1" vertex="1">
          <mxGeometry x="78.39" y="300" width="60" height="30" as="geometry" />
        </mxCell>
        <mxCell id="Fkgld6WzWmGYhF2XPbJi-89" value="" style="endArrow=classic;html=1;rounded=0;entryX=0;entryY=0.8;entryDx=0;entryDy=0;entryPerimeter=0;" parent="1" edge="1">
          <mxGeometry width="50" height="50" relative="1" as="geometry">
            <mxPoint x="160" y="350" as="sourcePoint" />
            <mxPoint x="201.95999999999987" y="350" as="targetPoint" />
          </mxGeometry>
        </mxCell>
        <mxCell id="4g09X8hMU0XVw3CV-GO9-2" value="" style="rounded=1;whiteSpace=wrap;html=1;fillColor=#EAF1FC;strokeColor=#6c8ebf;" parent="1" vertex="1">
          <mxGeometry x="200" y="280" width="120" height="70" as="geometry" />
        </mxCell>
        <mxCell id="Fkgld6WzWmGYhF2XPbJi-65" value="&lt;b style=&quot;font-size: 13px;&quot;&gt;reference&amp;nbsp;&lt;/b&gt;&lt;div style=&quot;font-size: 13px;&quot;&gt;&lt;b style=&quot;font-size: 13px;&quot;&gt;clustering solution&lt;/b&gt;&lt;/div&gt;" style="text;html=1;align=center;verticalAlign=middle;whiteSpace=wrap;rounded=0;fontSize=13;" parent="1" vertex="1">
          <mxGeometry x="35.36" y="190" width="125.71" height="25" as="geometry" />
        </mxCell>
        <mxCell id="4g09X8hMU0XVw3CV-GO9-3" value="&lt;b&gt;&lt;font style=&quot;color: light-dark(rgb(0, 76, 153), rgb(86, 174, 255));&quot;&gt;Tool for Clustering and Evaluation&amp;nbsp;&lt;/font&gt;&lt;/b&gt;" style="text;html=1;align=center;verticalAlign=middle;whiteSpace=wrap;rounded=0;" parent="1" vertex="1">
          <mxGeometry x="216.25" y="300" width="87.5" height="30" as="geometry" />
        </mxCell>
      </root>
    </mxGraphModel>
  </diagram>
</mxfile>
